<svg width="13" height="12" viewBox="0 0 13 12" fill="none" xmlns="http://www.w3.org/2000/svg">
<path fill-rule="evenodd" clip-rule="evenodd" d="M12.125 5.76396C12.125 8.88984 9.57859 11.4239 6.4375 11.4239C3.29638 11.4239 0.75 8.88984 0.75 5.76396C0.75 2.63805 3.29638 0.104004 6.4375 0.104004C9.57859 0.104004 12.125 2.63805 12.125 5.76396ZM6.4375 9.01844C6.67308 9.01844 6.86406 8.82838 6.86406 8.59394V5.19797C6.86406 4.96353 6.67308 4.77347 6.4375 4.77347C6.20192 4.77347 6.01094 4.96353 6.01094 5.19797V8.59394C6.01094 8.82838 6.20192 9.01844 6.4375 9.01844ZM6.4375 2.93398C6.75162 2.93398 7.00625 3.18739 7.00625 3.49998C7.00625 3.81257 6.75162 4.06597 6.4375 4.06597C6.12338 4.06597 5.86875 3.81257 5.86875 3.49998C5.86875 3.18739 6.12338 2.93398 6.4375 2.93398Z" fill="#555555"/>
</svg>
