<svg width="400" height="227" viewBox="0 0 400 227" fill="none" xmlns="http://www.w3.org/2000/svg">
<path fill-rule="evenodd" clip-rule="evenodd" d="M287.565 41.089C292.853 39.672 295.612 34.7383 294.195 29.4499C292.835 24.373 288.084 21.4515 282.69 22.8969C277.19 24.3706 274.219 29.3609 275.58 34.4378C276.997 39.7263 281.959 42.5911 287.565 41.089ZM295.094 97.113L308.633 93.4854C309.796 93.1737 310.493 91.9667 310.153 90.6975L298.136 45.8516C297.825 44.6882 296.512 44.0196 295.348 44.3314L281.952 48.4878C280.894 48.7712 280.197 49.9782 280.509 51.1417L292.412 95.5644C292.724 96.7279 293.931 97.4247 295.094 97.113ZM80.0137 86.8397C81.4307 92.1281 78.6716 97.0618 73.3832 98.4788C67.7775 99.9809 62.8154 97.116 61.3984 91.8276C60.0381 86.7507 63.0087 81.7603 68.5086 80.2866C73.9028 78.8413 78.6533 81.7628 80.0137 86.8397ZM94.4512 150.875L80.9129 154.503C79.7494 154.815 78.5424 154.118 78.2307 152.954L66.3276 108.531C66.0159 107.368 66.7127 106.161 67.7704 105.878L81.1671 101.721C82.3305 101.409 83.6433 102.078 83.955 103.241L95.9715 148.087C96.3115 149.356 95.6147 150.563 94.4512 150.875ZM49.9227 162.807L21.5768 170.402C20.4133 170.714 19.2063 170.017 18.8946 168.853L2.34369 107.085C2.03195 105.921 2.7288 104.714 3.89225 104.402L29.1709 97.6289C44.8247 93.4345 54.2047 98.4031 56.9821 108.768C58.6258 114.903 56.8906 120.696 52.9943 124.347C52.8112 124.51 52.8962 124.827 53.136 124.876C60.5571 125.495 66.05 129.918 68.0055 137.216C71.0096 148.428 65.4707 158.641 49.9227 162.807ZM31.5804 112.967L24.0709 114.98L27.1033 126.297L34.6129 124.285C39.2667 123.038 40.8927 120.221 39.9007 116.519C38.9655 113.029 36.2342 111.72 31.5804 112.967ZM40.7996 136.797L30.5401 139.546L33.6576 151.181L43.9171 148.432C48.5709 147.185 50.1402 144.157 49.1483 140.455C48.2414 137.07 45.4535 135.55 40.7996 136.797ZM124.927 107.227C126.252 107.098 127.161 105.835 126.821 104.566L123.977 91.8374C123.665 90.674 122.564 89.9488 121.478 90.1264C121.132 90.1057 120.815 90.1907 120.498 90.2757C116.267 91.4093 112.905 93.6705 109.801 98.5834C109.54 98.88 109.06 98.7818 108.975 98.4645L108.493 96.6664C108.182 95.503 106.869 94.8345 105.705 95.1462L92.3087 99.3027C91.2511 99.5861 90.5542 100.793 90.866 101.956L102.769 146.379C103.081 147.543 104.288 148.24 105.451 147.928L119.095 144.272C120.259 143.96 120.956 142.753 120.644 141.59L112.964 112.926C112.85 112.503 112.977 112.129 113.343 111.804C115.57 109.961 118.495 108.61 121.563 107.788C122.62 107.505 123.812 107.299 124.927 107.227ZM166.429 95.4259L157.122 97.9199C156.91 97.9765 156.755 98.2448 156.812 98.4563L160.241 111.254C161.12 114.533 164.367 116.497 167.674 115.724C168.943 115.384 170.156 114.833 171.234 114.204C172.39 113.44 174.02 114.024 174.494 115.371L177.666 125.517C177.893 126.363 177.697 127.322 176.936 127.866C174.709 129.71 171.494 131.252 167.475 132.329C153.725 136.013 146.249 130.534 142.99 118.371L138.937 103.246C138.88 103.034 138.612 102.879 138.401 102.936L134.487 103.985C133.324 104.296 132.117 103.6 131.805 102.436L128.886 91.542C128.574 90.3786 129.271 89.1716 130.434 88.8598L134.348 87.8112C134.559 87.7546 134.714 87.4863 134.658 87.2748L132.617 79.6595C132.362 78.7076 132.847 77.5573 133.743 77.0907L146.544 70.7131C147.728 70.0557 149.281 70.7733 149.649 72.1483L152.427 82.5136C152.483 82.7251 152.752 82.88 152.963 82.8233L163.117 80.1026C164.386 79.7625 165.621 80.5651 165.856 81.8627L167.957 93.0894C168.212 94.0413 167.487 95.1425 166.429 95.4259ZM217.883 117.802L231.422 114.174C232.585 113.862 233.282 112.655 232.942 111.386L215.229 45.2809C214.917 44.1175 213.604 43.4489 212.441 43.7607L199.044 47.9171C197.987 48.2005 197.29 49.4075 197.601 50.571L202.533 68.9747C202.646 69.3978 202.308 69.8284 201.857 69.836C199.543 69.6625 196.574 70.0046 194.035 70.6848C178.91 74.7375 172.274 87.6251 176.525 103.49C180.607 118.721 193.128 125.682 204.657 122.593C208.676 121.516 212.277 119.304 214.827 116.127C214.904 115.993 215.116 115.936 215.173 116.147L215.201 116.253C215.513 117.417 216.72 118.114 217.883 117.802ZM194.759 97.9245C193.059 91.5784 194.915 86.6599 201.05 85.0161C203.059 84.4776 205.499 84.2772 206.776 84.3886L211.679 102.687C210.087 104.36 208.191 105.322 205.864 105.945C200.152 107.476 196.375 103.953 194.759 97.9245ZM252.613 87.0704C252.401 87.1271 252.352 87.367 252.486 87.4444C255.276 90.6645 259.827 91.1458 267.442 89.1053C270.932 88.17 275.388 86.1826 278.749 83.9215C279.983 83.0242 281.613 83.6077 282.115 85.0601L285.372 95.5236C285.599 96.3698 285.403 97.3293 284.747 97.845C281.133 100.854 274.964 103.641 270.31 104.888C249.791 110.386 236.656 103.249 232.433 87.4896C228.296 72.0474 236.42 59.2144 250.805 55.3601C264.026 51.8175 275.719 56.9596 279.545 71.2384C279.971 72.8249 280.488 75.1801 280.844 77.3522C281.021 78.4382 280.296 79.5394 279.238 79.8228L252.613 87.0704ZM248.92 77.5174L262.564 73.8614L262.224 72.5922C261.147 68.573 258.168 66.7638 254.149 67.8408C250.052 69.0518 248.49 72.5311 248.92 77.5174Z" fill="#F4ECCD"/>
</svg>
