<svg width="498" height="649" viewBox="0 0 498 649" fill="none" xmlns="http://www.w3.org/2000/svg">
<path fill-rule="evenodd" clip-rule="evenodd" d="M42.3975 56.493C43.5679 61.8415 40.5831 66.642 35.2347 67.8124C29.5653 69.053 24.7414 65.9612 23.571 60.6128C22.4475 55.4783 25.6462 50.631 31.2085 49.4138C36.6639 48.22 41.2739 51.3586 42.3975 56.493ZM53.8515 121.129L40.1595 124.125C38.9829 124.383 37.8095 123.631 37.552 122.454L27.7207 77.5272C27.4633 76.3505 28.2153 75.1771 29.285 74.943L42.8599 71.412C44.0366 71.1545 45.3169 71.8832 45.5744 73.0598L55.4993 118.414C55.7802 119.698 55.0281 120.871 53.8515 121.129ZM8.81782 130.984L-19.8497 137.257C-21.0264 137.514 -22.1998 136.762 -22.4572 135.586L-36.1274 73.1161C-36.3848 71.9395 -35.6328 70.7661 -34.4561 70.5086L-8.8907 64.9142C6.94063 61.4498 16.0803 66.8478 18.3743 77.3307C19.7319 83.5349 17.73 89.2412 13.6687 92.708C13.4782 92.8618 13.5484 93.1827 13.7858 93.2429C21.1701 94.205 26.4521 98.8779 28.0673 106.259C30.5485 117.597 24.5422 127.543 8.81782 130.984ZM-7.19473 80.3478L-14.7895 82.0098L-12.2849 93.4554L-4.6901 91.7935C0.0165113 90.7635 1.77129 88.0256 0.952016 84.2817C0.17956 80.7518 -2.48812 79.3179 -7.19473 80.3478ZM0.910081 104.579L-9.46586 106.85L-6.891 118.616L3.48493 116.346C8.19154 115.316 9.8995 112.364 9.08023 108.62C8.33119 105.197 5.61669 103.549 0.910081 104.579ZM86.3172 78.9402C87.6476 78.8732 88.6136 77.653 88.3327 76.3694L86.082 63.5231C85.8245 62.3465 84.7581 61.571 83.665 61.6981C83.3207 61.6614 82.9998 61.7316 82.6789 61.8018C78.4002 62.7381 74.9372 64.841 71.6081 69.6048C71.334 69.889 70.8593 69.7687 70.7891 69.4477L70.3911 67.6293C70.1337 66.4526 68.8533 65.724 67.6767 65.9815L54.1017 69.5125C53.032 69.7466 52.28 70.92 52.5375 72.0966L62.3687 117.023C62.6262 118.2 63.7996 118.952 64.9763 118.695L78.7752 115.675C79.9518 115.418 80.7039 114.244 80.4464 113.067L74.1029 84.079C74.0093 83.6511 74.153 83.2834 74.5341 82.9759C76.8438 81.2374 79.8289 80.0237 82.9309 79.3449C84.0006 79.1108 85.2007 78.9603 86.3172 78.9402ZM128.322 69.0753L118.909 71.1352C118.695 71.182 118.528 71.4428 118.575 71.6567L121.407 84.5999C122.133 87.9159 125.285 90.0283 128.625 89.4097C129.908 89.1288 131.145 88.634 132.252 88.0556C133.441 87.3468 135.043 88.0052 135.454 89.3724L138.152 99.6547C138.34 100.51 138.099 101.46 137.314 101.968C135.004 103.706 131.721 105.097 127.656 105.987C113.751 109.03 106.536 103.21 103.844 90.9091L100.497 75.6126C100.45 75.3987 100.19 75.2316 99.9756 75.2784L96.0178 76.1445C94.8412 76.402 93.6678 75.6499 93.4103 74.4733L90.9993 63.4555C90.7418 62.2789 91.4938 61.1055 92.6705 60.848L96.6283 59.9819C96.8423 59.9351 97.0094 59.6743 96.9626 59.4604L95.2772 51.7587C95.0665 50.796 95.6047 49.6694 96.5205 49.2448L109.604 43.4674C110.817 42.8656 112.335 43.6544 112.639 45.045L114.933 55.5279C114.98 55.7418 115.241 55.909 115.455 55.8621L125.724 53.615C127.007 53.3341 128.204 54.1931 128.378 55.5001L129.957 66.8121C130.167 67.7748 129.392 68.8413 128.322 69.0753ZM178.684 93.8122L192.376 90.816C193.552 90.5585 194.304 89.3851 194.023 88.1015L179.394 21.2462C179.136 20.0696 177.856 19.3409 176.679 19.5984L163.104 23.1295C162.035 23.3635 161.283 24.5369 161.54 25.7136L165.613 44.3261C165.707 44.754 165.349 45.1685 164.898 45.1552C162.594 44.8745 159.613 45.0787 157.045 45.6405C141.749 48.9878 134.523 61.554 138.034 77.5992C141.405 93.0027 153.59 100.536 165.249 97.985C169.314 97.0955 173.014 95.0528 175.708 91.9972C175.792 91.8669 176.006 91.8201 176.053 92.034L176.076 92.141C176.334 93.3176 177.507 94.0697 178.684 93.8122ZM156.506 72.8845C155.101 66.4664 157.184 61.6392 163.388 60.2815C165.42 59.8368 167.867 59.7497 169.137 59.9201L173.187 78.4256C171.519 80.0236 169.58 80.8962 167.227 81.4112C161.451 82.6752 157.84 78.9817 156.506 72.8845ZM214.801 64.7237C214.587 64.7705 214.527 65.0078 214.657 65.0914C217.295 68.4373 221.818 69.129 229.519 67.4436C233.049 66.6712 237.592 64.8924 241.055 62.7895C242.329 61.9504 243.93 62.6088 244.364 64.083L247.133 74.6862C247.32 75.5419 247.08 76.4913 246.401 76.9761C242.651 79.8144 236.36 82.312 231.653 83.3419C210.901 87.883 198.111 80.1453 194.623 64.207C191.206 48.5896 199.916 36.147 214.464 32.9636C227.835 30.0376 239.278 35.7162 242.438 50.1569C242.789 51.7615 243.197 54.1382 243.451 56.3244C243.578 57.4174 242.803 58.4839 241.733 58.7179L214.801 64.7237ZM211.554 55.0097L225.353 51.9901L225.072 50.7065C224.183 46.6417 221.291 44.6964 217.226 45.5858C213.078 46.6057 211.356 50.0088 211.554 55.0097ZM251.846 20.4116C257.194 19.2413 260.179 14.4408 259.009 9.09233C257.885 3.95785 253.275 0.819279 247.82 2.01307C242.257 3.23028 239.059 8.0776 240.182 13.2121C241.353 18.5605 246.177 21.6523 251.846 20.4116ZM256.771 76.7244L270.463 73.7282C271.639 73.4707 272.391 72.2973 272.11 71.0137L262.186 25.6591C261.928 24.4824 260.648 23.7538 259.471 24.0113L245.896 27.5423C244.827 27.7764 244.074 28.9498 244.332 30.1264L254.163 75.0532C254.421 76.2298 255.594 76.9819 256.771 76.7244Z" fill="#F4ECCD"/>
<path fill-rule="evenodd" clip-rule="evenodd" d="M266.397 130.493C267.568 135.841 264.583 140.642 259.235 141.812C253.565 143.053 248.741 139.961 247.571 134.613C246.447 129.478 249.646 124.631 255.208 123.414C260.664 122.22 265.274 125.359 266.397 130.493ZM277.851 195.129L264.159 198.125C262.983 198.383 261.809 197.631 261.552 196.454L251.721 151.527C251.463 150.351 252.215 149.177 253.285 148.943L266.86 145.412C268.037 145.155 269.317 145.883 269.574 147.06L279.499 192.414C279.78 193.698 279.028 194.871 277.851 195.129ZM232.818 204.984L204.15 211.257C202.974 211.514 201.8 210.762 201.543 209.586L187.873 147.116C187.615 145.94 188.367 144.766 189.544 144.509L215.109 138.914C230.941 135.45 240.08 140.848 242.374 151.331C243.732 157.535 241.73 163.241 237.669 166.708C237.478 166.862 237.548 167.183 237.786 167.243C245.17 168.205 250.452 172.878 252.067 180.259C254.548 191.597 248.542 201.543 232.818 204.984ZM216.805 154.348L209.211 156.01L211.715 167.455L219.31 165.793C224.017 164.764 225.771 162.026 224.952 158.282C224.18 154.752 221.512 153.318 216.805 154.348ZM224.91 178.579L214.534 180.85L217.109 192.616L227.485 190.346C232.192 189.316 233.9 186.364 233.08 182.62C232.331 179.197 229.617 177.549 224.91 178.579ZM310.317 152.94C311.648 152.873 312.614 151.653 312.333 150.369L310.082 137.523C309.824 136.346 308.758 135.571 307.665 135.698C307.321 135.661 307 135.732 306.679 135.802C302.4 136.738 298.937 138.841 295.608 143.605C295.334 143.889 294.859 143.769 294.789 143.448L294.391 141.629C294.134 140.453 292.853 139.724 291.677 139.981L278.102 143.513C277.032 143.747 276.28 144.92 276.537 146.097L286.369 191.023C286.626 192.2 287.8 192.952 288.976 192.695L302.775 189.675C303.952 189.418 304.704 188.244 304.446 187.067L298.103 158.079C298.009 157.651 298.153 157.283 298.534 156.976C300.844 155.237 303.829 154.024 306.931 153.345C308.001 153.111 309.201 152.96 310.317 152.94ZM352.322 143.075L342.909 145.135C342.695 145.182 342.528 145.443 342.575 145.657L345.407 158.6C346.133 161.916 349.285 164.028 352.625 163.41C353.908 163.129 355.145 162.634 356.252 162.056C357.441 161.347 359.043 162.005 359.454 163.372L362.152 173.655C362.34 174.51 362.099 175.46 361.314 175.968C359.004 177.706 355.721 179.097 351.656 179.987C337.751 183.03 330.536 177.21 327.844 164.909L324.497 149.613C324.45 149.399 324.19 149.232 323.976 149.278L320.018 150.144C318.841 150.402 317.668 149.65 317.41 148.473L314.999 137.456C314.742 136.279 315.494 135.105 316.671 134.848L320.628 133.982C320.842 133.935 321.009 133.674 320.963 133.46L319.277 125.759C319.067 124.796 319.605 123.669 320.521 123.245L333.604 117.467C334.817 116.866 336.335 117.654 336.639 119.045L338.933 129.528C338.98 129.742 339.241 129.909 339.455 129.862L349.724 127.615C351.007 127.334 352.204 128.193 352.378 129.5L353.957 140.812C354.167 141.775 353.392 142.841 352.322 143.075ZM402.684 167.812L416.376 164.816C417.552 164.559 418.304 163.385 418.023 162.102L403.394 95.2462C403.136 94.0696 401.856 93.3409 400.679 93.5984L387.104 97.1295C386.035 97.3635 385.282 98.5369 385.54 99.7136L389.613 118.326C389.707 118.754 389.349 119.169 388.898 119.155C386.594 118.875 383.613 119.079 381.045 119.64C365.749 122.988 358.523 135.554 362.034 151.599C365.404 167.003 377.59 174.536 389.249 171.985C393.314 171.096 397.014 169.053 399.708 165.997C399.792 165.867 400.006 165.82 400.053 166.034L400.076 166.141C400.334 167.318 401.507 168.07 402.684 167.812ZM380.506 146.884C379.101 140.466 381.184 135.639 387.388 134.282C389.42 133.837 391.867 133.75 393.137 133.92L397.187 152.426C395.519 154.024 393.58 154.896 391.227 155.411C385.451 156.675 381.84 152.982 380.506 146.884ZM438.801 138.724C438.587 138.77 438.526 139.008 438.657 139.091C441.295 142.437 445.817 143.129 453.519 141.444C457.049 140.671 461.592 138.892 465.055 136.79C466.328 135.95 467.93 136.609 468.364 138.083L471.133 148.686C471.32 149.542 471.08 150.491 470.401 150.976C466.651 153.814 460.36 156.312 455.653 157.342C434.901 161.883 422.111 154.145 418.623 138.207C415.206 122.59 423.916 110.147 438.464 106.964C451.835 104.038 463.278 109.716 466.438 124.157C466.789 125.761 467.197 128.138 467.451 130.324C467.578 131.417 466.803 132.484 465.733 132.718L438.801 138.724ZM435.554 129.01L449.353 125.99L449.072 124.706C448.182 120.642 445.291 118.696 441.226 119.586C437.078 120.606 435.356 124.009 435.554 129.01ZM475.846 94.4117C481.194 93.2413 484.179 88.4408 483.009 83.0923C481.885 77.9579 477.275 74.8193 471.82 76.0131C466.257 77.2303 463.059 82.0776 464.182 87.2121C465.353 92.5605 470.176 95.6523 475.846 94.4117ZM480.771 150.724L494.463 147.728C495.639 147.471 496.391 146.297 496.11 145.014L486.186 99.6591C485.928 98.4825 484.648 97.7538 483.471 98.0113L469.896 101.542C468.826 101.776 468.074 102.95 468.332 104.126L478.163 149.053C478.421 150.23 479.594 150.982 480.771 150.724Z" fill="#F4ECCD"/>
<path fill-rule="evenodd" clip-rule="evenodd" d="M58.3975 306.493C59.5679 311.841 56.5831 316.642 51.2347 317.812C45.5653 319.053 40.7414 315.961 39.571 310.613C38.4475 305.478 41.6462 300.631 47.2085 299.414C52.6639 298.22 57.2739 301.359 58.3975 306.493ZM69.8515 371.129L56.1595 374.125C54.9829 374.383 53.8095 373.631 53.552 372.454L43.7207 327.527C43.4633 326.35 44.2153 325.177 45.285 324.943L58.8599 321.412C60.0366 321.155 61.3169 321.883 61.5744 323.06L71.4993 368.414C71.7802 369.698 71.0281 370.871 69.8515 371.129ZM24.8178 380.984L-3.84971 387.257C-5.02637 387.514 -6.19975 386.762 -6.45724 385.586L-20.1274 323.116C-20.3848 321.939 -19.6328 320.766 -18.4561 320.509L7.1093 314.914C22.9406 311.45 32.0803 316.848 34.3743 327.331C35.7319 333.535 33.73 339.241 29.6687 342.708C29.4782 342.862 29.5484 343.183 29.7858 343.243C37.1701 344.205 42.4521 348.878 44.0673 356.259C46.5485 367.597 40.5422 377.543 24.8178 380.984ZM8.80527 330.348L1.21051 332.01L3.71514 343.455L11.3099 341.793C16.0165 340.764 17.7713 338.026 16.952 334.282C16.1796 330.752 13.5119 329.318 8.80527 330.348ZM16.9101 354.579L6.53414 356.85L9.109 368.616L19.4849 366.346C24.1915 365.316 25.8995 362.364 25.0802 358.62C24.3312 355.197 21.6167 353.549 16.9101 354.579ZM102.317 328.94C103.648 328.873 104.614 327.653 104.333 326.369L102.082 313.523C101.825 312.346 100.758 311.571 99.665 311.698C99.3207 311.661 98.9998 311.732 98.6789 311.802C94.4002 312.738 90.9372 314.841 87.6081 319.605C87.334 319.889 86.8593 319.769 86.7891 319.448L86.3911 317.629C86.1337 316.453 84.8533 315.724 83.6767 315.981L70.1017 319.513C69.032 319.747 68.28 320.92 68.5375 322.097L78.3687 367.023C78.6262 368.2 79.7996 368.952 80.9763 368.695L94.7752 365.675C95.9518 365.418 96.7039 364.244 96.4464 363.067L90.1029 334.079C90.0093 333.651 90.153 333.283 90.5341 332.976C92.8438 331.237 95.8289 330.024 98.9309 329.345C100.001 329.111 101.201 328.96 102.317 328.94ZM144.322 319.075L134.909 321.135C134.695 321.182 134.528 321.443 134.575 321.657L137.407 334.6C138.133 337.916 141.285 340.028 144.625 339.41C145.908 339.129 147.145 338.634 148.252 338.056C149.441 337.347 151.043 338.005 151.454 339.372L154.152 349.655C154.34 350.51 154.099 351.46 153.314 351.968C151.004 353.706 147.721 355.097 143.656 355.987C129.751 359.03 122.536 353.21 119.844 340.909L116.497 325.613C116.45 325.399 116.19 325.232 115.976 325.278L112.018 326.144C110.841 326.402 109.668 325.65 109.41 324.473L106.999 313.456C106.742 312.279 107.494 311.105 108.671 310.848L112.628 309.982C112.842 309.935 113.009 309.674 112.963 309.46L111.277 301.759C111.067 300.796 111.605 299.669 112.521 299.245L125.604 293.467C126.817 292.866 128.335 293.654 128.639 295.045L130.933 305.528C130.98 305.742 131.241 305.909 131.455 305.862L141.724 303.615C143.007 303.334 144.204 304.193 144.378 305.5L145.957 316.812C146.167 317.775 145.392 318.841 144.322 319.075ZM194.684 343.812L208.376 340.816C209.552 340.559 210.304 339.385 210.023 338.102L195.394 271.246C195.136 270.07 193.856 269.341 192.679 269.598L179.104 273.129C178.035 273.364 177.283 274.537 177.54 275.714L181.613 294.326C181.707 294.754 181.349 295.168 180.898 295.155C178.594 294.875 175.613 295.079 173.045 295.64C157.749 298.988 150.523 311.554 154.034 327.599C157.405 343.003 169.59 350.536 181.249 347.985C185.314 347.096 189.014 345.053 191.708 341.997C191.792 341.867 192.006 341.82 192.053 342.034L192.076 342.141C192.334 343.318 193.507 344.07 194.684 343.812ZM172.506 322.884C171.101 316.466 173.184 311.639 179.388 310.282C181.42 309.837 183.867 309.75 185.137 309.92L189.187 328.426C187.519 330.024 185.58 330.896 183.227 331.411C177.451 332.675 173.84 328.982 172.506 322.884ZM230.801 314.724C230.587 314.77 230.526 315.008 230.657 315.091C233.295 318.437 237.817 319.129 245.519 317.444C249.049 316.671 253.592 314.892 257.055 312.79C258.328 311.95 259.93 312.609 260.364 314.083L263.133 324.686C263.32 325.542 263.08 326.491 262.401 326.976C258.651 329.814 252.36 332.312 247.653 333.342C226.901 337.883 214.111 330.145 210.623 314.207C207.206 298.59 215.916 286.147 230.464 282.964C243.835 280.038 255.278 285.716 258.438 300.157C258.789 301.761 259.197 304.138 259.451 306.324C259.578 307.417 258.803 308.484 257.733 308.718L230.801 314.724ZM227.554 305.01L241.353 301.99L241.072 300.706C240.182 296.642 237.291 294.696 233.226 295.586C229.078 296.606 227.356 300.009 227.554 305.01ZM267.846 270.412C273.194 269.241 276.179 264.441 275.009 259.092C273.885 253.958 269.275 250.819 263.82 252.013C258.257 253.23 255.059 258.078 256.182 263.212C257.353 268.561 262.177 271.652 267.846 270.412ZM272.771 326.724L286.463 323.728C287.639 323.471 288.391 322.297 288.11 321.014L278.186 275.659C277.928 274.482 276.648 273.754 275.471 274.011L261.896 277.542C260.827 277.776 260.074 278.95 260.332 280.126L270.163 325.053C270.421 326.23 271.594 326.982 272.771 326.724Z" fill="#F4ECCD"/>
<path fill-rule="evenodd" clip-rule="evenodd" d="M58.3975 566.493C59.5679 571.841 56.5831 576.642 51.2347 577.812C45.5653 579.053 40.7414 575.961 39.571 570.613C38.4475 565.478 41.6462 560.631 47.2085 559.414C52.6639 558.22 57.2739 561.359 58.3975 566.493ZM69.8515 631.129L56.1595 634.125C54.9829 634.383 53.8095 633.631 53.552 632.454L43.7207 587.527C43.4633 586.35 44.2153 585.177 45.285 584.943L58.8599 581.412C60.0366 581.155 61.3169 581.883 61.5744 583.06L71.4993 628.414C71.7802 629.698 71.0281 630.871 69.8515 631.129ZM24.8178 640.984L-3.84971 647.257C-5.02637 647.514 -6.19975 646.762 -6.45724 645.586L-20.1274 583.116C-20.3848 581.939 -19.6328 580.766 -18.4561 580.509L7.1093 574.914C22.9406 571.45 32.0803 576.848 34.3743 587.331C35.7319 593.535 33.73 599.241 29.6687 602.708C29.4782 602.862 29.5484 603.183 29.7858 603.243C37.1701 604.205 42.4521 608.878 44.0673 616.259C46.5485 627.597 40.5422 637.543 24.8178 640.984ZM8.80527 590.348L1.21051 592.01L3.71514 603.455L11.3099 601.793C16.0165 600.764 17.7713 598.026 16.952 594.282C16.1796 590.752 13.5119 589.318 8.80527 590.348ZM16.9101 614.579L6.53414 616.85L9.109 628.616L19.4849 626.346C24.1915 625.316 25.8995 622.364 25.0802 618.62C24.3312 615.197 21.6167 613.549 16.9101 614.579ZM102.317 588.94C103.648 588.873 104.614 587.653 104.333 586.369L102.082 573.523C101.825 572.346 100.758 571.571 99.665 571.698C99.3207 571.661 98.9998 571.732 98.6789 571.802C94.4002 572.738 90.9372 574.841 87.6081 579.605C87.334 579.889 86.8593 579.769 86.7891 579.448L86.3911 577.629C86.1337 576.453 84.8533 575.724 83.6767 575.981L70.1017 579.513C69.032 579.747 68.28 580.92 68.5375 582.097L78.3687 627.023C78.6262 628.2 79.7996 628.952 80.9763 628.695L94.7752 625.675C95.9518 625.418 96.7039 624.244 96.4464 623.067L90.1029 594.079C90.0093 593.651 90.153 593.283 90.5341 592.976C92.8438 591.237 95.8289 590.024 98.9309 589.345C100.001 589.111 101.201 588.96 102.317 588.94ZM144.322 579.075L134.909 581.135C134.695 581.182 134.528 581.443 134.575 581.657L137.407 594.6C138.133 597.916 141.285 600.028 144.625 599.41C145.908 599.129 147.145 598.634 148.252 598.056C149.441 597.347 151.043 598.005 151.454 599.372L154.152 609.655C154.34 610.51 154.099 611.46 153.314 611.968C151.004 613.706 147.721 615.097 143.656 615.987C129.751 619.03 122.536 613.21 119.844 600.909L116.497 585.613C116.45 585.399 116.19 585.232 115.976 585.278L112.018 586.144C110.841 586.402 109.668 585.65 109.41 584.473L106.999 573.456C106.742 572.279 107.494 571.105 108.671 570.848L112.628 569.982C112.842 569.935 113.009 569.674 112.963 569.46L111.277 561.759C111.067 560.796 111.605 559.669 112.521 559.245L125.604 553.467C126.817 552.866 128.335 553.654 128.639 555.045L130.933 565.528C130.98 565.742 131.241 565.909 131.455 565.862L141.724 563.615C143.007 563.334 144.204 564.193 144.378 565.5L145.957 576.812C146.167 577.775 145.392 578.841 144.322 579.075ZM194.684 603.812L208.376 600.816C209.552 600.559 210.304 599.385 210.023 598.102L195.394 531.246C195.136 530.07 193.856 529.341 192.679 529.598L179.104 533.129C178.035 533.364 177.283 534.537 177.54 535.714L181.613 554.326C181.707 554.754 181.349 555.168 180.898 555.155C178.594 554.875 175.613 555.079 173.045 555.64C157.749 558.988 150.523 571.554 154.034 587.599C157.405 603.003 169.59 610.536 181.249 607.985C185.314 607.096 189.014 605.053 191.708 601.997C191.792 601.867 192.006 601.82 192.053 602.034L192.076 602.141C192.334 603.318 193.507 604.07 194.684 603.812ZM172.506 582.884C171.101 576.466 173.184 571.639 179.388 570.282C181.42 569.837 183.867 569.75 185.137 569.92L189.187 588.426C187.519 590.024 185.58 590.896 183.227 591.411C177.451 592.675 173.84 588.982 172.506 582.884ZM230.801 574.724C230.587 574.77 230.526 575.008 230.657 575.091C233.295 578.437 237.817 579.129 245.519 577.444C249.049 576.671 253.592 574.892 257.055 572.79C258.328 571.95 259.93 572.609 260.364 574.083L263.133 584.686C263.32 585.542 263.08 586.491 262.401 586.976C258.651 589.814 252.36 592.312 247.653 593.342C226.901 597.883 214.111 590.145 210.623 574.207C207.206 558.59 215.916 546.147 230.464 542.964C243.835 540.038 255.278 545.716 258.438 560.157C258.789 561.761 259.197 564.138 259.451 566.324C259.578 567.417 258.803 568.484 257.733 568.718L230.801 574.724ZM227.554 565.01L241.353 561.99L241.072 560.706C240.182 556.642 237.291 554.696 233.226 555.586C229.078 556.606 227.356 560.009 227.554 565.01ZM267.846 530.412C273.194 529.241 276.179 524.441 275.009 519.092C273.885 513.958 269.275 510.819 263.82 512.013C258.257 513.23 255.059 518.078 256.182 523.212C257.353 528.561 262.177 531.652 267.846 530.412ZM272.771 586.724L286.463 583.728C287.639 583.471 288.391 582.297 288.11 581.014L278.186 535.659C277.928 534.482 276.648 533.754 275.471 534.011L261.896 537.542C260.827 537.776 260.074 538.95 260.332 540.126L270.163 585.053C270.421 586.23 271.594 586.982 272.771 586.724Z" fill="#F4ECCD"/>
<path fill-rule="evenodd" clip-rule="evenodd" d="M257.397 390.493C258.568 395.841 255.583 400.642 250.235 401.812C244.565 403.053 239.741 399.961 238.571 394.613C237.447 389.478 240.646 384.631 246.208 383.414C251.664 382.22 256.274 385.359 257.397 390.493ZM268.851 455.129L255.159 458.125C253.983 458.383 252.809 457.631 252.552 456.454L242.721 411.527C242.463 410.351 243.215 409.177 244.285 408.943L257.86 405.412C259.037 405.155 260.317 405.883 260.574 407.06L270.499 452.414C270.78 453.698 270.028 454.871 268.851 455.129ZM223.818 464.984L195.15 471.257C193.974 471.514 192.8 470.762 192.543 469.586L178.873 407.116C178.615 405.94 179.367 404.766 180.544 404.509L206.109 398.914C221.941 395.45 231.08 400.848 233.374 411.331C234.732 417.535 232.73 423.241 228.669 426.708C228.478 426.862 228.548 427.183 228.786 427.243C236.17 428.205 241.452 432.878 243.067 440.259C245.548 451.597 239.542 461.543 223.818 464.984ZM207.805 414.348L200.211 416.01L202.715 427.455L210.31 425.793C215.017 424.764 216.771 422.026 215.952 418.282C215.18 414.752 212.512 413.318 207.805 414.348ZM215.91 438.579L205.534 440.85L208.109 452.616L218.485 450.346C223.192 449.316 224.9 446.364 224.08 442.62C223.331 439.197 220.617 437.549 215.91 438.579ZM301.317 412.94C302.648 412.873 303.614 411.653 303.333 410.369L301.082 397.523C300.824 396.346 299.758 395.571 298.665 395.698C298.321 395.661 298 395.732 297.679 395.802C293.4 396.738 289.937 398.841 286.608 403.605C286.334 403.889 285.859 403.769 285.789 403.448L285.391 401.629C285.134 400.453 283.853 399.724 282.677 399.981L269.102 403.513C268.032 403.747 267.28 404.92 267.537 406.097L277.369 451.023C277.626 452.2 278.8 452.952 279.976 452.695L293.775 449.675C294.952 449.418 295.704 448.244 295.446 447.067L289.103 418.079C289.009 417.651 289.153 417.283 289.534 416.976C291.844 415.237 294.829 414.024 297.931 413.345C299.001 413.111 300.201 412.96 301.317 412.94ZM343.322 403.075L333.909 405.135C333.695 405.182 333.528 405.443 333.575 405.657L336.407 418.6C337.133 421.916 340.285 424.028 343.625 423.41C344.908 423.129 346.145 422.634 347.252 422.056C348.441 421.347 350.043 422.005 350.454 423.372L353.152 433.655C353.34 434.51 353.099 435.46 352.314 435.968C350.004 437.706 346.721 439.097 342.656 439.987C328.751 443.03 321.536 437.21 318.844 424.909L315.497 409.613C315.45 409.399 315.19 409.232 314.976 409.278L311.018 410.144C309.841 410.402 308.668 409.65 308.41 408.473L305.999 397.456C305.742 396.279 306.494 395.105 307.671 394.848L311.628 393.982C311.842 393.935 312.009 393.674 311.963 393.46L310.277 385.759C310.067 384.796 310.605 383.669 311.521 383.245L324.604 377.467C325.817 376.866 327.335 377.654 327.639 379.045L329.933 389.528C329.98 389.742 330.241 389.909 330.455 389.862L340.724 387.615C342.007 387.334 343.204 388.193 343.378 389.5L344.957 400.812C345.167 401.775 344.392 402.841 343.322 403.075ZM393.684 427.812L407.376 424.816C408.552 424.559 409.304 423.385 409.023 422.102L394.394 355.246C394.136 354.07 392.856 353.341 391.679 353.598L378.104 357.129C377.035 357.364 376.282 358.537 376.54 359.714L380.613 378.326C380.707 378.754 380.349 379.169 379.898 379.155C377.594 378.875 374.613 379.079 372.045 379.64C356.749 382.988 349.523 395.554 353.034 411.599C356.404 427.003 368.59 434.536 380.249 431.985C384.314 431.096 388.014 429.053 390.708 425.997C390.792 425.867 391.006 425.82 391.053 426.034L391.076 426.141C391.334 427.318 392.507 428.07 393.684 427.812ZM371.506 406.884C370.101 400.466 372.184 395.639 378.388 394.282C380.42 393.837 382.867 393.75 384.137 393.92L388.187 412.426C386.519 414.024 384.58 414.896 382.227 415.411C376.451 416.675 372.84 412.982 371.506 406.884ZM429.801 398.724C429.587 398.77 429.526 399.008 429.657 399.091C432.295 402.437 436.817 403.129 444.519 401.444C448.049 400.671 452.592 398.892 456.055 396.79C457.328 395.95 458.93 396.609 459.364 398.083L462.133 408.686C462.32 409.542 462.08 410.491 461.401 410.976C457.651 413.814 451.36 416.312 446.653 417.342C425.901 421.883 413.111 414.145 409.623 398.207C406.206 382.59 414.916 370.147 429.464 366.964C442.835 364.038 454.278 369.716 457.438 384.157C457.789 385.761 458.197 388.138 458.451 390.324C458.578 391.417 457.803 392.484 456.733 392.718L429.801 398.724ZM426.554 389.01L440.353 385.99L440.072 384.706C439.182 380.642 436.291 378.696 432.226 379.586C428.078 380.606 426.356 384.009 426.554 389.01ZM466.846 354.412C472.194 353.241 475.179 348.441 474.009 343.092C472.885 337.958 468.275 334.819 462.82 336.013C457.257 337.23 454.059 342.078 455.182 347.212C456.353 352.561 461.176 355.652 466.846 354.412ZM471.771 410.724L485.463 407.728C486.639 407.471 487.391 406.297 487.11 405.014L477.186 359.659C476.928 358.482 475.648 357.754 474.471 358.011L460.896 361.542C459.826 361.776 459.074 362.95 459.332 364.126L469.163 409.053C469.421 410.23 470.594 410.982 471.771 410.724Z" fill="#F4ECCD"/>
</svg>
