<svg width="449" height="760" viewBox="0 0 449 760" fill="none" xmlns="http://www.w3.org/2000/svg">
<path fill-rule="evenodd" clip-rule="evenodd" d="M198.846 20.4117C204.194 19.2413 207.179 14.4408 206.009 9.09234C204.885 3.95786 200.275 0.819289 194.82 2.01308C189.257 3.23029 186.059 8.07761 187.182 13.2121C188.353 18.5605 193.176 21.6523 198.846 20.4117ZM203.771 76.7244L217.463 73.7282C218.639 73.4707 219.391 72.2973 219.11 71.0137L209.186 25.6591C208.928 24.4825 207.648 23.7538 206.471 24.0113L192.896 27.5423C191.826 27.7764 191.074 28.9498 191.332 30.1264L201.163 75.0532C201.421 76.2298 202.594 76.9819 203.771 76.7244ZM-10.6025 56.493C-9.43207 61.8415 -12.4169 66.642 -17.7653 67.8124C-23.4346 69.053 -28.2585 65.9612 -29.4289 60.6128C-30.5525 55.4783 -27.3538 50.631 -21.7914 49.4138C-16.336 48.22 -11.726 51.3586 -10.6025 56.493ZM0.851531 121.129L-12.8404 124.125C-14.0171 124.383 -15.1905 123.631 -15.448 122.454L-25.2792 77.5272C-25.5367 76.3505 -24.7846 75.1771 -23.715 74.943L-10.14 71.412C-8.96338 71.1545 -7.68303 71.8832 -7.42555 73.0598L2.49934 118.414C2.78023 119.698 2.02819 120.871 0.851531 121.129ZM-44.1822 130.984L-72.8497 137.257C-74.0264 137.514 -75.1997 136.762 -75.4572 135.586L-89.1274 73.1162C-89.3848 71.9395 -88.6328 70.7661 -87.4561 70.5086L-61.8907 64.9142C-46.0594 61.4498 -36.9197 66.8478 -34.6257 77.3307C-33.2681 83.5349 -35.27 89.2412 -39.3313 92.708C-39.5218 92.8618 -39.4516 93.1827 -39.2142 93.2429C-31.8299 94.205 -26.5479 98.8779 -24.9327 106.259C-22.4515 117.597 -28.4578 127.543 -44.1822 130.984ZM-60.1947 80.3478L-67.7895 82.0098L-65.2849 93.4554L-57.6901 91.7935C-52.9835 90.7635 -51.2287 88.0256 -52.048 84.2817C-52.8204 80.7518 -55.4881 79.3179 -60.1947 80.3478ZM-52.0899 104.579L-62.4659 106.85L-59.891 118.616L-49.5151 116.346C-44.8085 115.316 -43.1005 112.364 -43.9198 108.62C-44.6688 105.197 -47.3833 103.549 -52.0899 104.579ZM33.3171 78.9403C34.6475 78.8733 35.6135 77.6531 35.3326 76.3695L33.0819 63.5232C32.8245 62.3466 31.758 61.5711 30.6649 61.6982C30.3206 61.6615 29.9997 61.7317 29.6788 61.8019C25.4001 62.7382 21.9371 64.8411 18.608 69.6049C18.3339 69.8891 17.8592 69.7688 17.789 69.4478L17.3911 67.6294C17.1336 66.4527 15.8532 65.7241 14.6766 65.9816L1.10164 69.5126C0.0319497 69.7467 -0.720089 70.9201 -0.462604 72.0967L9.36865 117.023C9.62614 118.2 10.7995 118.952 11.9762 118.695L25.7751 115.675C26.9518 115.418 27.7038 114.244 27.4463 113.068L21.1028 84.0791C21.0092 83.6512 21.1529 83.2835 21.534 82.976C23.8437 81.2375 26.8288 80.0238 29.9308 79.345C31.0005 79.1109 32.2006 78.9604 33.3171 78.9403ZM75.3222 69.0755L65.909 71.1354C65.695 71.1822 65.5279 71.443 65.5747 71.6569L68.4071 84.6001C69.1327 87.9161 72.2851 90.0285 75.6246 89.4099C76.9082 89.129 78.145 88.6341 79.2514 88.0558C80.4414 87.347 82.0426 88.0054 82.4539 89.3726L85.1524 99.6549C85.3396 100.511 85.099 101.46 84.3135 101.968C82.0037 103.707 78.7212 105.097 74.6564 105.987C60.7505 109.03 53.5362 103.211 50.8444 90.9093L47.497 75.6128C47.4502 75.3989 47.1895 75.2318 46.9755 75.2786L43.0177 76.1447C41.8411 76.4022 40.6677 75.6501 40.4102 74.4735L37.9992 63.4557C37.7417 62.2791 38.4938 61.1057 39.6704 60.8482L43.6282 59.9821C43.8422 59.9353 44.0093 59.6745 43.9625 59.4606L42.2771 51.7589C42.0664 50.7962 42.6046 49.6696 43.5205 49.245L56.6038 43.4676C57.8172 42.8658 59.3349 43.6546 59.6392 45.0452L61.9332 55.5281C61.98 55.742 62.2407 55.9092 62.4547 55.8623L72.7236 53.6152C74.0073 53.3343 75.2041 54.1933 75.378 55.5003L76.9566 66.8123C77.1673 67.775 76.3919 68.8415 75.3222 69.0755ZM125.684 93.8123L139.376 90.8161C140.552 90.5586 141.304 89.3852 141.023 88.1016L126.394 21.2463C126.136 20.0697 124.856 19.341 123.679 19.5985L110.104 23.1296C109.035 23.3636 108.282 24.537 108.54 25.7137L112.613 44.3262C112.707 44.7541 112.349 45.1686 111.898 45.1553C109.594 44.8746 106.613 45.0788 104.045 45.6406C88.7489 48.9879 81.5226 61.5541 85.0338 77.5993C88.4045 93.0028 100.59 100.537 112.249 97.9851C116.314 97.0956 120.014 95.0529 122.708 91.9974C122.792 91.867 123.006 91.8202 123.053 92.0341L123.076 92.1411C123.334 93.3177 124.507 94.0698 125.684 93.8123ZM103.506 72.8846C102.101 66.4665 104.184 61.6393 110.388 60.2816C112.42 59.8369 114.867 59.7498 116.137 59.9202L120.187 78.4257C118.519 80.0237 116.58 80.8963 114.227 81.4113C108.451 82.6753 104.84 78.9818 103.506 72.8846ZM161.801 64.7237C161.587 64.7705 161.526 65.0078 161.657 65.0914C164.295 68.4374 168.817 69.129 176.519 67.4436C180.049 66.6712 184.592 64.8924 188.055 62.7896C189.328 61.9504 190.93 62.6088 191.364 64.083L194.133 74.6862C194.32 75.5419 194.08 76.4913 193.401 76.9761C189.651 79.8144 183.36 82.312 178.653 83.3419C157.901 87.883 145.111 80.1453 141.623 64.207C138.206 48.5896 146.916 36.147 161.464 32.9636C174.835 30.0376 186.278 35.7162 189.438 50.1569C189.789 51.7615 190.197 54.1382 190.451 56.3244C190.578 57.4175 189.803 58.4839 188.733 58.7179L161.801 64.7237ZM158.554 55.0097L172.353 51.9901L172.072 50.7065C171.182 46.6417 168.291 44.6964 164.226 45.5859C160.078 46.6057 158.356 50.0088 158.554 55.0097Z" fill="#F4ECCD"/>
<path fill-rule="evenodd" clip-rule="evenodd" d="M213.397 130.493C214.568 135.841 211.583 140.642 206.235 141.812C200.565 143.053 195.741 139.961 194.571 134.613C193.447 129.478 196.646 124.631 202.209 123.414C207.664 122.22 212.274 125.359 213.397 130.493ZM224.851 195.129L211.159 198.125C209.983 198.383 208.809 197.631 208.552 196.454L198.721 151.527C198.463 150.351 199.215 149.177 200.285 148.943L213.86 145.412C215.037 145.155 216.317 145.883 216.574 147.06L226.499 192.414C226.78 193.698 226.028 194.871 224.851 195.129ZM179.818 204.984L151.15 211.257C149.974 211.515 148.8 210.762 148.543 209.586L134.873 147.116C134.615 145.94 135.367 144.766 136.544 144.509L162.109 138.914C177.941 135.45 187.08 140.848 189.374 151.331C190.732 157.535 188.73 163.241 184.669 166.708C184.478 166.862 184.548 167.183 184.786 167.243C192.17 168.205 197.452 172.878 199.067 180.259C201.549 191.597 195.542 201.543 179.818 204.984ZM163.805 154.348L156.211 156.01L158.715 167.456L166.31 165.794C171.017 164.764 172.771 162.026 171.952 158.282C171.18 154.752 168.512 153.318 163.805 154.348ZM171.91 178.579L161.534 180.85L164.109 192.617L174.485 190.346C179.192 189.316 180.9 186.364 180.08 182.62C179.331 179.197 176.617 177.549 171.91 178.579ZM257.317 152.94C258.648 152.873 259.614 151.653 259.333 150.37L257.082 137.523C256.824 136.347 255.758 135.571 254.665 135.698C254.321 135.661 254 135.732 253.679 135.802C249.4 136.738 245.937 138.841 242.608 143.605C242.334 143.889 241.859 143.769 241.789 143.448L241.391 141.629C241.134 140.453 239.853 139.724 238.677 139.982L225.102 143.513C224.032 143.747 223.28 144.92 223.537 146.097L233.369 191.023C233.626 192.2 234.8 192.952 235.976 192.695L249.775 189.675C250.952 189.418 251.704 188.244 251.446 187.068L245.103 158.079C245.009 157.651 245.153 157.284 245.534 156.976C247.844 155.238 250.829 154.024 253.931 153.345C255.001 153.111 256.201 152.96 257.317 152.94ZM299.322 143.076L289.909 145.135C289.695 145.182 289.528 145.443 289.575 145.657L292.407 158.6C293.133 161.916 296.285 164.029 299.625 163.41C300.908 163.129 302.145 162.634 303.252 162.056C304.442 161.347 306.043 162.005 306.454 163.373L309.152 173.655C309.34 174.511 309.099 175.46 308.314 175.968C306.004 177.707 302.721 179.097 298.656 179.987C284.751 183.03 277.536 177.211 274.844 164.909L271.497 149.613C271.45 149.399 271.19 149.232 270.976 149.279L267.018 150.145C265.841 150.402 264.668 149.65 264.41 148.473L261.999 137.456C261.742 136.279 262.494 135.106 263.671 134.848L267.628 133.982C267.842 133.935 268.009 133.675 267.963 133.461L266.277 125.759C266.067 124.796 266.605 123.67 267.521 123.245L280.604 117.468C281.817 116.866 283.335 117.655 283.639 119.045L285.933 129.528C285.98 129.742 286.241 129.909 286.455 129.862L296.724 127.615C298.007 127.334 299.204 128.193 299.378 129.5L300.957 140.812C301.167 141.775 300.392 142.841 299.322 143.076ZM349.684 167.812L363.376 164.816C364.552 164.559 365.304 163.385 365.023 162.102L350.394 95.2463C350.136 94.0697 348.856 93.341 347.679 93.5985L334.104 97.1296C333.035 97.3636 332.282 98.537 332.54 99.7137L336.613 118.326C336.707 118.754 336.349 119.169 335.898 119.155C333.594 118.875 330.613 119.079 328.045 119.641C312.749 122.988 305.523 135.554 309.034 151.599C312.405 167.003 324.59 174.537 336.249 171.985C340.314 171.096 344.014 169.053 346.708 165.997C346.792 165.867 347.006 165.82 347.053 166.034L347.076 166.141C347.334 167.318 348.507 168.07 349.684 167.812ZM327.506 146.885C326.101 140.466 328.184 135.639 334.388 134.282C336.42 133.837 338.867 133.75 340.137 133.92L344.187 152.426C342.519 154.024 340.58 154.896 338.227 155.411C332.451 156.675 328.84 152.982 327.506 146.885ZM385.801 138.724C385.587 138.77 385.526 139.008 385.657 139.091C388.295 142.437 392.817 143.129 400.519 141.444C404.049 140.671 408.592 138.892 412.055 136.79C413.328 135.95 414.93 136.609 415.364 138.083L418.133 148.686C418.32 149.542 418.08 150.491 417.401 150.976C413.651 153.814 407.36 156.312 402.653 157.342C381.901 161.883 369.111 154.145 365.623 138.207C362.206 122.59 370.916 110.147 385.464 106.964C398.835 104.038 410.278 109.716 413.438 124.157C413.789 125.761 414.197 128.138 414.451 130.324C414.578 131.417 413.803 132.484 412.733 132.718L385.801 138.724ZM382.554 129.01L396.353 125.99L396.072 124.706C395.182 120.642 392.291 118.696 388.226 119.586C384.078 120.606 382.356 124.009 382.554 129.01ZM422.846 94.4117C428.194 93.2413 431.179 88.4408 430.009 83.0923C428.885 77.9579 424.275 74.8193 418.82 76.0131C413.257 77.2303 410.059 82.0776 411.182 87.2121C412.353 92.5605 417.176 95.6523 422.846 94.4117ZM427.771 150.724L441.463 147.728C442.639 147.471 443.391 146.297 443.11 145.014L433.186 99.6591C432.928 98.4825 431.648 97.7538 430.471 98.0113L416.896 101.542C415.826 101.776 415.074 102.95 415.332 104.126L425.163 149.053C425.421 150.23 426.594 150.982 427.771 150.724Z" fill="#F4ECCD"/>
<path fill-rule="evenodd" clip-rule="evenodd" d="M214.846 270.412C220.194 269.241 223.179 264.441 222.009 259.092C220.885 253.958 216.275 250.819 210.82 252.013C205.257 253.23 202.059 258.078 203.182 263.212C204.353 268.561 209.176 271.652 214.846 270.412ZM219.771 326.724L233.463 323.728C234.639 323.471 235.391 322.297 235.11 321.014L225.186 275.659C224.928 274.482 223.648 273.754 222.471 274.011L208.896 277.542C207.826 277.776 207.074 278.95 207.332 280.126L217.163 325.053C217.421 326.23 218.594 326.982 219.771 326.724ZM5.39754 306.493C6.56793 311.841 3.58314 316.642 -1.76527 317.812C-7.4346 319.053 -12.2585 315.961 -13.4289 310.613C-14.5525 305.478 -11.3538 300.631 -5.79141 299.414C-0.336018 298.22 4.27397 301.359 5.39754 306.493ZM16.8515 371.129L3.15957 374.125C1.98292 374.383 0.809536 373.631 0.552051 372.454L-9.2792 327.527C-9.53669 326.351 -8.78464 325.177 -7.71496 324.943L5.85997 321.412C7.03662 321.155 8.31697 321.883 8.57446 323.06L18.4993 368.414C18.7802 369.698 18.0282 370.871 16.8515 371.129ZM-28.1822 380.984L-56.8497 387.257C-58.0264 387.514 -59.1997 386.762 -59.4572 385.586L-73.1274 323.116C-73.3848 321.939 -72.6328 320.766 -71.4561 320.509L-45.8907 314.914C-30.0594 311.45 -20.9197 316.848 -18.6257 327.331C-17.2681 333.535 -19.27 339.241 -23.3313 342.708C-23.5218 342.862 -23.4516 343.183 -23.2142 343.243C-15.8299 344.205 -10.5479 348.878 -8.93274 356.259C-6.45152 367.597 -12.4578 377.543 -28.1822 380.984ZM-44.1947 330.348L-51.7895 332.01L-49.2849 343.455L-41.6901 341.793C-36.9835 340.764 -35.2287 338.026 -36.048 334.282C-36.8204 330.752 -39.4881 329.318 -44.1947 330.348ZM-36.0899 354.579L-46.4659 356.85L-43.891 368.616L-33.5151 366.346C-28.8085 365.316 -27.1005 362.364 -27.9198 358.62C-28.6688 355.197 -31.3833 353.549 -36.0899 354.579ZM49.3171 328.94C50.6475 328.873 51.6135 327.653 51.3326 326.369L49.0819 313.523C48.8245 312.346 47.758 311.571 46.6649 311.698C46.3206 311.661 45.9997 311.732 45.6788 311.802C41.4001 312.738 37.9371 314.841 34.608 319.605C34.3339 319.889 33.8592 319.769 33.789 319.448L33.3911 317.629C33.1336 316.453 31.8532 315.724 30.6766 315.981L17.1016 319.513C16.0319 319.747 15.2799 320.92 15.5374 322.097L25.3687 367.023C25.6261 368.2 26.7995 368.952 27.9762 368.695L41.7751 365.675C42.9518 365.418 43.7038 364.244 43.4463 363.067L37.1028 334.079C37.0092 333.651 37.1529 333.283 37.534 332.976C39.8437 331.237 42.8288 330.024 45.9308 329.345C47.0005 329.111 48.2006 328.96 49.3171 328.94ZM91.3222 319.075L81.9089 321.135C81.695 321.182 81.5279 321.443 81.5747 321.657L84.4071 334.6C85.1327 337.916 88.2851 340.028 91.6246 339.41C92.9082 339.129 94.145 338.634 95.2514 338.056C96.4414 337.347 98.0427 338.005 98.4539 339.372L101.152 349.655C101.34 350.51 101.099 351.46 100.313 351.968C98.0037 353.706 94.7212 355.097 90.6564 355.987C76.7505 359.03 69.5363 353.21 66.8444 340.909L63.4971 325.613C63.4502 325.399 63.1895 325.232 62.9755 325.278L59.0177 326.144C57.8411 326.402 56.6677 325.65 56.4102 324.473L53.9992 313.456C53.7417 312.279 54.4938 311.105 55.6704 310.848L59.6282 309.982C59.8422 309.935 60.0093 309.674 59.9625 309.46L58.2771 301.759C58.0665 300.796 58.6046 299.669 59.5205 299.245L72.6038 293.467C73.8172 292.866 75.3349 293.654 75.6392 295.045L77.9332 305.528C77.98 305.742 78.2408 305.909 78.4547 305.862L88.7236 303.615C90.0073 303.334 91.2041 304.193 91.378 305.5L92.9566 316.812C93.1673 317.775 92.3919 318.841 91.3222 319.075ZM141.684 343.812L155.376 340.816C156.552 340.559 157.304 339.385 157.023 338.102L142.394 271.246C142.136 270.07 140.856 269.341 139.679 269.598L126.104 273.129C125.035 273.364 124.282 274.537 124.54 275.714L128.613 294.326C128.707 294.754 128.349 295.168 127.898 295.155C125.594 294.875 122.613 295.079 120.045 295.64C104.749 298.988 97.5226 311.554 101.034 327.599C104.404 343.003 116.59 350.536 128.249 347.985C132.314 347.096 136.014 345.053 138.708 341.997C138.792 341.867 139.006 341.82 139.053 342.034L139.076 342.141C139.334 343.318 140.507 344.07 141.684 343.812ZM119.506 322.884C118.101 316.466 120.184 311.639 126.388 310.282C128.42 309.837 130.867 309.75 132.137 309.92L136.187 328.426C134.519 330.024 132.58 330.896 130.227 331.411C124.451 332.675 120.84 328.982 119.506 322.884ZM177.801 314.724C177.587 314.77 177.526 315.008 177.657 315.091C180.295 318.437 184.817 319.129 192.519 317.444C196.049 316.671 200.592 314.892 204.055 312.79C205.328 311.95 206.93 312.609 207.364 314.083L210.133 324.686C210.32 325.542 210.08 326.491 209.401 326.976C205.651 329.814 199.36 332.312 194.653 333.342C173.901 337.883 161.111 330.145 157.623 314.207C154.206 298.59 162.916 286.147 177.464 282.964C190.835 280.038 202.278 285.716 205.438 300.157C205.789 301.761 206.197 304.138 206.451 306.324C206.578 307.417 205.803 308.484 204.733 308.718L177.801 314.724ZM174.554 305.01L188.353 301.99L188.072 300.706C187.182 296.642 184.291 294.696 180.226 295.586C176.078 296.606 174.356 300.009 174.554 305.01Z" fill="#F4ECCD"/>
<path fill-rule="evenodd" clip-rule="evenodd" d="M214.846 530.412C220.194 529.241 223.179 524.441 222.009 519.092C220.885 513.958 216.275 510.819 210.82 512.013C205.257 513.23 202.059 518.078 203.182 523.212C204.353 528.561 209.176 531.652 214.846 530.412ZM219.771 586.724L233.463 583.728C234.639 583.471 235.391 582.297 235.11 581.014L225.186 535.659C224.928 534.482 223.648 533.754 222.471 534.011L208.896 537.542C207.826 537.776 207.074 538.95 207.332 540.126L217.163 585.053C217.421 586.23 218.594 586.982 219.771 586.724ZM5.39754 566.493C6.56793 571.841 3.58314 576.642 -1.76527 577.812C-7.4346 579.053 -12.2585 575.961 -13.4289 570.613C-14.5525 565.478 -11.3538 560.631 -5.79141 559.414C-0.336018 558.22 4.27397 561.359 5.39754 566.493ZM16.8515 631.129L3.15957 634.125C1.98292 634.383 0.809536 633.631 0.552051 632.454L-9.2792 587.527C-9.53669 586.351 -8.78464 585.177 -7.71496 584.943L5.85997 581.412C7.03662 581.155 8.31697 581.883 8.57446 583.06L18.4993 628.414C18.7802 629.698 18.0282 630.871 16.8515 631.129ZM-28.1822 640.984L-56.8497 647.257C-58.0264 647.514 -59.1997 646.762 -59.4572 645.586L-73.1274 583.116C-73.3848 581.939 -72.6328 580.766 -71.4561 580.509L-45.8907 574.914C-30.0594 571.45 -20.9197 576.848 -18.6257 587.331C-17.2681 593.535 -19.27 599.241 -23.3313 602.708C-23.5218 602.862 -23.4516 603.183 -23.2142 603.243C-15.8299 604.205 -10.5479 608.878 -8.93274 616.259C-6.45152 627.597 -12.4578 637.543 -28.1822 640.984ZM-44.1947 590.348L-51.7895 592.01L-49.2849 603.455L-41.6901 601.793C-36.9835 600.764 -35.2287 598.026 -36.048 594.282C-36.8204 590.752 -39.4881 589.318 -44.1947 590.348ZM-36.0899 614.579L-46.4659 616.85L-43.891 628.616L-33.5151 626.346C-28.8085 625.316 -27.1005 622.364 -27.9198 618.62C-28.6688 615.197 -31.3833 613.549 -36.0899 614.579ZM49.3171 588.94C50.6475 588.873 51.6135 587.653 51.3326 586.369L49.0819 573.523C48.8245 572.346 47.758 571.571 46.6649 571.698C46.3206 571.661 45.9997 571.732 45.6788 571.802C41.4001 572.738 37.9371 574.841 34.608 579.605C34.3339 579.889 33.8592 579.769 33.789 579.448L33.3911 577.629C33.1336 576.453 31.8532 575.724 30.6766 575.981L17.1016 579.513C16.0319 579.747 15.2799 580.92 15.5374 582.097L25.3687 627.023C25.6261 628.2 26.7995 628.952 27.9762 628.695L41.7751 625.675C42.9518 625.418 43.7038 624.244 43.4463 623.067L37.1028 594.079C37.0092 593.651 37.1529 593.283 37.534 592.976C39.8437 591.237 42.8288 590.024 45.9308 589.345C47.0005 589.111 48.2006 588.96 49.3171 588.94ZM91.3222 579.075L81.9089 581.135C81.695 581.182 81.5279 581.443 81.5747 581.657L84.4071 594.6C85.1327 597.916 88.2851 600.028 91.6246 599.41C92.9082 599.129 94.145 598.634 95.2514 598.056C96.4414 597.347 98.0427 598.005 98.4539 599.372L101.152 609.655C101.34 610.51 101.099 611.46 100.313 611.968C98.0037 613.706 94.7212 615.097 90.6564 615.987C76.7505 619.03 69.5363 613.21 66.8444 600.909L63.4971 585.613C63.4502 585.399 63.1895 585.232 62.9755 585.278L59.0177 586.144C57.8411 586.402 56.6677 585.65 56.4102 584.473L53.9992 573.456C53.7417 572.279 54.4938 571.105 55.6704 570.848L59.6282 569.982C59.8422 569.935 60.0093 569.674 59.9625 569.46L58.2771 561.759C58.0665 560.796 58.6046 559.669 59.5205 559.245L72.6038 553.467C73.8172 552.866 75.3349 553.654 75.6392 555.045L77.9332 565.528C77.98 565.742 78.2408 565.909 78.4547 565.862L88.7236 563.615C90.0073 563.334 91.2041 564.193 91.378 565.5L92.9566 576.812C93.1673 577.775 92.3919 578.841 91.3222 579.075ZM141.684 603.812L155.376 600.816C156.552 600.559 157.304 599.385 157.023 598.102L142.394 531.246C142.136 530.07 140.856 529.341 139.679 529.598L126.104 533.129C125.035 533.364 124.282 534.537 124.54 535.714L128.613 554.326C128.707 554.754 128.349 555.168 127.898 555.155C125.594 554.875 122.613 555.079 120.045 555.64C104.749 558.988 97.5226 571.554 101.034 587.599C104.404 603.003 116.59 610.536 128.249 607.985C132.314 607.096 136.014 605.053 138.708 601.997C138.792 601.867 139.006 601.82 139.053 602.034L139.076 602.141C139.334 603.318 140.507 604.07 141.684 603.812ZM119.506 582.884C118.101 576.466 120.184 571.639 126.388 570.282C128.42 569.837 130.867 569.75 132.137 569.92L136.187 588.426C134.519 590.024 132.58 590.896 130.227 591.411C124.451 592.675 120.84 588.982 119.506 582.884ZM177.801 574.724C177.587 574.77 177.526 575.008 177.657 575.091C180.295 578.437 184.817 579.129 192.519 577.444C196.049 576.671 200.592 574.892 204.055 572.79C205.328 571.95 206.93 572.609 207.364 574.083L210.133 584.686C210.32 585.542 210.08 586.491 209.401 586.976C205.651 589.814 199.36 592.312 194.653 593.342C173.901 597.883 161.111 590.145 157.623 574.207C154.206 558.59 162.916 546.147 177.464 542.964C190.835 540.038 202.278 545.716 205.438 560.157C205.789 561.761 206.197 564.138 206.451 566.324C206.578 567.417 205.803 568.484 204.733 568.718L177.801 574.724ZM174.554 565.01L188.353 561.99L188.072 560.706C187.182 556.642 184.291 554.696 180.226 555.586C176.078 556.606 174.356 560.009 174.554 565.01Z" fill="#F4ECCD"/>
<path fill-rule="evenodd" clip-rule="evenodd" d="M204.397 390.493C205.568 395.841 202.583 400.642 197.235 401.812C191.565 403.053 186.741 399.961 185.571 394.613C184.447 389.478 187.646 384.631 193.208 383.414C198.664 382.22 203.274 385.359 204.397 390.493ZM215.851 455.129L202.159 458.125C200.983 458.383 199.809 457.631 199.552 456.454L189.721 411.527C189.463 410.351 190.215 409.177 191.285 408.943L204.86 405.412C206.037 405.155 207.317 405.883 207.574 407.06L217.499 452.414C217.78 453.698 217.028 454.871 215.851 455.129ZM170.818 464.984L142.15 471.257C140.974 471.514 139.8 470.762 139.543 469.586L125.873 407.116C125.615 405.94 126.367 404.766 127.544 404.509L153.109 398.914C168.941 395.45 178.08 400.848 180.374 411.331C181.732 417.535 179.73 423.241 175.669 426.708C175.478 426.862 175.548 427.183 175.786 427.243C183.17 428.205 188.452 432.878 190.067 440.259C192.548 451.597 186.542 461.543 170.818 464.984ZM154.805 414.348L147.211 416.01L149.715 427.455L157.31 425.793C162.017 424.764 163.771 422.026 162.952 418.282C162.18 414.752 159.512 413.318 154.805 414.348ZM162.91 438.579L152.534 440.85L155.109 452.616L165.485 450.346C170.192 449.316 171.9 446.364 171.08 442.62C170.331 439.197 167.617 437.549 162.91 438.579ZM248.317 412.94C249.648 412.873 250.614 411.653 250.333 410.369L248.082 397.523C247.824 396.346 246.758 395.571 245.665 395.698C245.321 395.661 245 395.732 244.679 395.802C240.4 396.738 236.937 398.841 233.608 403.605C233.334 403.889 232.859 403.769 232.789 403.448L232.391 401.629C232.134 400.453 230.853 399.724 229.677 399.981L216.102 403.513C215.032 403.747 214.28 404.92 214.537 406.097L224.369 451.023C224.626 452.2 225.8 452.952 226.976 452.695L240.775 449.675C241.952 449.418 242.704 448.244 242.446 447.067L236.103 418.079C236.009 417.651 236.153 417.283 236.534 416.976C238.844 415.237 241.829 414.024 244.931 413.345C246.001 413.111 247.201 412.96 248.317 412.94ZM290.322 403.075L280.909 405.135C280.695 405.182 280.528 405.443 280.575 405.657L283.407 418.6C284.133 421.916 287.285 424.028 290.625 423.41C291.908 423.129 293.145 422.634 294.252 422.056C295.441 421.347 297.043 422.005 297.454 423.372L300.152 433.655C300.34 434.51 300.099 435.46 299.314 435.968C297.004 437.706 293.721 439.097 289.656 439.987C275.751 443.03 268.536 437.21 265.844 424.909L262.497 409.613C262.45 409.399 262.19 409.232 261.976 409.278L258.018 410.144C256.841 410.402 255.668 409.65 255.41 408.473L252.999 397.456C252.742 396.279 253.494 395.105 254.671 394.848L258.628 393.982C258.842 393.935 259.009 393.674 258.963 393.46L257.277 385.759C257.067 384.796 257.605 383.669 258.521 383.245L271.604 377.467C272.817 376.866 274.335 377.654 274.639 379.045L276.933 389.528C276.98 389.742 277.241 389.909 277.455 389.862L287.724 387.615C289.007 387.334 290.204 388.193 290.378 389.5L291.957 400.812C292.167 401.775 291.392 402.841 290.322 403.075ZM340.684 427.812L354.376 424.816C355.552 424.559 356.304 423.385 356.023 422.102L341.394 355.246C341.136 354.07 339.856 353.341 338.679 353.598L325.104 357.129C324.035 357.364 323.282 358.537 323.54 359.714L327.613 378.326C327.707 378.754 327.349 379.169 326.898 379.155C324.594 378.875 321.613 379.079 319.045 379.64C303.749 382.988 296.523 395.554 300.034 411.599C303.404 427.003 315.59 434.536 327.249 431.985C331.314 431.096 335.014 429.053 337.708 425.997C337.792 425.867 338.006 425.82 338.053 426.034L338.076 426.141C338.334 427.318 339.507 428.07 340.684 427.812ZM318.506 406.884C317.101 400.466 319.184 395.639 325.388 394.282C327.42 393.837 329.867 393.75 331.137 393.92L335.187 412.426C333.519 414.024 331.58 414.896 329.227 415.411C323.451 416.675 319.84 412.982 318.506 406.884ZM376.801 398.724C376.587 398.77 376.526 399.008 376.657 399.091C379.295 402.437 383.817 403.129 391.519 401.444C395.049 400.671 399.592 398.892 403.055 396.79C404.328 395.95 405.93 396.609 406.364 398.083L409.133 408.686C409.32 409.542 409.08 410.491 408.401 410.976C404.651 413.814 398.36 416.312 393.653 417.342C372.901 421.883 360.111 414.145 356.623 398.207C353.206 382.59 361.916 370.147 376.464 366.964C389.835 364.038 401.278 369.716 404.438 384.157C404.789 385.761 405.197 388.138 405.451 390.324C405.578 391.417 404.803 392.484 403.733 392.718L376.801 398.724ZM373.554 389.01L387.353 385.99L387.072 384.706C386.182 380.642 383.291 378.696 379.226 379.586C375.078 380.606 373.356 384.009 373.554 389.01ZM413.846 354.412C419.194 353.241 422.179 348.441 421.009 343.092C419.885 337.958 415.275 334.819 409.82 336.013C404.257 337.23 401.059 342.078 402.182 347.212C403.353 352.561 408.176 355.652 413.846 354.412ZM418.771 410.724L432.463 407.728C433.639 407.471 434.391 406.297 434.11 405.014L424.186 359.659C423.928 358.482 422.648 357.754 421.471 358.011L407.896 361.542C406.826 361.776 406.074 362.95 406.332 364.126L416.163 409.053C416.421 410.23 417.594 410.982 418.771 410.724Z" fill="#F4ECCD"/>
<path fill-rule="evenodd" clip-rule="evenodd" d="M217.397 668.493C218.568 673.841 215.583 678.642 210.235 679.812C204.565 681.053 199.741 677.961 198.571 672.613C197.447 667.478 200.646 662.631 206.208 661.414C211.664 660.22 216.274 663.359 217.397 668.493ZM228.851 733.129L215.159 736.125C213.983 736.383 212.809 735.631 212.552 734.454L202.721 689.527C202.463 688.351 203.215 687.177 204.285 686.943L217.86 683.412C219.037 683.155 220.317 683.883 220.574 685.06L230.499 730.414C230.78 731.698 230.028 732.871 228.851 733.129ZM183.818 742.984L155.15 749.257C153.974 749.514 152.8 748.762 152.543 747.586L138.873 685.116C138.615 683.94 139.367 682.766 140.544 682.509L166.109 676.914C181.941 673.45 191.08 678.848 193.374 689.331C194.732 695.535 192.73 701.241 188.669 704.708C188.478 704.862 188.548 705.183 188.786 705.243C196.17 706.205 201.452 710.878 203.067 718.259C205.548 729.597 199.542 739.543 183.818 742.984ZM167.805 692.348L160.211 694.01L162.715 705.455L170.31 703.793C175.017 702.764 176.771 700.026 175.952 696.282C175.18 692.752 172.512 691.318 167.805 692.348ZM175.91 716.579L165.534 718.85L168.109 730.616L178.485 728.346C183.192 727.316 184.9 724.364 184.08 720.62C183.331 717.197 180.617 715.549 175.91 716.579ZM261.317 690.94C262.648 690.873 263.614 689.653 263.333 688.369L261.082 675.523C260.824 674.346 259.758 673.571 258.665 673.698C258.321 673.661 258 673.732 257.679 673.802C253.4 674.738 249.937 676.841 246.608 681.605C246.334 681.889 245.859 681.769 245.789 681.448L245.391 679.629C245.134 678.453 243.853 677.724 242.677 677.981L229.102 681.513C228.032 681.747 227.28 682.92 227.537 684.097L237.369 729.023C237.626 730.2 238.8 730.952 239.976 730.695L253.775 727.675C254.952 727.418 255.704 726.244 255.446 725.067L249.103 696.079C249.009 695.651 249.153 695.283 249.534 694.976C251.844 693.237 254.829 692.024 257.931 691.345C259.001 691.111 260.201 690.96 261.317 690.94ZM303.322 681.075L293.909 683.135C293.695 683.182 293.528 683.443 293.575 683.657L296.407 696.6C297.133 699.916 300.285 702.028 303.625 701.41C304.908 701.129 306.145 700.634 307.252 700.056C308.441 699.347 310.043 700.005 310.454 701.372L313.152 711.655C313.34 712.51 313.099 713.46 312.314 713.968C310.004 715.706 306.721 717.097 302.656 717.987C288.751 721.03 281.536 715.21 278.844 702.909L275.497 687.613C275.45 687.399 275.19 687.232 274.976 687.278L271.018 688.144C269.841 688.402 268.668 687.65 268.41 686.473L265.999 675.456C265.742 674.279 266.494 673.105 267.671 672.848L271.628 671.982C271.842 671.935 272.009 671.674 271.963 671.46L270.277 663.759C270.067 662.796 270.605 661.669 271.521 661.245L284.604 655.467C285.817 654.866 287.335 655.654 287.639 657.045L289.933 667.528C289.98 667.742 290.241 667.909 290.455 667.862L300.724 665.615C302.007 665.334 303.204 666.193 303.378 667.5L304.957 678.812C305.167 679.775 304.392 680.841 303.322 681.075ZM353.684 705.812L367.376 702.816C368.552 702.559 369.304 701.385 369.023 700.102L354.394 633.246C354.136 632.07 352.856 631.341 351.679 631.598L338.104 635.129C337.035 635.364 336.282 636.537 336.54 637.714L340.613 656.326C340.707 656.754 340.349 657.169 339.898 657.155C337.594 656.875 334.613 657.079 332.045 657.64C316.749 660.988 309.523 673.554 313.034 689.599C316.404 705.003 328.59 712.536 340.249 709.985C344.314 709.096 348.014 707.053 350.708 703.997C350.792 703.867 351.006 703.82 351.053 704.034L351.076 704.141C351.334 705.318 352.507 706.07 353.684 705.812ZM331.506 684.884C330.101 678.466 332.184 673.639 338.388 672.282C340.42 671.837 342.867 671.75 344.137 671.92L348.187 690.426C346.519 692.024 344.58 692.896 342.227 693.411C336.451 694.675 332.84 690.982 331.506 684.884ZM389.801 676.724C389.587 676.77 389.526 677.008 389.657 677.091C392.295 680.437 396.817 681.129 404.519 679.444C408.049 678.671 412.592 676.892 416.055 674.79C417.328 673.95 418.93 674.609 419.364 676.083L422.133 686.686C422.32 687.542 422.08 688.491 421.401 688.976C417.651 691.814 411.36 694.312 406.653 695.342C385.901 699.883 373.111 692.145 369.623 676.207C366.206 660.59 374.916 648.147 389.464 644.964C402.835 642.038 414.278 647.716 417.438 662.157C417.789 663.761 418.197 666.138 418.451 668.324C418.578 669.417 417.803 670.484 416.733 670.718L389.801 676.724ZM386.554 667.01L400.353 663.99L400.072 662.706C399.182 658.642 396.291 656.696 392.226 657.586C388.078 658.606 386.356 662.009 386.554 667.01ZM426.846 632.412C432.194 631.241 435.179 626.441 434.009 621.092C432.885 615.958 428.275 612.819 422.82 614.013C417.257 615.23 414.059 620.078 415.182 625.212C416.353 630.561 421.176 633.652 426.846 632.412ZM431.771 688.724L445.463 685.728C446.639 685.471 447.391 684.297 447.11 683.014L437.186 637.659C436.928 636.482 435.648 635.754 434.471 636.011L420.896 639.542C419.826 639.776 419.074 640.95 419.332 642.126L429.163 687.053C429.421 688.23 430.594 688.982 431.771 688.724Z" fill="#F4ECCD"/>
</svg>
