<svg width="493" height="649" viewBox="0 0 493 649" fill="none" xmlns="http://www.w3.org/2000/svg">
<path fill-rule="evenodd" clip-rule="evenodd" d="M289.846 20.4117C295.194 19.2413 298.179 14.4408 297.009 9.09236C295.885 3.95787 291.275 0.819304 285.82 2.0131C280.257 3.2303 277.059 8.07763 278.182 13.2121C279.352 18.5605 284.176 21.6523 289.846 20.4117ZM294.771 76.7244L308.463 73.7282C309.639 73.4707 310.391 72.2974 310.11 71.0137L300.185 25.6591C299.928 24.4825 298.648 23.7538 297.471 24.0113L283.896 27.5424C282.826 27.7764 282.074 28.9498 282.332 30.1265L292.163 75.0532C292.421 76.2299 293.594 76.9819 294.771 76.7244ZM80.3975 56.4931C81.5679 61.8415 78.5831 66.642 73.2347 67.8124C67.5654 69.053 62.7415 65.9612 61.5711 60.6128C60.4475 55.4783 63.6462 50.631 69.2086 49.4138C74.664 48.22 79.274 51.3586 80.3975 56.4931ZM91.8515 121.129L78.1596 124.125C76.9829 124.383 75.8095 123.631 75.5521 122.454L65.7208 77.5272C65.4633 76.3505 66.2154 75.1771 67.285 74.9431L80.86 71.412C82.0366 71.1545 83.317 71.8832 83.5745 73.0598L93.4993 118.414C93.7802 119.698 93.0282 120.871 91.8515 121.129ZM46.8178 130.984L18.1503 137.257C16.9736 137.514 15.8003 136.762 15.5428 135.586L1.87264 73.1162C1.61516 71.9395 2.3672 70.7661 3.54386 70.5086L29.1093 64.9142C44.9406 61.4499 54.0803 66.8478 56.3743 77.3307C57.7319 83.5349 55.73 89.2412 51.6687 92.708C51.4782 92.8618 51.5484 93.1827 51.7858 93.2429C59.1701 94.2051 64.4521 98.8779 66.0673 106.259C68.5485 117.597 62.5422 127.543 46.8178 130.984ZM30.8053 80.3479L23.2105 82.0098L25.7151 93.4554L33.3099 91.7935C38.0165 90.7635 39.7713 88.0256 38.952 84.2818C38.1796 80.7518 35.5119 79.3179 30.8053 80.3479ZM38.9101 104.579L28.5341 106.85L31.109 118.616L41.4849 116.346C46.1915 115.316 47.8995 112.364 47.0802 108.62C46.3312 105.197 43.6167 103.549 38.9101 104.579ZM124.317 78.9402C125.648 78.8733 126.614 77.6531 126.333 76.3694L124.082 63.5231C123.824 62.3465 122.758 61.571 121.665 61.6982C121.321 61.6614 121 61.7316 120.679 61.8019C116.4 62.7382 112.937 64.8411 109.608 69.6048C109.334 69.889 108.859 69.7687 108.789 69.4478L108.391 67.6293C108.134 66.4527 106.853 65.724 105.677 65.9815L92.1016 69.5125C91.032 69.7466 90.2799 70.92 90.5374 72.0966L100.369 117.023C100.626 118.2 101.8 118.952 102.976 118.695L116.775 115.675C117.952 115.418 118.704 114.244 118.446 113.067L112.103 84.079C112.009 83.6512 112.153 83.2834 112.534 82.9759C114.844 81.2374 117.829 80.0238 120.931 79.3449C122.001 79.1109 123.201 78.9604 124.317 78.9402ZM166.322 69.0754L156.909 71.1352C156.695 71.1821 156.528 71.4428 156.575 71.6568L159.407 84.5999C160.133 87.916 163.285 90.0284 166.625 89.4097C167.908 89.1288 169.145 88.634 170.251 88.0556C171.441 87.3468 173.043 88.0052 173.454 89.3724L176.152 99.6547C176.34 100.51 176.099 101.46 175.313 101.968C173.004 103.706 169.721 105.097 165.656 105.987C151.75 109.03 144.536 103.211 141.844 90.9091L138.497 75.6127C138.45 75.3987 138.189 75.2316 137.976 75.2784L134.018 76.1445C132.841 76.402 131.668 75.6499 131.41 74.4733L128.999 63.4555C128.742 62.2789 129.494 61.1055 130.67 60.848L134.628 59.9819C134.842 59.9351 135.009 59.6744 134.962 59.4604L133.277 51.7587C133.066 50.796 133.605 49.6694 134.52 49.2448L147.604 43.4674C148.817 42.8656 150.335 43.6544 150.639 45.045L152.933 55.5279C152.98 55.7419 153.241 55.909 153.455 55.8622L163.724 53.615C165.007 53.3341 166.204 54.1931 166.378 55.5002L167.957 66.8122C168.167 67.7749 167.392 68.8413 166.322 69.0754ZM216.684 93.8122L230.376 90.816C231.552 90.5585 232.304 89.3851 232.023 88.1015L217.394 21.2463C217.136 20.0696 215.856 19.341 214.679 19.5984L201.104 23.1295C200.035 23.3636 199.282 24.5369 199.54 25.7136L203.613 44.3261C203.707 44.754 203.349 45.1685 202.898 45.1552C200.594 44.8746 197.613 45.0787 195.045 45.6405C179.749 48.9878 172.523 61.554 176.034 77.5992C179.405 93.0027 191.59 100.536 203.249 97.985C207.314 97.0956 211.014 95.0528 213.708 91.9973C213.792 91.8669 214.006 91.8201 214.053 92.034L214.076 92.141C214.334 93.3176 215.507 94.0697 216.684 93.8122ZM194.506 72.8845C193.101 66.4664 195.184 61.6392 201.388 60.2815C203.42 59.8368 205.867 59.7497 207.137 59.9201L211.187 78.4256C209.519 80.0236 207.58 80.8962 205.227 81.4112C199.451 82.6752 195.84 78.9817 194.506 72.8845ZM252.801 64.7237C252.587 64.7705 252.527 65.0078 252.657 65.0914C255.295 68.4374 259.818 69.129 267.519 67.4436C271.049 66.6712 275.592 64.8925 279.055 62.7896C280.329 61.9504 281.93 62.6088 282.364 64.083L285.133 74.6862C285.32 75.542 285.08 76.4913 284.401 76.9761C280.651 79.8144 274.36 82.312 269.653 83.3419C248.901 87.883 236.111 80.1454 232.623 64.2071C229.206 48.5897 237.916 36.1471 252.464 32.9636C265.835 30.0376 277.278 35.7162 280.438 50.157C280.789 51.7615 281.197 54.1382 281.451 56.3244C281.578 57.4175 280.803 58.4839 279.733 58.718L252.801 64.7237ZM249.554 55.0097L263.353 51.9901L263.072 50.7065C262.183 46.6417 259.291 44.6964 255.226 45.5859C251.078 46.6057 249.356 50.0089 249.554 55.0097Z" fill="#F4ECCD"/>
<path fill-rule="evenodd" clip-rule="evenodd" d="M513.846 94.4117C519.194 93.2413 522.179 88.4408 521.009 83.0924C519.885 77.9579 515.275 74.8193 509.82 76.0131C504.257 77.2303 501.059 82.0776 502.182 87.2121C503.352 92.5605 508.176 95.6523 513.846 94.4117ZM518.771 150.724L532.463 147.728C533.639 147.471 534.391 146.297 534.11 145.014L524.185 99.6591C523.928 98.4825 522.648 97.7538 521.471 98.0113L507.896 101.542C506.826 101.776 506.074 102.95 506.332 104.126L516.163 149.053C516.421 150.23 517.594 150.982 518.771 150.724ZM304.398 130.493C305.568 135.841 302.583 140.642 297.235 141.812C291.565 143.053 286.741 139.961 285.571 134.613C284.448 129.478 287.646 124.631 293.209 123.414C298.664 122.22 303.274 125.359 304.398 130.493ZM315.852 195.129L302.16 198.125C300.983 198.383 299.81 197.631 299.552 196.454L289.721 151.527C289.463 150.351 290.215 149.177 291.285 148.943L304.86 145.412C306.037 145.155 307.317 145.883 307.574 147.06L317.499 192.414C317.78 193.698 317.028 194.871 315.852 195.129ZM270.818 204.984L242.15 211.257C240.974 211.514 239.8 210.762 239.543 209.586L225.873 147.116C225.615 145.94 226.367 144.766 227.544 144.509L253.109 138.914C268.941 135.45 278.08 140.848 280.374 151.331C281.732 157.535 279.73 163.241 275.669 166.708C275.478 166.862 275.548 167.183 275.786 167.243C283.17 168.205 288.452 172.878 290.067 180.259C292.548 191.597 286.542 201.543 270.818 204.984ZM254.805 154.348L247.211 156.01L249.715 167.455L257.31 165.793C262.017 164.764 263.771 162.026 262.952 158.282C262.18 154.752 259.512 153.318 254.805 154.348ZM262.91 178.579L252.534 180.85L255.109 192.616L265.485 190.346C270.192 189.316 271.9 186.364 271.08 182.62C270.331 179.197 267.617 177.549 262.91 178.579ZM348.317 152.94C349.648 152.873 350.614 151.653 350.333 150.369L348.082 137.523C347.824 136.346 346.758 135.571 345.665 135.698C345.321 135.661 345 135.732 344.679 135.802C340.4 136.738 336.937 138.841 333.608 143.605C333.334 143.889 332.859 143.769 332.789 143.448L332.391 141.629C332.134 140.453 330.853 139.724 329.677 139.981L316.102 143.513C315.032 143.747 314.28 144.92 314.537 146.097L324.369 191.023C324.626 192.2 325.8 192.952 326.976 192.695L340.775 189.675C341.952 189.418 342.704 188.244 342.446 187.067L336.103 158.079C336.009 157.651 336.153 157.283 336.534 156.976C338.844 155.237 341.829 154.024 344.931 153.345C346.001 153.111 347.201 152.96 348.317 152.94ZM390.322 143.075L380.909 145.135C380.695 145.182 380.528 145.443 380.575 145.657L383.407 158.6C384.133 161.916 387.285 164.028 390.625 163.41C391.908 163.129 393.145 162.634 394.251 162.056C395.441 161.347 397.043 162.005 397.454 163.372L400.152 173.655C400.34 174.51 400.099 175.46 399.313 175.968C397.004 177.706 393.721 179.097 389.656 179.987C375.75 183.03 368.536 177.211 365.844 164.909L362.497 149.613C362.45 149.399 362.189 149.232 361.976 149.278L358.018 150.145C356.841 150.402 355.668 149.65 355.41 148.473L352.999 137.456C352.742 136.279 353.494 135.106 354.67 134.848L358.628 133.982C358.842 133.935 359.009 133.674 358.962 133.46L357.277 125.759C357.066 124.796 357.605 123.669 358.52 123.245L371.604 117.467C372.817 116.866 374.335 117.654 374.639 119.045L376.933 129.528C376.98 129.742 377.241 129.909 377.455 129.862L387.724 127.615C389.007 127.334 390.204 128.193 390.378 129.5L391.957 140.812C392.167 141.775 391.392 142.841 390.322 143.075ZM440.684 167.812L454.376 164.816C455.552 164.559 456.304 163.385 456.023 162.102L441.394 95.2463C441.136 94.0696 439.856 93.341 438.679 93.5984L425.104 97.1295C424.035 97.3636 423.282 98.5369 423.54 99.7136L427.613 118.326C427.707 118.754 427.349 119.169 426.898 119.155C424.594 118.875 421.613 119.079 419.045 119.64C403.749 122.988 396.523 135.554 400.034 151.599C403.405 167.003 415.59 174.536 427.249 171.985C431.314 171.096 435.014 169.053 437.708 165.997C437.792 165.867 438.006 165.82 438.053 166.034L438.076 166.141C438.334 167.318 439.507 168.07 440.684 167.812ZM418.506 146.884C417.101 140.466 419.184 135.639 425.388 134.282C427.42 133.837 429.867 133.75 431.137 133.92L435.187 152.426C433.519 154.024 431.58 154.896 429.227 155.411C423.451 156.675 419.84 152.982 418.506 146.884ZM476.801 138.724C476.587 138.771 476.527 139.008 476.657 139.091C479.295 142.437 483.818 143.129 491.519 141.444C495.049 140.671 499.592 138.892 503.055 136.79C504.329 135.95 505.93 136.609 506.364 138.083L509.133 148.686C509.32 149.542 509.08 150.491 508.401 150.976C504.651 153.814 498.36 156.312 493.653 157.342C472.901 161.883 460.111 154.145 456.623 138.207C453.206 122.59 461.916 110.147 476.464 106.964C489.835 104.038 501.278 109.716 504.438 124.157C504.789 125.761 505.197 128.138 505.451 130.324C505.578 131.417 504.803 132.484 503.733 132.718L476.801 138.724ZM473.554 129.01L487.353 125.99L487.072 124.706C486.183 120.642 483.291 118.696 479.226 119.586C475.078 120.606 473.356 124.009 473.554 129.01Z" fill="#F4ECCD"/>
<path fill-rule="evenodd" clip-rule="evenodd" d="M305.846 270.412C311.194 269.241 314.179 264.441 313.009 259.092C311.885 253.958 307.275 250.819 301.82 252.013C296.257 253.23 293.059 258.078 294.182 263.212C295.352 268.561 300.176 271.652 305.846 270.412ZM310.771 326.724L324.463 323.728C325.639 323.471 326.391 322.297 326.11 321.014L316.185 275.659C315.928 274.482 314.648 273.754 313.471 274.011L299.896 277.542C298.826 277.776 298.074 278.95 298.332 280.126L308.163 325.053C308.421 326.23 309.594 326.982 310.771 326.724ZM96.3975 306.493C97.5679 311.841 94.5831 316.642 89.2347 317.812C83.5654 319.053 78.7415 315.961 77.5711 310.613C76.4475 305.478 79.6462 300.631 85.2086 299.414C90.664 298.22 95.274 301.359 96.3975 306.493ZM107.852 371.129L94.1596 374.125C92.9829 374.383 91.8095 373.631 91.5521 372.454L81.7208 327.527C81.4633 326.351 82.2154 325.177 83.285 324.943L96.86 321.412C98.0366 321.155 99.317 321.883 99.5745 323.06L109.499 368.414C109.78 369.698 109.028 370.871 107.852 371.129ZM62.8178 380.984L34.1503 387.257C32.9736 387.514 31.8003 386.762 31.5428 385.586L17.8726 323.116C17.6152 321.94 18.3672 320.766 19.5439 320.509L45.1093 314.914C60.9406 311.45 70.0803 316.848 72.3743 327.331C73.7319 333.535 71.73 339.241 67.6687 342.708C67.4782 342.862 67.5484 343.183 67.7858 343.243C75.1701 344.205 80.4521 348.878 82.0673 356.259C84.5485 367.597 78.5422 377.543 62.8178 380.984ZM46.8053 330.348L39.2105 332.01L41.7151 343.455L49.3099 341.793C54.0165 340.764 55.7713 338.026 54.952 334.282C54.1796 330.752 51.5119 329.318 46.8053 330.348ZM54.9101 354.579L44.5341 356.85L47.109 368.616L57.4849 366.346C62.1915 365.316 63.8995 362.364 63.0802 358.62C62.3312 355.197 59.6167 353.549 54.9101 354.579ZM140.317 328.94C141.648 328.873 142.614 327.653 142.333 326.369L140.082 313.523C139.824 312.346 138.758 311.571 137.665 311.698C137.321 311.661 137 311.732 136.679 311.802C132.4 312.738 128.937 314.841 125.608 319.605C125.334 319.889 124.859 319.769 124.789 319.448L124.391 317.629C124.134 316.453 122.853 315.724 121.677 315.981L108.102 319.513C107.032 319.747 106.28 320.92 106.537 322.097L116.369 367.023C116.626 368.2 117.8 368.952 118.976 368.695L132.775 365.675C133.952 365.418 134.704 364.244 134.446 363.067L128.103 334.079C128.009 333.651 128.153 333.283 128.534 332.976C130.844 331.237 133.829 330.024 136.931 329.345C138.001 329.111 139.201 328.96 140.317 328.94ZM182.322 319.075L172.909 321.135C172.695 321.182 172.528 321.443 172.575 321.657L175.407 334.6C176.133 337.916 179.285 340.028 182.625 339.41C183.908 339.129 185.145 338.634 186.251 338.056C187.441 337.347 189.043 338.005 189.454 339.372L192.152 349.655C192.34 350.51 192.099 351.46 191.313 351.968C189.004 353.706 185.721 355.097 181.656 355.987C167.75 359.03 160.536 353.211 157.844 340.909L154.497 325.613C154.45 325.399 154.189 325.232 153.976 325.278L150.018 326.145C148.841 326.402 147.668 325.65 147.41 324.473L144.999 313.456C144.742 312.279 145.494 311.106 146.67 310.848L150.628 309.982C150.842 309.935 151.009 309.674 150.962 309.46L149.277 301.759C149.066 300.796 149.605 299.669 150.52 299.245L163.604 293.467C164.817 292.866 166.335 293.654 166.639 295.045L168.933 305.528C168.98 305.742 169.241 305.909 169.455 305.862L179.724 303.615C181.007 303.334 182.204 304.193 182.378 305.5L183.957 316.812C184.167 317.775 183.392 318.841 182.322 319.075ZM232.684 343.812L246.376 340.816C247.552 340.559 248.304 339.385 248.023 338.102L233.394 271.246C233.136 270.07 231.856 269.341 230.679 269.598L217.104 273.129C216.035 273.364 215.282 274.537 215.54 275.714L219.613 294.326C219.707 294.754 219.349 295.169 218.898 295.155C216.594 294.875 213.613 295.079 211.045 295.64C195.749 298.988 188.523 311.554 192.034 327.599C195.405 343.003 207.59 350.536 219.249 347.985C223.314 347.096 227.014 345.053 229.708 341.997C229.792 341.867 230.006 341.82 230.053 342.034L230.076 342.141C230.334 343.318 231.507 344.07 232.684 343.812ZM210.506 322.884C209.101 316.466 211.184 311.639 217.388 310.282C219.42 309.837 221.867 309.75 223.137 309.92L227.187 328.426C225.519 330.024 223.58 330.896 221.227 331.411C215.451 332.675 211.84 328.982 210.506 322.884ZM268.801 314.724C268.587 314.771 268.527 315.008 268.657 315.091C271.295 318.437 275.818 319.129 283.519 317.444C287.049 316.671 291.592 314.892 295.055 312.79C296.329 311.95 297.93 312.609 298.364 314.083L301.133 324.686C301.32 325.542 301.08 326.491 300.401 326.976C296.651 329.814 290.36 332.312 285.653 333.342C264.901 337.883 252.111 330.145 248.623 314.207C245.206 298.59 253.916 286.147 268.464 282.964C281.835 280.038 293.278 285.716 296.438 300.157C296.789 301.761 297.197 304.138 297.451 306.324C297.578 307.417 296.803 308.484 295.733 308.718L268.801 314.724ZM265.554 305.01L279.353 301.99L279.072 300.706C278.183 296.642 275.291 294.696 271.226 295.586C267.078 296.606 265.356 300.009 265.554 305.01Z" fill="#F4ECCD"/>
<path fill-rule="evenodd" clip-rule="evenodd" d="M305.846 530.412C311.194 529.241 314.179 524.441 313.009 519.092C311.885 513.958 307.275 510.819 301.82 512.013C296.257 513.23 293.059 518.078 294.182 523.212C295.352 528.561 300.176 531.652 305.846 530.412ZM310.771 586.724L324.463 583.728C325.639 583.471 326.391 582.297 326.11 581.014L316.185 535.659C315.928 534.482 314.648 533.754 313.471 534.011L299.896 537.542C298.826 537.776 298.074 538.95 298.332 540.126L308.163 585.053C308.421 586.23 309.594 586.982 310.771 586.724ZM96.3975 566.493C97.5679 571.841 94.5831 576.642 89.2347 577.812C83.5654 579.053 78.7415 575.961 77.5711 570.613C76.4475 565.478 79.6462 560.631 85.2086 559.414C90.664 558.22 95.274 561.359 96.3975 566.493ZM107.852 631.129L94.1596 634.125C92.9829 634.383 91.8095 633.631 91.5521 632.454L81.7208 587.527C81.4633 586.351 82.2154 585.177 83.285 584.943L96.86 581.412C98.0366 581.155 99.317 581.883 99.5745 583.06L109.499 628.414C109.78 629.698 109.028 630.871 107.852 631.129ZM62.8178 640.984L34.1503 647.257C32.9736 647.514 31.8003 646.762 31.5428 645.586L17.8726 583.116C17.6152 581.94 18.3672 580.766 19.5439 580.509L45.1093 574.914C60.9406 571.45 70.0803 576.848 72.3743 587.331C73.7319 593.535 71.73 599.241 67.6687 602.708C67.4782 602.862 67.5484 603.183 67.7858 603.243C75.1701 604.205 80.4521 608.878 82.0673 616.259C84.5485 627.597 78.5422 637.543 62.8178 640.984ZM46.8053 590.348L39.2105 592.01L41.7151 603.455L49.3099 601.793C54.0165 600.764 55.7713 598.026 54.952 594.282C54.1796 590.752 51.5119 589.318 46.8053 590.348ZM54.9101 614.579L44.5341 616.85L47.109 628.616L57.4849 626.346C62.1915 625.316 63.8995 622.364 63.0802 618.62C62.3312 615.197 59.6167 613.549 54.9101 614.579ZM140.317 588.94C141.648 588.873 142.614 587.653 142.333 586.369L140.082 573.523C139.824 572.346 138.758 571.571 137.665 571.698C137.321 571.661 137 571.732 136.679 571.802C132.4 572.738 128.937 574.841 125.608 579.605C125.334 579.889 124.859 579.769 124.789 579.448L124.391 577.629C124.134 576.453 122.853 575.724 121.677 575.981L108.102 579.513C107.032 579.747 106.28 580.92 106.537 582.097L116.369 627.023C116.626 628.2 117.8 628.952 118.976 628.695L132.775 625.675C133.952 625.418 134.704 624.244 134.446 623.067L128.103 594.079C128.009 593.651 128.153 593.283 128.534 592.976C130.844 591.237 133.829 590.024 136.931 589.345C138.001 589.111 139.201 588.96 140.317 588.94ZM182.322 579.075L172.909 581.135C172.695 581.182 172.528 581.443 172.575 581.657L175.407 594.6C176.133 597.916 179.285 600.028 182.625 599.41C183.908 599.129 185.145 598.634 186.251 598.056C187.441 597.347 189.043 598.005 189.454 599.372L192.152 609.655C192.34 610.51 192.099 611.46 191.313 611.968C189.004 613.706 185.721 615.097 181.656 615.987C167.75 619.03 160.536 613.211 157.844 600.909L154.497 585.613C154.45 585.399 154.189 585.232 153.976 585.278L150.018 586.145C148.841 586.402 147.668 585.65 147.41 584.473L144.999 573.456C144.742 572.279 145.494 571.106 146.67 570.848L150.628 569.982C150.842 569.935 151.009 569.674 150.962 569.46L149.277 561.759C149.066 560.796 149.605 559.669 150.52 559.245L163.604 553.467C164.817 552.866 166.335 553.654 166.639 555.045L168.933 565.528C168.98 565.742 169.241 565.909 169.455 565.862L179.724 563.615C181.007 563.334 182.204 564.193 182.378 565.5L183.957 576.812C184.167 577.775 183.392 578.841 182.322 579.075ZM232.684 603.812L246.376 600.816C247.552 600.559 248.304 599.385 248.023 598.102L233.394 531.246C233.136 530.07 231.856 529.341 230.679 529.598L217.104 533.129C216.035 533.364 215.282 534.537 215.54 535.714L219.613 554.326C219.707 554.754 219.349 555.169 218.898 555.155C216.594 554.875 213.613 555.079 211.045 555.64C195.749 558.988 188.523 571.554 192.034 587.599C195.405 603.003 207.59 610.536 219.249 607.985C223.314 607.096 227.014 605.053 229.708 601.997C229.792 601.867 230.006 601.82 230.053 602.034L230.076 602.141C230.334 603.318 231.507 604.07 232.684 603.812ZM210.506 582.884C209.101 576.466 211.184 571.639 217.388 570.282C219.42 569.837 221.867 569.75 223.137 569.92L227.187 588.426C225.519 590.024 223.58 590.896 221.227 591.411C215.451 592.675 211.84 588.982 210.506 582.884ZM268.801 574.724C268.587 574.771 268.527 575.008 268.657 575.091C271.295 578.437 275.818 579.129 283.519 577.444C287.049 576.671 291.592 574.892 295.055 572.79C296.329 571.95 297.93 572.609 298.364 574.083L301.133 584.686C301.32 585.542 301.08 586.491 300.401 586.976C296.651 589.814 290.36 592.312 285.653 593.342C264.901 597.883 252.111 590.145 248.623 574.207C245.206 558.59 253.916 546.147 268.464 542.964C281.835 540.038 293.278 545.716 296.438 560.157C296.789 561.761 297.197 564.138 297.451 566.324C297.578 567.417 296.803 568.484 295.733 568.718L268.801 574.724ZM265.554 565.01L279.353 561.99L279.072 560.706C278.183 556.642 275.291 554.696 271.226 555.586C267.078 556.606 265.356 560.009 265.554 565.01Z" fill="#F4ECCD"/>
<path fill-rule="evenodd" clip-rule="evenodd" d="M504.846 354.412C510.194 353.241 513.179 348.441 512.009 343.092C510.885 337.958 506.275 334.819 500.82 336.013C495.257 337.23 492.059 342.078 493.182 347.212C494.352 352.561 499.176 355.652 504.846 354.412ZM509.771 410.724L523.463 407.728C524.639 407.471 525.391 406.297 525.11 405.014L515.185 359.659C514.928 358.482 513.648 357.754 512.471 358.011L498.896 361.542C497.826 361.776 497.074 362.95 497.332 364.126L507.163 409.053C507.421 410.23 508.594 410.982 509.771 410.724ZM295.398 390.493C296.568 395.841 293.583 400.642 288.235 401.812C282.565 403.053 277.741 399.961 276.571 394.613C275.448 389.478 278.646 384.631 284.209 383.414C289.664 382.22 294.274 385.359 295.398 390.493ZM306.852 455.129L293.16 458.125C291.983 458.383 290.81 457.631 290.552 456.454L280.721 411.527C280.463 410.351 281.215 409.177 282.285 408.943L295.86 405.412C297.037 405.155 298.317 405.883 298.574 407.06L308.499 452.414C308.78 453.698 308.028 454.871 306.852 455.129ZM261.818 464.984L233.15 471.257C231.974 471.514 230.8 470.762 230.543 469.586L216.873 407.116C216.615 405.94 217.367 404.766 218.544 404.509L244.109 398.914C259.941 395.45 269.08 400.848 271.374 411.331C272.732 417.535 270.73 423.241 266.669 426.708C266.478 426.862 266.548 427.183 266.786 427.243C274.17 428.205 279.452 432.878 281.067 440.259C283.548 451.597 277.542 461.543 261.818 464.984ZM245.805 414.348L238.211 416.01L240.715 427.455L248.31 425.793C253.017 424.764 254.771 422.026 253.952 418.282C253.18 414.752 250.512 413.318 245.805 414.348ZM253.91 438.579L243.534 440.85L246.109 452.616L256.485 450.346C261.192 449.316 262.9 446.364 262.08 442.62C261.331 439.197 258.617 437.549 253.91 438.579ZM339.317 412.94C340.648 412.873 341.614 411.653 341.333 410.369L339.082 397.523C338.824 396.346 337.758 395.571 336.665 395.698C336.321 395.661 336 395.732 335.679 395.802C331.4 396.738 327.937 398.841 324.608 403.605C324.334 403.889 323.859 403.769 323.789 403.448L323.391 401.629C323.134 400.453 321.853 399.724 320.677 399.981L307.102 403.513C306.032 403.747 305.28 404.92 305.537 406.097L315.369 451.023C315.626 452.2 316.8 452.952 317.976 452.695L331.775 449.675C332.952 449.418 333.704 448.244 333.446 447.067L327.103 418.079C327.009 417.651 327.153 417.283 327.534 416.976C329.844 415.237 332.829 414.024 335.931 413.345C337.001 413.111 338.201 412.96 339.317 412.94ZM381.322 403.075L371.909 405.135C371.695 405.182 371.528 405.443 371.575 405.657L374.407 418.6C375.133 421.916 378.285 424.028 381.625 423.41C382.908 423.129 384.145 422.634 385.251 422.056C386.441 421.347 388.043 422.005 388.454 423.372L391.152 433.655C391.34 434.51 391.099 435.46 390.313 435.968C388.004 437.706 384.721 439.097 380.656 439.987C366.75 443.03 359.536 437.211 356.844 424.909L353.497 409.613C353.45 409.399 353.189 409.232 352.976 409.278L349.018 410.145C347.841 410.402 346.668 409.65 346.41 408.473L343.999 397.456C343.742 396.279 344.494 395.106 345.67 394.848L349.628 393.982C349.842 393.935 350.009 393.674 349.962 393.46L348.277 385.759C348.066 384.796 348.605 383.669 349.52 383.245L362.604 377.467C363.817 376.866 365.335 377.654 365.639 379.045L367.933 389.528C367.98 389.742 368.241 389.909 368.455 389.862L378.724 387.615C380.007 387.334 381.204 388.193 381.378 389.5L382.957 400.812C383.167 401.775 382.392 402.841 381.322 403.075ZM431.684 427.812L445.376 424.816C446.552 424.559 447.304 423.385 447.023 422.102L432.394 355.246C432.136 354.07 430.856 353.341 429.679 353.598L416.104 357.129C415.035 357.364 414.282 358.537 414.54 359.714L418.613 378.326C418.707 378.754 418.349 379.169 417.898 379.155C415.594 378.875 412.613 379.079 410.045 379.64C394.749 382.988 387.523 395.554 391.034 411.599C394.405 427.003 406.59 434.536 418.249 431.985C422.314 431.096 426.014 429.053 428.708 425.997C428.792 425.867 429.006 425.82 429.053 426.034L429.076 426.141C429.334 427.318 430.507 428.07 431.684 427.812ZM409.506 406.884C408.101 400.466 410.184 395.639 416.388 394.282C418.42 393.837 420.867 393.75 422.137 393.92L426.187 412.426C424.519 414.024 422.58 414.896 420.227 415.411C414.451 416.675 410.84 412.982 409.506 406.884ZM467.801 398.724C467.587 398.771 467.527 399.008 467.657 399.091C470.295 402.437 474.818 403.129 482.519 401.444C486.049 400.671 490.592 398.892 494.055 396.79C495.329 395.95 496.93 396.609 497.364 398.083L500.133 408.686C500.32 409.542 500.08 410.491 499.401 410.976C495.651 413.814 489.36 416.312 484.653 417.342C463.901 421.883 451.111 414.145 447.623 398.207C444.206 382.59 452.916 370.147 467.464 366.964C480.835 364.038 492.278 369.716 495.438 384.157C495.789 385.761 496.197 388.138 496.451 390.324C496.578 391.417 495.803 392.484 494.733 392.718L467.801 398.724ZM464.554 389.01L478.353 385.99L478.072 384.706C477.183 380.642 474.291 378.696 470.226 379.586C466.078 380.606 464.356 384.009 464.554 389.01Z" fill="#F4ECCD"/>
</svg>
