<svg width="228" height="58" viewBox="0 0 228 58" fill="none" xmlns="http://www.w3.org/2000/svg">
<path fill-rule="evenodd" clip-rule="evenodd" d="M60.5961 7.02683C60.5961 11.1603 57.62 14.219 53.4865 14.219C49.1051 14.219 46.0464 11.1603 46.0464 7.02683C46.0464 3.05874 49.1878 0 53.4865 0C57.7026 0 60.5961 3.05874 60.5961 7.02683ZM58.612 56.5453H48.0304C47.1211 56.5453 46.377 55.8013 46.377 54.8919V20.1711C46.377 19.2618 47.1211 18.5178 47.9478 18.5178L58.5293 18.1044C59.4387 18.1044 60.2654 18.8484 60.2654 19.7578V54.8093C60.2654 55.8013 59.5214 56.5453 58.612 56.5453ZM23.8086 56.5453H1.65337C0.744017 56.5453 0 55.8013 0 54.892V6.6135C0 5.70414 0.744017 4.96013 1.65337 4.96013H21.4112C33.6461 4.96013 39.5156 10.4163 39.5156 18.5178C39.5156 23.3126 37.1182 27.198 33.5634 29.0994C33.3981 29.182 33.3981 29.43 33.5634 29.5127C38.8542 31.4141 41.9956 35.7128 41.9956 41.417C41.9956 50.1798 35.9608 56.5453 23.8086 56.5453ZM20.1711 16.6164H14.3017V25.4619H20.1711C23.8086 25.4619 25.5446 23.7259 25.5446 20.8325C25.5446 18.1044 23.8086 16.6164 20.1711 16.6164ZM22.2379 35.7955H14.219V44.8891H22.2379C25.8753 44.8891 27.6113 42.9877 27.6113 40.0943C27.6113 37.4489 25.8753 35.7955 22.2379 35.7955ZM89.3648 30.6702C90.3568 30.8355 91.2661 30.0915 91.2661 29.0995L91.6795 19.2619C91.6795 18.3526 91.0181 17.6086 90.1914 17.5259C89.9434 17.4432 89.6954 17.4432 89.4474 17.4432C86.1407 17.4432 83.2473 18.4352 80.0232 21.4113C79.7752 21.5767 79.4445 21.4113 79.4445 21.1633V19.7579C79.4445 18.8486 78.6178 18.1046 77.7085 18.1046L67.1269 18.5179C66.3002 18.5179 65.5562 19.2619 65.5562 20.1713V54.8921C65.5562 55.8015 66.3002 56.5455 67.2096 56.5455H77.8738C78.7832 56.5455 79.5272 55.8015 79.5272 54.8921V32.4889C79.5272 32.1582 79.6925 31.9102 80.0232 31.7449C82.0072 30.8355 84.4046 30.4222 86.802 30.4222C87.6287 30.4222 88.5381 30.5049 89.3648 30.6702ZM121.936 30.174H114.661C114.496 30.174 114.331 30.3393 114.331 30.5046V40.5075C114.331 43.0703 116.315 45.137 118.877 45.2196C119.869 45.2196 120.861 45.0543 121.771 44.8063C122.763 44.4756 123.838 45.2196 123.92 46.2943L124.251 54.3132C124.251 54.9745 123.92 55.6359 123.259 55.8839C121.275 56.7932 118.629 57.2893 115.488 57.2893C104.741 57.2893 100.36 51.8331 100.36 42.3262V30.5046C100.36 30.3393 100.194 30.174 100.029 30.174H96.9703C96.0609 30.174 95.3169 29.4299 95.3169 28.5206V20.0057C95.3169 19.0964 96.0609 18.3524 96.9703 18.3524H100.029C100.194 18.3524 100.36 18.187 100.36 18.0217V12.0695C100.36 11.3255 100.938 10.5815 101.682 10.4162L112.264 8.26679C113.256 8.01878 114.248 8.84547 114.248 9.92016V18.0217C114.248 18.187 114.413 18.3524 114.579 18.3524H122.515C123.507 18.3524 124.251 19.179 124.168 20.1711L123.507 28.7686C123.507 29.5126 122.763 30.174 121.936 30.174ZM155.086 56.5453H165.668C166.577 56.5453 167.321 55.8013 167.321 54.8093V3.14138C167.321 2.23203 166.495 1.48801 165.585 1.48801L155.004 1.90135C154.177 1.90135 153.433 2.64537 153.433 3.55472V17.9391C153.433 18.2697 153.102 18.5177 152.772 18.4351C151.118 17.8564 148.886 17.5257 146.902 17.5257C135.08 17.5257 127.723 25.6272 127.723 38.0275C127.723 49.9318 135.494 57.4546 144.505 57.4546C147.646 57.4546 150.705 56.5453 153.185 54.7266C153.268 54.6439 153.433 54.6439 153.433 54.8093V54.8919C153.433 55.8013 154.177 56.5453 155.086 56.5453ZM142.107 37.5315C142.107 32.5714 144.422 29.3473 149.217 29.3473C150.788 29.3473 152.606 29.678 153.516 30.0087V44.3103C152.028 45.2197 150.457 45.5504 148.638 45.5504C144.174 45.5504 142.107 42.2436 142.107 37.5315ZM186.418 40.9211C186.252 40.9211 186.17 41.0864 186.252 41.1691C187.658 44.0625 190.882 45.3025 196.834 45.3025C199.562 45.3025 203.199 44.7239 206.093 43.7318C207.167 43.3185 208.242 44.0625 208.325 45.2199L208.655 53.4867C208.655 54.1481 208.325 54.8094 207.746 55.0574C204.522 56.5455 199.479 57.3722 195.842 57.3722C179.804 57.3722 171.62 49.6013 171.62 37.2837C171.62 25.2141 180.052 17.4432 191.295 17.4432C201.629 17.4432 209.151 23.478 209.151 34.6383C209.151 35.8783 209.069 37.697 208.903 39.3504C208.821 40.1771 208.077 40.8384 207.25 40.8384L186.418 40.9211ZM185.591 33.2329H196.255V32.2409C196.255 29.0995 194.436 27.1981 191.295 27.1981C188.071 27.2808 186.252 29.5128 185.591 33.2329ZM220.891 14.219C225.024 14.219 228 11.1603 228 7.02683C228 3.05874 225.107 0 220.891 0C216.592 0 213.45 3.05874 213.45 7.02683C213.45 11.1603 216.509 14.219 220.891 14.219ZM215.434 56.5453H226.016C226.925 56.5453 227.669 55.8013 227.669 54.8093V19.7578C227.669 18.8484 226.843 18.1044 225.933 18.1044L215.352 18.5178C214.525 18.5178 213.781 19.2618 213.781 20.1711V54.8919C213.781 55.8013 214.525 56.5453 215.434 56.5453Z" fill="#F84F39"/>
</svg>
