<svg width="867" height="270" viewBox="0 0 867 270" fill="none" xmlns="http://www.w3.org/2000/svg">
<path d="M0 111.01L19.11 242.79L25.24 248.43L68.04 241.43L77.46 232.2L117.37 97.42L79.13 95.62L51.66 201.39L40.7 99.89L0 111.01Z" fill="white"/>
<path d="M125.84 89.7999L112.56 235.29L149.77 226.51L152.94 204.41L165.85 194.37L179 226.56L209.26 213.42L213.49 203.39L198.49 171.88L214.2 159.24L223.85 113.62L186.19 117.95L182.4 141.15L158.43 160.41L168.11 81.4199L125.84 89.7999Z" fill="white"/>
<path d="M289.38 77.87L283.82 139.44L291.37 147.82L345.1 146.31L343.35 169.99L314.49 174.56L314.47 158.17L283.84 162.75L276.88 198.48L282.02 212.09L364.29 200.36L376.91 187.72L382.77 133.25L375.65 115.1L321.19 117.33L325.12 96.02L349.38 90.27L351.96 104.08L377.21 100.11L384.7 92.8L385.85 58.27L364.73 54.74L297.46 66.84L289.38 77.87Z" fill="white"/>
<path d="M393.33 116.49L394.35 94.7001L400.48 89.6L405.05 89.1301L408.71 61.6901L436.65 58.8301L439.56 62.9001L438.42 83.85L476.84 79.9301L480.92 85.36L478.8 107.29L473.76 111.57L435.93 115.29L430.55 162.25L446.84 160.68L453.23 142.29L479.42 141.25L482.53 145.9L481.39 168.22L470.93 184.91L398.76 195.86L393.4 184.8L400.23 116.3L393.33 116.49Z" fill="white"/>
<path d="M499.41 74.99L491.38 175.83L501.16 181.05L560.15 173.33L563.31 166.79L566.3 171.83L590.95 168.82L599.78 61.49L570.65 66.16L562.93 76.81L554.51 145.23L533.17 145.25L534.31 80L527.02 71.51L499.41 74.99Z" fill="white"/>
<path d="M672.3 14.1099L667.96 56.53L614.21 59.8699L602.1 76.2999L597.66 154.71L608.83 167.67L665.52 158.87L670.64 152.23L674.26 157.96L696.57 154.62L708.78 7.43994L672.3 14.1099ZM662.08 129.13L634.51 131.98L640.28 90.8599L664.57 87.5599L662.08 129.13Z" fill="white"/>
<path d="M714.75 45.04L704.47 152.59L739.01 146.32L753.71 39.28L714.75 45.04Z" fill="white"/>
<path d="M716.28 34.57L724.07 40.07L744.33 37.3L752.11 29.67L757.59 4.70001L752.89 0L719.82 4.90002L716.28 34.57Z" fill="white"/>
<path d="M858.09 25.99L774.36 35.76L765.57 48.87L759.01 138.63L770.61 143.56L850.69 131.77L858.41 117.71L866.27 36.54L858.09 25.99ZM821.91 109.28L798.28 110.42L801.35 61.59L826.99 59.11L821.91 109.28Z" fill="white"/>
<path d="M331.64 265.17C329.65 265.47 327.97 265.59 326.61 265.51C325.25 265.43 324.12 265.3 323.24 265.1C322.35 264.9 321.64 264.49 321.1 263.85C320.56 263.21 320.15 262.72 319.87 262.36L320.49 266.39L316.34 267.03L311.25 233.81L315.4 233.17L317.03 243.81C317.17 243.48 317.43 243.11 317.82 242.69C318.21 242.27 318.8 241.84 319.59 241.41C320.39 240.97 321.43 240.55 322.73 240.15C324.03 239.75 325.66 239.39 327.64 239.09C330.41 238.67 332.79 238.51 334.79 238.63C336.79 238.75 338.47 239.21 339.83 240.03C341.19 240.84 342.28 242.05 343.08 243.64C343.89 245.23 344.48 247.3 344.87 249.83C345.26 252.36 345.31 254.51 345.01 256.26C344.72 258.02 344.04 259.48 342.98 260.66C341.92 261.84 340.46 262.78 338.59 263.48C336.73 264.18 334.41 264.75 331.64 265.17ZM331.11 261.71C332.72 261.46 334.11 261.2 335.27 260.92C336.43 260.64 337.4 260.31 338.18 259.93C338.96 259.55 339.57 259.09 340.02 258.55C340.46 258.01 340.77 257.37 340.94 256.62C341.11 255.87 341.17 254.99 341.11 253.99C341.05 252.98 340.92 251.81 340.71 250.47C340.5 249.13 340.28 247.96 340.03 246.98C339.78 245.99 339.46 245.17 339.08 244.51C338.69 243.85 338.2 243.32 337.62 242.94C337.04 242.56 336.31 242.29 335.45 242.15C334.59 242.01 333.56 241.98 332.37 242.06C331.18 242.14 329.78 242.3 328.16 242.55C326.78 242.76 325.55 242.98 324.48 243.21C323.41 243.44 322.48 243.73 321.69 244.09C320.9 244.44 320.26 244.88 319.75 245.4C319.25 245.91 318.87 246.56 318.62 247.33C318.37 248.1 318.24 249.02 318.24 250.11C318.24 251.19 318.35 252.47 318.57 253.94C318.79 255.4 319.07 256.63 319.39 257.64C319.71 258.65 320.11 259.48 320.58 260.12C321.05 260.76 321.6 261.25 322.23 261.59C322.86 261.92 323.61 262.14 324.46 262.22C325.31 262.31 326.29 262.3 327.38 262.2C328.49 262.08 329.73 261.92 331.11 261.71Z" fill="white"/>
<path d="M345.9 237L350.74 236.26L365.21 256.7L372.31 233.03L377.2 232.28L368.55 259.11L368.06 260.61C367.83 261.35 367.6 262.05 367.35 262.72C367.1 263.38 366.79 264 366.41 264.57C366.03 265.14 365.56 265.67 365.01 266.17C364.45 266.66 363.77 267.11 362.95 267.52C362.13 267.93 361.15 268.3 359.99 268.63C358.83 268.96 357.44 269.25 355.83 269.5L355.3 266.04C356.68 265.83 357.84 265.59 358.78 265.34C359.72 265.09 360.49 264.81 361.1 264.5C361.71 264.19 362.19 263.86 362.53 263.52C362.87 263.18 363.15 262.8 363.35 262.4C363.55 262 363.72 261.58 363.86 261.14C363.99 260.7 364.14 260.23 364.29 259.73L362.86 259.93L345.9 237Z" fill="white"/>
<path d="M426.59 216.13L430.87 215.47L418.53 251.36L412.44 252.29L389.91 221.74L394.73 221L415.33 249L426.59 216.13Z" fill="white"/>
<path d="M460.27 241.48C460.25 241.66 460 242.14 459.5 242.93C459.15 243.52 458.64 244.06 457.98 244.57C457.32 245.08 456.4 245.53 455.24 245.94C454.07 246.35 452.51 246.7 450.54 247C447.93 247.4 445.68 247.61 443.8 247.62C441.91 247.64 440.34 247.46 439.09 247.08C437.84 246.7 436.87 246.12 436.2 245.34C435.53 244.56 435.1 243.57 434.91 242.37C434.72 241.12 434.7 240.03 434.86 239.11C435.02 238.19 435.34 237.39 435.82 236.72C436.3 236.04 436.92 235.47 437.67 235.02C438.42 234.57 439.31 234.17 440.31 233.84C441.31 233.51 442.43 233.23 443.65 233C444.87 232.77 446.17 232.55 447.55 232.34C449.53 232.04 451.19 231.87 452.54 231.83C453.89 231.79 455.01 231.84 455.89 231.96C456.77 232.08 457.45 232.26 457.93 232.48C458.41 232.7 458.76 232.92 458.98 233.14C458.73 231.53 458.45 230.16 458.14 229.04C457.83 227.92 457.46 227 457.03 226.29C456.6 225.57 456.11 225.03 455.55 224.65C454.99 224.27 454.34 224.02 453.59 223.9C452.84 223.78 451.99 223.76 451.02 223.84C450.06 223.92 448.96 224.06 447.74 224.24C445.84 224.53 444.27 224.82 443.03 225.11C441.79 225.4 440.82 225.73 440.13 226.12C439.44 226.51 438.98 226.96 438.75 227.49C438.52 228.02 438.47 228.67 438.59 229.45L434.44 230.09C434.24 228.78 434.3 227.63 434.63 226.65C434.96 225.67 435.62 224.81 436.63 224.08C437.63 223.34 439 222.71 440.73 222.18C442.46 221.65 444.63 221.18 447.22 220.79C449.76 220.4 451.94 220.28 453.76 220.43C455.58 220.58 457.12 221.1 458.37 221.98C459.62 222.87 460.62 224.16 461.38 225.87C462.14 227.58 462.72 229.79 463.14 232.52L464.94 244.29L460.79 244.93L460.27 241.48ZM450.69 243.43C452.52 243.15 454.04 242.83 455.25 242.47C456.46 242.11 457.41 241.7 458.11 241.25C458.81 240.79 459.28 240.29 459.51 239.73C459.74 239.17 459.82 238.55 459.71 237.86C459.61 237.18 459.33 236.63 458.89 236.21C458.45 235.79 457.78 235.5 456.87 235.33C455.97 235.16 454.8 235.12 453.36 235.2C451.93 235.28 450.17 235.48 448.1 235.8C446.02 236.12 444.35 236.41 443.09 236.68C441.82 236.95 440.87 237.26 440.21 237.62C439.56 237.98 439.15 238.43 438.99 238.96C438.83 239.49 438.81 240.19 438.94 241.04C439.07 241.89 439.3 242.57 439.64 243.06C439.97 243.55 440.55 243.89 441.38 244.07C442.21 244.25 443.36 244.28 444.84 244.16C446.32 244.05 448.27 243.8 450.69 243.43Z" fill="white"/>
<path d="M467.61 209.85L471.76 209.21L476.85 242.43L472.7 243.07L467.61 209.85Z" fill="white"/>
<path d="M499.23 239.49C496.46 239.91 494.08 240.08 492.09 240C490.1 239.91 488.43 239.5 487.07 238.74C485.72 237.99 484.64 236.87 483.85 235.38C483.06 233.89 482.48 231.96 482.12 229.58C481.7 226.85 481.63 224.56 481.91 222.7C482.19 220.84 482.85 219.28 483.9 218.05C484.95 216.81 486.41 215.84 488.28 215.12C490.15 214.41 492.47 213.84 495.23 213.41C497.21 213.11 498.94 212.99 500.43 213.06C501.92 213.13 503.23 213.35 504.34 213.74C505.45 214.13 506.39 214.66 507.15 215.35C507.91 216.03 508.54 216.77 509.04 217.57C509.54 218.37 509.95 219.34 510.26 220.47C510.57 221.6 510.83 222.81 511.03 224.09L510.9 225.53L486.33 229.3C486.61 231.16 487.04 232.65 487.59 233.78C488.15 234.91 488.9 235.68 489.85 236.1C490.8 236.52 491.99 236.69 493.43 236.62C494.87 236.55 496.62 236.36 498.7 236.04C500.6 235.75 502.17 235.46 503.4 235.16C504.63 234.86 505.59 234.52 506.28 234.12C506.97 233.72 507.43 233.24 507.64 232.68C507.86 232.12 507.9 231.43 507.78 230.61L511.93 229.97C512.14 231.31 512.08 232.49 511.75 233.51C511.42 234.53 510.77 235.41 509.78 236.16C508.79 236.91 507.43 237.55 505.7 238.09C503.98 238.62 501.82 239.09 499.23 239.49ZM495.76 216.87C494.38 217.08 493.14 217.3 492.06 217.52C490.98 217.74 490.05 218.02 489.26 218.34C488.48 218.66 487.82 219.05 487.3 219.5C486.78 219.95 486.38 220.46 486.1 221.01C485.82 221.56 485.67 222.3 485.64 223.23C485.61 224.16 485.7 225.25 485.89 226.52L506.65 223.34C506.39 221.65 506.01 220.36 505.5 219.45C504.99 218.55 504.3 217.84 503.43 217.34C502.56 216.84 501.49 216.57 500.23 216.52C498.97 216.47 497.49 216.6 495.76 216.87Z" fill="white"/>
<path d="M538.25 215.82C538.09 214.78 537.88 213.93 537.63 213.27C537.38 212.61 536.93 212.12 536.31 211.79C535.68 211.47 534.81 211.3 533.68 211.31C532.55 211.32 531.04 211.46 529.13 211.75C527.27 212.04 525.78 212.43 524.66 212.93C523.54 213.43 522.7 214.03 522.12 214.72C521.54 215.41 521.21 216.19 521.09 217.05C520.98 217.91 521 218.84 521.15 219.85L523.51 235.27L519.36 235.91L515.55 211L519.7 210.36L520.31 214.32C520.39 213.85 520.58 213.32 520.88 212.72C521.19 212.12 521.7 211.52 522.42 210.93C523.14 210.34 524.11 209.79 525.32 209.28C526.53 208.77 528.08 208.37 529.97 208.08C532.13 207.75 533.92 207.67 535.33 207.84C536.74 208.01 537.89 208.41 538.76 209.04C539.63 209.67 540.28 210.51 540.72 211.56C541.15 212.61 541.48 213.86 541.7 215.28L538.25 215.82Z" fill="white"/>
<path d="M548.98 201.63L544.83 202.27L544.19 198.12L548.34 197.48L548.98 201.63ZM545.46 206.41L549.61 205.77L553.43 230.68L549.28 231.32L545.46 206.41Z" fill="white"/>
<path d="M585.48 222.28C585.46 222.46 585.21 222.94 584.71 223.73C584.36 224.32 583.85 224.86 583.19 225.37C582.53 225.88 581.61 226.33 580.45 226.74C579.28 227.15 577.72 227.5 575.75 227.8C573.14 228.2 570.89 228.41 569.01 228.42C567.12 228.44 565.55 228.26 564.3 227.88C563.05 227.5 562.08 226.92 561.41 226.14C560.74 225.36 560.31 224.37 560.12 223.17C559.93 221.92 559.91 220.83 560.07 219.91C560.23 218.99 560.55 218.19 561.03 217.52C561.51 216.84 562.13 216.27 562.88 215.82C563.64 215.36 564.52 214.97 565.52 214.64C566.52 214.31 567.64 214.03 568.86 213.8C570.08 213.57 571.38 213.35 572.76 213.14C574.74 212.84 576.4 212.67 577.75 212.63C579.1 212.59 580.22 212.64 581.1 212.76C581.98 212.88 582.66 213.06 583.14 213.28C583.62 213.5 583.97 213.72 584.19 213.94C583.94 212.33 583.66 210.96 583.35 209.84C583.04 208.72 582.67 207.8 582.24 207.09C581.81 206.37 581.32 205.83 580.76 205.45C580.2 205.07 579.55 204.82 578.8 204.7C578.05 204.58 577.2 204.56 576.23 204.64C575.27 204.72 574.17 204.86 572.95 205.04C571.05 205.33 569.48 205.62 568.24 205.91C567 206.2 566.03 206.53 565.34 206.92C564.65 207.31 564.19 207.76 563.96 208.29C563.73 208.82 563.68 209.47 563.8 210.25L559.65 210.89C559.45 209.58 559.51 208.43 559.84 207.45C560.17 206.47 560.83 205.61 561.84 204.88C562.84 204.14 564.21 203.51 565.94 202.98C567.67 202.45 569.84 201.98 572.43 201.59C574.97 201.2 577.15 201.08 578.97 201.23C580.79 201.38 582.33 201.9 583.58 202.78C584.83 203.67 585.83 204.96 586.59 206.67C587.35 208.38 587.93 210.59 588.35 213.32L590.15 225.09L586 225.73L585.48 222.28ZM575.9 224.24C577.73 223.96 579.25 223.64 580.46 223.28C581.67 222.92 582.62 222.51 583.32 222.06C584.02 221.6 584.49 221.1 584.72 220.54C584.96 219.98 585.03 219.36 584.92 218.67C584.82 217.99 584.54 217.44 584.1 217.02C583.66 216.6 582.99 216.31 582.08 216.14C581.18 215.97 580.01 215.93 578.57 216.01C577.14 216.09 575.38 216.29 573.31 216.61C571.23 216.93 569.56 217.22 568.3 217.49C567.03 217.76 566.08 218.07 565.42 218.43C564.77 218.79 564.36 219.24 564.2 219.77C564.04 220.3 564.02 221 564.15 221.85C564.28 222.7 564.51 223.38 564.85 223.87C565.18 224.36 565.76 224.7 566.59 224.88C567.41 225.06 568.57 225.09 570.05 224.97C571.53 224.86 573.48 224.61 575.9 224.24Z" fill="white"/>
<path d="M603.36 189.04L628.32 185.21C630.38 184.89 632.14 184.72 633.58 184.68C635.03 184.64 636.24 184.73 637.22 184.95C638.2 185.17 638.98 185.51 639.56 185.96C640.14 186.42 640.6 186.99 640.94 187.67C641.28 188.36 641.54 189.14 641.71 190.03C641.88 190.92 642.05 191.9 642.22 192.98C642.39 194.1 642.53 195.15 642.62 196.11C642.71 197.07 642.68 197.96 642.52 198.77C642.36 199.58 642.01 200.33 641.49 201.01C640.97 201.69 640.17 202.31 639.1 202.87C638.03 203.43 636.64 203.95 634.93 204.42C633.22 204.89 631.1 205.32 628.56 205.71L610.59 208.46L612.61 221.61L608.46 222.25L603.36 189.04ZM610.05 205.02L628.02 202.27C629.87 201.99 631.41 201.72 632.67 201.46C633.92 201.2 634.95 200.92 635.74 200.62C636.54 200.32 637.13 199.98 637.53 199.59C637.93 199.2 638.19 198.74 638.32 198.18C638.45 197.62 638.48 196.99 638.4 196.25C638.32 195.52 638.21 194.64 638.05 193.64C637.91 192.7 637.76 191.9 637.62 191.23C637.48 190.56 637.27 190.01 636.99 189.58C636.71 189.15 636.33 188.83 635.84 188.63C635.35 188.43 634.68 188.31 633.84 188.28C632.99 188.25 631.94 188.32 630.67 188.47C629.4 188.62 627.84 188.84 626 189.12L608.03 191.87L610.05 205.02Z" fill="white"/>
<path d="M673.71 208.76C673.69 208.94 673.44 209.42 672.94 210.21C672.59 210.8 672.08 211.34 671.42 211.85C670.76 212.36 669.84 212.81 668.68 213.22C667.52 213.63 665.95 213.98 663.98 214.28C661.37 214.68 659.12 214.89 657.24 214.9C655.36 214.91 653.78 214.74 652.53 214.36C651.28 213.98 650.31 213.4 649.64 212.62C648.97 211.84 648.54 210.85 648.35 209.65C648.16 208.4 648.14 207.31 648.3 206.39C648.46 205.47 648.78 204.67 649.26 204C649.74 203.32 650.36 202.75 651.11 202.3C651.86 201.85 652.75 201.45 653.75 201.12C654.75 200.79 655.87 200.51 657.08 200.28C658.29 200.05 659.6 199.83 660.98 199.62C662.96 199.32 664.62 199.15 665.97 199.11C667.32 199.07 668.44 199.12 669.32 199.24C670.2 199.36 670.88 199.54 671.36 199.76C671.84 199.98 672.19 200.2 672.41 200.42C672.16 198.81 671.88 197.44 671.57 196.32C671.26 195.2 670.89 194.28 670.46 193.57C670.03 192.85 669.54 192.31 668.98 191.93C668.42 191.55 667.77 191.3 667.02 191.18C666.27 191.06 665.42 191.04 664.45 191.12C663.49 191.2 662.39 191.34 661.17 191.52C659.27 191.81 657.7 192.1 656.46 192.39C655.22 192.68 654.25 193.01 653.56 193.4C652.87 193.79 652.41 194.24 652.18 194.77C651.95 195.3 651.9 195.95 652.02 196.73L647.87 197.37C647.67 196.06 647.73 194.91 648.06 193.93C648.39 192.95 649.05 192.09 650.06 191.36C651.06 190.62 652.43 189.99 654.16 189.46C655.89 188.93 658.06 188.46 660.65 188.07C663.19 187.68 665.37 187.56 667.19 187.71C669.01 187.86 670.55 188.38 671.8 189.26C673.05 190.15 674.05 191.44 674.81 193.15C675.57 194.86 676.15 197.07 676.57 199.8L678.37 211.57L674.22 212.21L673.71 208.76ZM664.14 210.72C665.97 210.44 667.49 210.12 668.7 209.76C669.91 209.4 670.86 208.99 671.56 208.54C672.26 208.08 672.73 207.58 672.96 207.02C673.2 206.46 673.27 205.84 673.16 205.15C673.06 204.47 672.78 203.92 672.34 203.5C671.9 203.08 671.23 202.79 670.32 202.62C669.42 202.45 668.25 202.41 666.81 202.49C665.38 202.57 663.62 202.77 661.55 203.09C659.47 203.41 657.8 203.7 656.54 203.97C655.28 204.24 654.32 204.55 653.66 204.91C653.01 205.27 652.6 205.72 652.44 206.25C652.28 206.78 652.26 207.48 652.39 208.33C652.52 209.18 652.75 209.86 653.09 210.35C653.42 210.84 654 211.18 654.83 211.36C655.65 211.54 656.81 211.57 658.29 211.45C659.77 211.33 661.72 211.09 664.14 210.72Z" fill="white"/>
<path d="M681.06 177.13L685.21 176.49L690.3 209.71L686.15 210.35L681.06 177.13Z" fill="white"/>
<path d="M695.42 195.9C695.03 193.37 694.98 191.23 695.28 189.49C695.57 187.75 696.25 186.3 697.31 185.14C698.37 183.98 699.84 183.06 701.71 182.37C703.58 181.68 705.9 181.12 708.67 180.7C711.44 180.28 713.82 180.11 715.81 180.21C717.8 180.31 719.48 180.75 720.84 181.54C722.2 182.33 723.28 183.51 724.08 185.08C724.88 186.65 725.48 188.71 725.87 191.24C726.26 193.81 726.32 195.99 726.03 197.78C725.74 199.56 725.07 201.05 724.01 202.24C722.95 203.43 721.49 204.38 719.62 205.09C717.75 205.8 715.43 206.37 712.66 206.79C709.89 207.21 707.51 207.37 705.51 207.25C703.51 207.13 701.83 206.66 700.47 205.85C699.11 205.03 698.02 203.81 697.21 202.2C696.42 200.56 695.82 198.47 695.42 195.9ZM699.57 195.26C699.78 196.63 700.01 197.81 700.27 198.81C700.53 199.81 700.85 200.65 701.24 201.33C701.63 202.01 702.12 202.55 702.69 202.92C703.26 203.3 703.98 203.56 704.85 203.71C705.71 203.86 706.74 203.89 707.93 203.81C709.12 203.73 710.52 203.57 712.14 203.32C713.52 203.11 714.76 202.89 715.83 202.66C716.91 202.43 717.84 202.14 718.62 201.78C719.4 201.43 720.05 201 720.56 200.49C721.07 199.98 721.45 199.34 721.69 198.56C721.93 197.78 722.05 196.84 722.06 195.76C722.07 194.68 721.95 193.38 721.72 191.88C721.49 190.41 721.22 189.17 720.9 188.17C720.58 187.16 720.18 186.34 719.72 185.69C719.26 185.04 718.71 184.56 718.07 184.25C717.43 183.93 716.69 183.73 715.84 183.65C714.99 183.57 714.02 183.58 712.92 183.69C711.82 183.8 710.58 183.96 709.2 184.17C707.82 184.38 706.58 184.6 705.5 184.82C704.42 185.04 703.49 185.32 702.71 185.65C701.93 185.98 701.28 186.4 700.76 186.89C700.25 187.39 699.87 188.01 699.62 188.76C699.37 189.51 699.25 190.42 699.24 191.48C699.24 192.53 699.35 193.79 699.57 195.26Z" fill="white"/>
<path d="M759.81 199.06L755.66 199.7L753.51 185.64C753.28 184.14 752.99 182.89 752.64 181.89C752.29 180.89 751.76 180.12 751.07 179.57C750.37 179.03 749.46 178.7 748.33 178.58C747.2 178.47 745.75 178.54 743.97 178.82C742.02 179.12 740.45 179.53 739.24 180.04C738.04 180.56 737.12 181.16 736.49 181.86C735.86 182.55 735.47 183.33 735.31 184.2C735.15 185.06 735.15 186 735.31 187.01L737.68 202.45L733.53 203.09L729.71 178.18L733.86 177.54L734.46 181.48C734.47 181.43 734.51 181.28 734.59 181.02C734.67 180.76 734.83 180.43 735.07 180.05C735.31 179.67 735.66 179.24 736.11 178.77C736.56 178.3 737.17 177.84 737.93 177.38C738.69 176.92 739.64 176.5 740.76 176.11C741.88 175.72 743.23 175.4 744.82 175.16C746.38 174.92 747.74 174.81 748.92 174.83C750.1 174.85 751.12 174.99 751.99 175.24C752.86 175.5 753.6 175.87 754.2 176.36C754.8 176.85 755.31 177.44 755.72 178.13C755.91 177.7 756.22 177.19 756.66 176.59C757.1 175.99 757.75 175.38 758.6 174.76C759.45 174.14 760.56 173.56 761.91 173.02C763.26 172.48 764.94 172.06 766.96 171.75C768.62 171.5 770.06 171.39 771.28 171.43C772.5 171.47 773.56 171.65 774.45 171.96C775.34 172.27 776.08 172.72 776.68 173.29C777.28 173.86 777.77 174.56 778.17 175.37C778.57 176.18 778.89 177.12 779.14 178.17C779.39 179.22 779.61 180.36 779.8 181.6L781.95 195.66L777.8 196.3L775.65 182.24C775.42 180.74 775.13 179.49 774.78 178.49C774.43 177.49 773.9 176.72 773.21 176.17C772.51 175.63 771.6 175.3 770.47 175.18C769.34 175.07 767.89 175.14 766.11 175.42C764.16 175.72 762.59 176.13 761.38 176.64C760.18 177.16 759.26 177.76 758.63 178.46C758 179.15 757.61 179.93 757.45 180.8C757.29 181.67 757.29 182.6 757.45 183.61L759.81 199.06Z" fill="white"/>
<path d="M789.42 164.78L785.27 165.42L784.63 161.27L788.78 160.63L789.42 164.78ZM785.9 169.56L790.05 168.92L793.87 193.83L789.72 194.47L785.9 169.56Z" fill="white"/>
<path d="M826.55 188.83L824.43 174.99C824.19 173.45 823.88 172.16 823.49 171.14C823.1 170.12 822.5 169.33 821.71 168.79C820.92 168.25 819.87 167.93 818.55 167.84C817.24 167.75 815.54 167.86 813.47 168.18C811.22 168.52 809.4 168.97 808.02 169.52C806.64 170.07 805.58 170.71 804.85 171.44C804.12 172.17 803.67 172.99 803.49 173.88C803.31 174.78 803.3 175.75 803.46 176.78L805.79 192.01L801.64 192.65L797.82 167.74L801.97 167.1L802.61 171.25C802.8 170.5 803.14 169.82 803.63 169.22C804.11 168.62 804.68 168.09 805.33 167.62C805.98 167.15 806.7 166.74 807.49 166.39C808.28 166.04 809.07 165.74 809.88 165.49C810.68 165.24 811.47 165.04 812.23 164.88C812.99 164.72 813.69 164.59 814.33 164.49C816.18 164.21 817.78 164.08 819.15 164.11C820.52 164.14 821.7 164.3 822.7 164.61C823.7 164.92 824.53 165.36 825.19 165.93C825.85 166.51 826.41 167.21 826.85 168.03C827.29 168.85 827.65 169.8 827.91 170.86C828.18 171.92 828.41 173.08 828.6 174.35L830.7 188.19L826.55 188.83Z" fill="white"/>
<path d="M834.46 174.59C834.07 172.06 834.02 169.92 834.32 168.18C834.61 166.44 835.29 164.99 836.35 163.83C837.41 162.67 838.88 161.75 840.75 161.06C842.62 160.37 844.94 159.81 847.71 159.39C850.48 158.97 852.86 158.8 854.85 158.9C856.84 159 858.52 159.44 859.88 160.23C861.24 161.02 862.32 162.2 863.12 163.77C863.92 165.34 864.52 167.4 864.91 169.93C865.3 172.5 865.36 174.68 865.07 176.47C864.78 178.25 864.11 179.74 863.05 180.93C861.99 182.12 860.53 183.07 858.66 183.78C856.79 184.49 854.47 185.06 851.7 185.48C848.93 185.9 846.55 186.06 844.55 185.94C842.55 185.82 840.87 185.35 839.51 184.54C838.15 183.72 837.06 182.5 836.25 180.89C835.45 179.25 834.85 177.16 834.46 174.59ZM838.61 173.95C838.82 175.32 839.05 176.5 839.31 177.5C839.57 178.5 839.89 179.34 840.28 180.02C840.67 180.71 841.16 181.24 841.73 181.61C842.3 181.98 843.02 182.25 843.89 182.4C844.75 182.55 845.78 182.58 846.97 182.5C848.16 182.42 849.56 182.26 851.18 182.01C852.56 181.8 853.8 181.58 854.87 181.35C855.95 181.12 856.88 180.83 857.66 180.47C858.44 180.12 859.09 179.69 859.6 179.18C860.11 178.67 860.49 178.03 860.73 177.25C860.97 176.47 861.09 175.53 861.1 174.45C861.1 173.36 860.99 172.07 860.76 170.57C860.53 169.1 860.26 167.86 859.94 166.86C859.62 165.85 859.22 165.03 858.76 164.38C858.3 163.73 857.75 163.25 857.11 162.94C856.47 162.62 855.73 162.42 854.88 162.34C854.03 162.26 853.06 162.27 851.96 162.38C850.86 162.49 849.62 162.65 848.24 162.86C846.86 163.07 845.62 163.29 844.54 163.51C843.46 163.73 842.53 164.01 841.75 164.34C840.97 164.67 840.32 165.09 839.8 165.58C839.29 166.08 838.91 166.7 838.66 167.45C838.41 168.2 838.29 169.11 838.28 170.17C838.28 171.22 838.38 172.48 838.61 173.95Z" fill="white"/>
</svg>
