<svg width="95" height="117" viewBox="0 0 95 117" fill="none" xmlns="http://www.w3.org/2000/svg">
<path d="M53.584 116.547L3.85987 115.945C1.81896 115.92 0.169343 114.23 0.194063 112.189L1.50645 3.83478C1.53117 1.79386 3.22123 0.144249 5.26215 0.168968L49.6057 0.706057C77.0653 1.03865 90.0902 13.4437 89.8699 31.6264C89.7396 42.3876 84.2534 51.0427 76.2236 55.2134C75.8502 55.3945 75.8435 55.9511 76.2123 56.1411C88.0351 60.5523 94.9686 70.2857 94.8136 83.0878C94.5754 102.755 80.8581 116.877 53.584 116.547ZM46.5058 26.8332L33.3326 26.6736L33.0921 46.5262L46.2653 46.6857C54.429 46.7846 58.3725 42.9355 58.4511 36.4417C58.5253 30.3189 54.6694 26.9321 46.5058 26.8332ZM50.6228 69.9341L32.6257 69.7161L32.3785 90.1253L50.3757 90.3433C58.5393 90.4422 62.4873 86.222 62.566 79.7282C62.6379 73.791 58.7865 70.033 50.6228 69.9341Z" fill="url(#paint0_linear_694_693)"/>
<defs>
<linearGradient id="paint0_linear_694_693" x1="-19.9989" y1="82.6174" x2="96.0483" y2="80.902" gradientUnits="userSpaceOnUse">
<stop offset="1" stop-color="#F84F39"/>
</linearGradient>
</defs>
</svg>
