<svg width="14" height="14" viewBox="0 0 14 14" fill="none" xmlns="http://www.w3.org/2000/svg">
<path d="M6.47502 0C3.5221 0.00287707 1.99427 0.0557074 1.02499 1.02499C0.0557074 1.99427 0.00287707 3.5221 0 6.47502H3.43955C3.19386 6.16813 3.01029 5.80615 2.91019 5.40573C2.53341 3.89858 3.89858 2.5334 5.40573 2.91019C5.80615 3.01029 6.16813 3.19386 6.47502 3.43955V0Z" fill="#F84F39"/>
<path d="M0 7.52515C0.00287707 10.478 0.0557074 12.0058 1.02499 12.9751C1.99427 13.9444 3.5221 13.9972 6.47502 14.0001V8.48669C5.92922 9.57683 4.80198 10.3252 3.49992 10.3252C3.20997 10.3252 2.97491 10.0902 2.97491 9.8002C2.97491 9.51026 3.20997 9.27519 3.49992 9.27519C4.5757 9.27519 5.47709 8.52848 5.7141 7.52515H0Z" fill="#F84F39"/>
<path d="M7.52502 14.0001C10.4779 13.9972 12.0057 13.9444 12.975 12.9751C13.9443 12.0058 13.9971 10.478 14 7.52515H8.28587C8.5229 8.52848 9.42431 9.27519 10.5001 9.27519C10.79 9.27519 11.0251 9.51026 11.0251 9.8002C11.0251 10.0902 10.79 10.3252 10.5001 10.3252C9.198 10.3252 8.07076 9.57683 7.52502 8.48669V14.0001Z" fill="#F84F39"/>
<path d="M14 6.47502C13.9971 3.5221 13.9443 1.99427 12.975 1.02499C12.0057 0.0557074 10.4779 0.00287707 7.52502 0V3.43955C7.83191 3.19386 8.19389 3.01029 8.59423 2.91019C10.1014 2.5334 11.4666 3.89858 11.0898 5.40573C10.9897 5.80615 10.8061 6.16813 10.5604 6.47502H14Z" fill="#F84F39"/>
<path d="M5.15103 3.92896C5.92912 4.12348 6.47499 4.82259 6.47499 5.6246V6.47512H5.62447C4.82247 6.47512 4.12336 5.92924 3.92884 5.15115C3.7443 4.41303 4.4129 3.74443 5.15103 3.92896Z" fill="#F84F39"/>
<path d="M7.52502 5.6246V6.47512H8.37548C9.17749 6.47512 9.87659 5.92924 10.0711 5.15115C10.2557 4.41303 9.58707 3.74443 8.84897 3.92896C8.07083 4.12348 7.52502 4.82259 7.52502 5.6246Z" fill="#F84F39"/>
</svg>
