<svg width="25" height="57" viewBox="0 0 25 57" fill="none" xmlns="http://www.w3.org/2000/svg">
<path d="M14.8429 2L14.5251 2.36541L14.1905 2.73082L13.8475 3.09624L13.5046 3.46165L13.17 3.82706L12.8522 4.19248L12.5588 4.55789L12.2972 4.92331L12.0738 5.28872L11.894 5.65413L11.7624 6.01955L11.6821 6.38496L11.6551 6.75037L11.6821 7.11579L11.7624 7.4812L11.894 7.84661L12.0738 8.21203L12.2972 8.57744L12.5588 8.94285L12.8522 9.30827L13.17 9.67368L13.5046 10.0391L13.8475 10.4045L14.1905 10.7699L14.5251 11.1353L14.8429 11.5007L15.1363 11.8662L15.3979 12.2316L15.6213 12.597L15.8011 12.9624L15.9327 13.3278L16.013 13.6932L16.04 14.0586L16.013 14.4241L15.9327 14.7895L15.8011 15.1549L15.6213 15.5203L15.3979 15.8857L15.1363 16.2511L14.8429 16.6165L14.5251 16.982L14.1905 17.3474L13.8475 17.7128L13.5046 18.0782L13.17 18.4436L12.8522 18.809L12.5588 19.1744L12.2972 19.5398L12.0738 19.9053L11.894 20.2707L11.7624 20.6361L11.6821 21.0015L11.6551 21.3669L11.6821 21.7323L11.7624 22.0977L11.894 22.4632L12.0738 22.8286L12.2972 23.194L12.5588 23.5594L12.8522 23.9248L13.17 24.2902L13.5046 24.6556L13.8475 25.0211L14.1905 25.3865L14.5251 25.7519L14.8429 26.1173L15.1363 26.4827L15.3979 26.8481L15.6213 27.2135L15.8011 27.5789L15.9327 27.9444L16.013 28.3098L16.04 28.6752L16.013 29.0406L15.9327 29.406L15.8011 29.7714L15.6213 30.1368L15.3979 30.5023L15.1363 30.8677L14.8429 31.2331L14.5251 31.5985L14.1905 31.9639L13.8475 32.3293L13.5046 32.6947L13.17 33.0601L12.8522 33.4256L12.5588 33.791L12.2972 34.1564L12.0738 34.5218L11.894 34.8872L11.7624 35.2526L11.6821 35.618L11.6551 35.9835L11.6821 36.3489L11.7624 36.7143L11.894 37.0797L12.0738 37.4451L12.2972 37.8105L12.5588 38.1759L12.8522 38.5413L13.17 38.9068L13.5046 39.2722L13.8475 39.6376L14.1905 40.003L14.5251 40.3684L14.8429 40.7338L15.1363 41.0992L15.3979 41.4647L15.6213 41.8301L15.8011 42.1955L15.9327 42.5609L16.013 42.9263L16.04 43.2917L16.013 43.6571L15.9327 44.0226L15.8011 44.388L15.6213 44.7534L15.3979 45.1188L15.1363 45.4842L14.8429 45.8496L14.5251 46.215L14.1905 46.5804L13.8475 46.9459L13.5046 47.3113L13.17 47.6767L12.8522 48.0421L12.5588 48.4075L12.2972 48.7729L12.0738 49.1383L11.894 49.5038L11.7624 49.8692L11.6821 50.2346L11.6551 50.6L11.6821 50.9654L11.7624 51.3308L11.894 51.6962L12.0738 52.0617L12.2972 52.4271L12.5588 52.7925L12.8522 53.1579L13.17 53.5233L13.5046 53.8887" stroke="#FD3D24" stroke-width="3.24" stroke-miterlimit="10" stroke-linecap="round" stroke-linejoin="round"/>
<path d="M2.00003 44.12L11.653 54.2326C12.5492 55.1715 14.0653 55.1136 14.8872 54.109L23.06 44.12" stroke="#FD3D24" stroke-width="3.24" stroke-linecap="round"/>
</svg>
