<svg width="22" height="22" viewBox="0 0 22 22" fill="none" xmlns="http://www.w3.org/2000/svg">
<path d="M15.5832 1.83317C16.7977 1.8368 17.9615 2.32088 18.8203 3.1797C19.6791 4.03852 20.1632 5.20228 20.1668 6.41683V15.5832C20.1632 16.7977 19.6791 17.9615 18.8203 18.8203C17.9615 19.6791 16.7977 20.1632 15.5832 20.1668H6.41683C5.20228 20.1632 4.03852 19.6791 3.1797 18.8203C2.32088 17.9615 1.8368 16.7977 1.83317 15.5832V6.41683C1.8368 5.20228 2.32088 4.03852 3.1797 3.1797C4.03852 2.32088 5.20228 1.8368 6.41683 1.83317H15.5832ZM15.5832 0H6.41683C2.8875 0 0 2.8875 0 6.41683V15.5832C0 19.1125 2.8875 22 6.41683 22H15.5832C19.1125 22 22 19.1125 22 15.5832V6.41683C22 2.8875 19.1125 0 15.5832 0Z" fill="#252525"/>
<path d="M16.9582 6.4165C16.6862 6.4165 16.4204 6.33586 16.1943 6.18478C15.9681 6.03369 15.7919 5.81894 15.6878 5.56769C15.5838 5.31645 15.5565 5.03998 15.6096 4.77326C15.6626 4.50653 15.7936 4.26153 15.9859 4.06923C16.1782 3.87694 16.4232 3.74598 16.6899 3.69292C16.9566 3.63987 17.2331 3.6671 17.4844 3.77117C17.7356 3.87524 17.9504 4.05148 18.1014 4.2776C18.2525 4.50371 18.3332 4.76955 18.3332 5.0415C18.3336 5.22218 18.2983 5.40116 18.2293 5.56815C18.1603 5.73515 18.0591 5.88688 17.9313 6.01464C17.8036 6.1424 17.6518 6.24367 17.4848 6.31263C17.3178 6.38159 17.1388 6.41689 16.9582 6.4165ZM11 7.33284C11.7252 7.33284 12.4342 7.5479 13.0372 7.95082C13.6402 8.35373 14.1102 8.92641 14.3877 9.59644C14.6652 10.2665 14.7379 11.0037 14.5964 11.715C14.4549 12.4263 14.1057 13.0797 13.5928 13.5925C13.08 14.1053 12.4267 14.4546 11.7154 14.596C11.0041 14.7375 10.2668 14.6649 9.59677 14.3874C8.92674 14.1098 8.35406 13.6399 7.95114 13.0369C7.54823 12.4338 7.33317 11.7249 7.33317 10.9997C7.33421 10.0275 7.72087 9.09542 8.40831 8.40798C9.09575 7.72054 10.0278 7.33388 11 7.33284ZM11 5.49967C9.9122 5.49967 8.84884 5.82224 7.94437 6.42659C7.0399 7.03094 6.33495 7.88992 5.91867 8.89491C5.50238 9.89991 5.39346 11.0058 5.60568 12.0727C5.8179 13.1396 6.34173 14.1196 7.11092 14.8888C7.8801 15.6579 8.86011 16.1818 9.92701 16.394C10.9939 16.6062 12.0998 16.4973 13.1048 16.081C14.1098 15.6647 14.9687 14.9598 15.5731 14.0553C16.1774 13.1508 16.5 12.0875 16.5 10.9997C16.5 9.54098 15.9205 8.14204 14.8891 7.11059C13.8576 6.07914 12.4587 5.49967 11 5.49967Z" fill="#252525"/>
<path d="M16.9582 6.4165C16.6862 6.4165 16.4204 6.33586 16.1943 6.18478C15.9681 6.03369 15.7919 5.81894 15.6878 5.56769C15.5838 5.31645 15.5565 5.03998 15.6096 4.77326C15.6626 4.50653 15.7936 4.26153 15.9859 4.06923C16.1782 3.87694 16.4232 3.74598 16.6899 3.69292C16.9566 3.63987 17.2331 3.6671 17.4844 3.77117C17.7356 3.87524 17.9504 4.05148 18.1014 4.2776C18.2525 4.50371 18.3332 4.76955 18.3332 5.0415C18.3336 5.22218 18.2983 5.40116 18.2293 5.56815C18.1603 5.73515 18.0591 5.88688 17.9313 6.01464C17.8036 6.1424 17.6518 6.24367 17.4848 6.31263C17.3178 6.38159 17.1388 6.41689 16.9582 6.4165ZM11 7.33284C11.7252 7.33284 12.4342 7.5479 13.0372 7.95082C13.6402 8.35373 14.1102 8.92641 14.3877 9.59644C14.6652 10.2665 14.7379 11.0037 14.5964 11.715C14.4549 12.4263 14.1057 13.0797 13.5928 13.5925C13.08 14.1053 12.4267 14.4546 11.7154 14.596C11.0041 14.7375 10.2668 14.6649 9.59677 14.3874C8.92674 14.1098 8.35406 13.6399 7.95114 13.0369C7.54823 12.4338 7.33317 11.7249 7.33317 10.9997C7.33421 10.0275 7.72087 9.09542 8.40831 8.40798C9.09575 7.72054 10.0278 7.33388 11 7.33284ZM11 5.49967C9.9122 5.49967 8.84884 5.82224 7.94437 6.42659C7.0399 7.03094 6.33495 7.88992 5.91867 8.89491C5.50238 9.89991 5.39346 11.0058 5.60568 12.0727C5.8179 13.1396 6.34173 14.1196 7.11092 14.8888C7.8801 15.6579 8.86011 16.1818 9.92701 16.394C10.9939 16.6062 12.0998 16.4973 13.1048 16.081C14.1098 15.6647 14.9687 14.9598 15.5731 14.0553C16.1774 13.1508 16.5 12.0875 16.5 10.9997C16.5 9.54098 15.9205 8.14204 14.8891 7.11059C13.8576 6.07914 12.4587 5.49967 11 5.49967Z" fill="#252525"/>
</svg>
