<svg width="149" height="38" viewBox="0 0 149 38" fill="none" xmlns="http://www.w3.org/2000/svg">
<path fill-rule="evenodd" clip-rule="evenodd" d="M39.7898 4.56713C39.7898 7.25368 37.8555 9.24172 35.1689 9.24172C32.3212 9.24172 30.3331 7.25368 30.3331 4.56713C30.3331 1.98804 32.3749 0 35.1689 0C37.9092 0 39.7898 1.98804 39.7898 4.56713ZM38.5002 36.752H31.6227C31.0316 36.752 30.5481 36.2684 30.5481 35.6773V13.1103C30.5481 12.5193 31.0316 12.0357 31.569 12.0357L38.4465 11.7671C39.0376 11.7671 39.5749 12.2507 39.5749 12.8417V35.6236C39.5749 36.2684 39.0913 36.752 38.5002 36.752ZM15.8795 36.752H1.47965C0.888608 36.752 0.405029 36.2684 0.405029 35.6774V4.29851C0.405029 3.70747 0.888608 3.22389 1.47965 3.22389H14.3213C22.2735 3.22389 26.0884 6.77013 26.0884 12.0358C26.0884 15.1522 24.5302 17.6775 22.2198 18.9133C22.1123 18.9671 22.1123 19.1282 22.2198 19.182C25.6586 20.4178 27.7003 23.2118 27.7003 26.9192C27.7003 32.6147 23.778 36.752 15.8795 36.752ZM13.5154 10.8H9.70048V16.5492H13.5154C15.8795 16.5492 17.0079 15.4208 17.0079 13.5402C17.0079 11.7671 15.8795 10.8 13.5154 10.8ZM14.8587 23.2655H9.64675V29.1759H14.8587C17.2228 29.1759 18.3512 27.9401 18.3512 26.0595C18.3512 24.3401 17.2228 23.2655 14.8587 23.2655ZM58.4882 19.9343C59.1329 20.0417 59.724 19.5581 59.724 18.9134L59.9926 12.5194C59.9926 11.9283 59.5628 11.4448 59.0255 11.391C58.8643 11.3373 58.7031 11.3373 58.5419 11.3373C56.3927 11.3373 54.5121 11.9821 52.4166 13.9164C52.2554 14.0239 52.0404 13.9164 52.0404 13.7552V12.8418C52.0404 12.2507 51.5031 11.7672 50.9121 11.7672L44.0345 12.0358C43.4972 12.0358 43.0136 12.5194 43.0136 13.1104V35.6774C43.0136 36.2685 43.4972 36.752 44.0883 36.752H51.0196C51.6106 36.752 52.0942 36.2685 52.0942 35.6774V21.1163C52.0942 20.9014 52.2016 20.7402 52.4166 20.6328C53.7061 20.0417 55.2643 19.7731 56.8225 19.7731C57.3598 19.7731 57.9509 19.8268 58.4882 19.9343ZM79.6582 19.6117H74.9299C74.8224 19.6117 74.7149 19.7192 74.7149 19.8266V26.3281C74.7149 27.9937 76.0045 29.337 77.6701 29.3908C78.3149 29.3908 78.9597 29.2833 79.5507 29.1221C80.1955 28.9072 80.894 29.3908 80.9477 30.0893L81.1627 35.3012C81.1627 35.731 80.9477 36.1609 80.5179 36.322C79.2283 36.9131 77.5089 37.2355 75.4672 37.2355C68.4821 37.2355 65.6344 33.6892 65.6344 27.5102V19.8266C65.6344 19.7192 65.5269 19.6117 65.4195 19.6117H63.4314C62.8404 19.6117 62.3568 19.1281 62.3568 18.5371V13.0028C62.3568 12.4118 62.8404 11.9282 63.4314 11.9282H65.4195C65.5269 11.9282 65.6344 11.8207 65.6344 11.7133V7.84465C65.6344 7.36107 66.0105 6.87749 66.4941 6.77003L73.3717 5.37302C74.0164 5.21183 74.6612 5.74914 74.6612 6.44764V11.7133C74.6612 11.8207 74.7687 11.9282 74.8761 11.9282H80.0343C80.6791 11.9282 81.1626 12.4655 81.1089 13.1103L80.6791 18.6983C80.6791 19.1819 80.1955 19.6117 79.6582 19.6117ZM101.204 36.752H108.082C108.673 36.752 109.156 36.2685 109.156 35.6237V2.04185C109.156 1.45081 108.619 0.967234 108.028 0.967234L101.151 1.23589C100.613 1.23589 100.13 1.71947 100.13 2.31051V11.6597C100.13 11.8746 99.9147 12.0358 99.6998 11.9821C98.6252 11.606 97.1744 11.391 95.8849 11.391C88.2014 11.391 83.4193 16.6567 83.4193 24.7163C83.4193 32.4536 88.47 37.3431 94.3267 37.3431C96.3685 37.3431 98.3565 36.752 99.9685 35.57C100.022 35.5162 100.13 35.5162 100.13 35.6237V35.6774C100.13 36.2685 100.613 36.752 101.204 36.752ZM92.7685 24.3939C92.7685 21.1701 94.273 19.0746 97.3894 19.0746C98.4103 19.0746 99.5923 19.2895 100.183 19.5044V28.7999C99.2162 29.3909 98.1953 29.6058 97.0133 29.6058C94.1118 29.6058 92.7685 27.4566 92.7685 24.3939ZM121.568 26.5969C121.461 26.5969 121.407 26.7044 121.461 26.7581C122.374 28.6387 124.47 29.4446 128.338 29.4446C130.111 29.4446 132.476 29.0685 134.356 28.4237C135.055 28.1551 135.753 28.6387 135.807 29.3909L136.022 34.764C136.022 35.1938 135.807 35.6237 135.431 35.7849C133.335 36.752 130.058 37.2894 127.694 37.2894C117.27 37.2894 111.95 32.2386 111.95 24.2327C111.95 16.388 117.431 11.3373 124.738 11.3373C131.455 11.3373 136.344 15.2597 136.344 22.5133C136.344 23.3193 136.291 24.5014 136.183 25.576C136.129 26.1133 135.646 26.5432 135.108 26.5432L121.568 26.5969ZM121.031 21.5999H127.962V20.9551C127.962 18.9134 126.78 17.6776 124.738 17.6776C122.643 17.7313 121.461 19.182 121.031 21.5999ZM143.974 9.24172C146.661 9.24172 148.595 7.25368 148.595 4.56713C148.595 1.98804 146.714 0 143.974 0C141.18 0 139.138 1.98804 139.138 4.56713C139.138 7.25368 141.126 9.24172 143.974 9.24172ZM140.428 36.752H147.305C147.896 36.752 148.38 36.2684 148.38 35.6236V12.8417C148.38 12.2507 147.843 11.7671 147.252 11.7671L140.374 12.0357C139.837 12.0357 139.353 12.5193 139.353 13.1103V35.6773C139.353 36.2684 139.837 36.752 140.428 36.752Z" fill="#FD3D24"/>
</svg>
