<svg width="174" height="174" viewBox="0 0 174 174" fill="none" xmlns="http://www.w3.org/2000/svg">
<g clip-path="url(#clip0_2047_329)">
<rect x="0.363037" y="0.959229" width="173" height="173" rx="11.6107" fill="white"/>
<path d="M173.363 0.959229H0.363037V173.959H173.363V0.959229Z" fill="white"/>
<path d="M58.187 11.4441H52.7873V16.8438H58.187V11.4441Z" fill="#252525"/>
<path d="M68.6719 11.4441H63.2722V16.8438H68.6719V11.4441Z" fill="#252525"/>
<path d="M100.126 11.4441H94.7267V16.8438H100.126V11.4441Z" fill="#252525"/>
<path d="M105.369 11.4441H99.9691V16.8438H105.369V11.4441Z" fill="#252525"/>
<path d="M110.611 11.4441H105.212V16.8438H110.611V11.4441Z" fill="#252525"/>
<path d="M121.096 11.4441H115.696V16.8438H121.096V11.4441Z" fill="#252525"/>
<path d="M58.187 16.6864H52.7873V22.0861H58.187V16.6864Z" fill="#252525"/>
<path d="M63.4294 16.6864H58.0297V22.0861H63.4294V16.6864Z" fill="#252525"/>
<path d="M68.6719 16.6864H63.2722V22.0861H68.6719V16.6864Z" fill="#252525"/>
<path d="M73.9142 16.6864H68.5145V22.0861H73.9142V16.6864Z" fill="#252525"/>
<path d="M79.1566 16.6864H73.7569V22.0861H79.1566V16.6864Z" fill="#252525"/>
<path d="M89.6415 16.6864H84.2418V22.0861H89.6415V16.6864Z" fill="#252525"/>
<path d="M94.8839 16.6864H89.4843V22.0861H94.8839V16.6864Z" fill="#252525"/>
<path d="M100.126 16.6864H94.7267V22.0861H100.126V16.6864Z" fill="#252525"/>
<path d="M105.369 16.6864H99.9691V22.0861H105.369V16.6864Z" fill="#252525"/>
<path d="M115.854 16.6864H110.454V22.0861H115.854V16.6864Z" fill="#252525"/>
<path d="M58.187 21.929H52.7873V27.3287H58.187V21.929Z" fill="#252525"/>
<path d="M73.9142 21.929H68.5145V27.3287H73.9142V21.929Z" fill="#252525"/>
<path d="M110.611 21.929H105.212V27.3287H110.611V21.929Z" fill="#252525"/>
<path d="M115.854 21.929H110.454V27.3287H115.854V21.929Z" fill="#252525"/>
<path d="M121.096 21.929H115.696V27.3287H121.096V21.929Z" fill="#252525"/>
<path d="M68.6719 27.1714H63.2722V32.5711H68.6719V27.1714Z" fill="#252525"/>
<path d="M73.9142 27.1714H68.5145V32.5711H73.9142V27.1714Z" fill="#252525"/>
<path d="M84.3991 27.1714H78.9994V32.5711H84.3991V27.1714Z" fill="#252525"/>
<path d="M89.6415 27.1714H84.2418V32.5711H89.6415V27.1714Z" fill="#252525"/>
<path d="M100.126 27.1714H94.7267V32.5711H100.126V27.1714Z" fill="#252525"/>
<path d="M105.369 27.1714H99.9691V32.5711H105.369V27.1714Z" fill="#252525"/>
<path d="M115.854 27.1714H110.454V32.5711H115.854V27.1714Z" fill="#252525"/>
<path d="M68.6719 32.4138H63.2722V37.8135H68.6719V32.4138Z" fill="#252525"/>
<path d="M73.9142 32.4138H68.5145V37.8135H73.9142V32.4138Z" fill="#252525"/>
<path d="M79.1566 32.4138H73.7569V37.8135H79.1566V32.4138Z" fill="#252525"/>
<path d="M84.3991 32.4138H78.9994V37.8135H84.3991V32.4138Z" fill="#252525"/>
<path d="M100.126 32.4138H94.7267V37.8135H100.126V32.4138Z" fill="#252525"/>
<path d="M110.611 32.4138H105.212V37.8135H110.611V32.4138Z" fill="#252525"/>
<path d="M115.854 32.4138H110.454V37.8135H115.854V32.4138Z" fill="#252525"/>
<path d="M58.187 37.6562H52.7873V43.0559H58.187V37.6562Z" fill="#252525"/>
<path d="M68.6719 37.6562H63.2722V43.0559H68.6719V37.6562Z" fill="#252525"/>
<path d="M79.1566 37.6562H73.7569V43.0559H79.1566V37.6562Z" fill="#252525"/>
<path d="M94.8839 37.6562H89.4843V43.0559H94.8839V37.6562Z" fill="#252525"/>
<path d="M100.126 37.6562H94.7267V43.0559H100.126V37.6562Z" fill="#252525"/>
<path d="M110.611 37.6562H105.212V43.0559H110.611V37.6562Z" fill="#252525"/>
<path d="M58.187 42.8987H52.7873V48.2984H58.187V42.8987Z" fill="#252525"/>
<path d="M68.6719 42.8987H63.2722V48.2984H68.6719V42.8987Z" fill="#252525"/>
<path d="M79.1566 42.8987H73.7569V48.2984H79.1566V42.8987Z" fill="#252525"/>
<path d="M89.6415 42.8987H84.2418V48.2984H89.6415V42.8987Z" fill="#252525"/>
<path d="M100.126 42.8987H94.7267V48.2984H100.126V42.8987Z" fill="#252525"/>
<path d="M110.611 42.8987H105.212V48.2984H110.611V42.8987Z" fill="#252525"/>
<path d="M121.096 42.8987H115.696V48.2984H121.096V42.8987Z" fill="#252525"/>
<path d="M58.187 48.1411H52.7873V53.5408H58.187V48.1411Z" fill="#252525"/>
<path d="M63.4294 48.1411H58.0297V53.5408H63.4294V48.1411Z" fill="#252525"/>
<path d="M68.6719 48.1411H63.2722V53.5408H68.6719V48.1411Z" fill="#252525"/>
<path d="M73.9142 48.1411H68.5145V53.5408H73.9142V48.1411Z" fill="#252525"/>
<path d="M79.1566 48.1411H73.7569V53.5408H79.1566V48.1411Z" fill="#252525"/>
<path d="M84.3991 48.1411H78.9994V53.5408H84.3991V48.1411Z" fill="#252525"/>
<path d="M89.6415 48.1411H84.2418V53.5408H89.6415V48.1411Z" fill="#252525"/>
<path d="M94.8839 48.1411H89.4843V53.5408H94.8839V48.1411Z" fill="#252525"/>
<path d="M100.126 48.1411H94.7267V53.5408H100.126V48.1411Z" fill="#252525"/>
<path d="M115.854 48.1411H110.454V53.5408H115.854V48.1411Z" fill="#252525"/>
<path d="M26.7325 53.3837H21.3328V58.7834H26.7325V53.3837Z" fill="#252525"/>
<path d="M31.9748 53.3837H26.5751V58.7834H31.9748V53.3837Z" fill="#252525"/>
<path d="M37.2173 53.3837H31.8176V58.7834H37.2173V53.3837Z" fill="#252525"/>
<path d="M47.7021 53.3837H42.3024V58.7834H47.7021V53.3837Z" fill="#252525"/>
<path d="M58.187 53.3837H52.7873V58.7834H58.187V53.3837Z" fill="#252525"/>
<path d="M79.1566 53.3837H73.7569V58.7834H79.1566V53.3837Z" fill="#252525"/>
<path d="M89.6415 53.3837H84.2418V58.7834H89.6415V53.3837Z" fill="#252525"/>
<path d="M94.8839 53.3837H89.4843V58.7834H94.8839V53.3837Z" fill="#252525"/>
<path d="M100.126 53.3837H94.7267V58.7834H100.126V53.3837Z" fill="#252525"/>
<path d="M110.611 53.3837H105.212V58.7834H110.611V53.3837Z" fill="#252525"/>
<path d="M126.338 53.3837H120.939V58.7834H126.338V53.3837Z" fill="#252525"/>
<path d="M131.581 53.3837H126.181V58.7834H131.581V53.3837Z" fill="#252525"/>
<path d="M136.823 53.3837H131.424V58.7834H136.823V53.3837Z" fill="#252525"/>
<path d="M152.551 53.3837H147.151V58.7834H152.551V53.3837Z" fill="#252525"/>
<path d="M157.793 53.3837H152.393V58.7834H157.793V53.3837Z" fill="#252525"/>
<path d="M163.035 53.3837H157.636V58.7834H163.035V53.3837Z" fill="#252525"/>
<path d="M21.49 58.626H16.0903V64.0257H21.49V58.626Z" fill="#252525"/>
<path d="M26.7325 58.626H21.3328V64.0257H26.7325V58.626Z" fill="#252525"/>
<path d="M42.4597 58.626H37.06V64.0257H42.4597V58.626Z" fill="#252525"/>
<path d="M52.9445 58.626H47.5448V64.0257H52.9445V58.626Z" fill="#252525"/>
<path d="M63.4294 58.626H58.0297V64.0257H63.4294V58.626Z" fill="#252525"/>
<path d="M68.6719 58.626H63.2722V64.0257H68.6719V58.626Z" fill="#252525"/>
<path d="M73.9142 58.626H68.5145V64.0257H73.9142V58.626Z" fill="#252525"/>
<path d="M89.6415 58.626H84.2418V64.0257H89.6415V58.626Z" fill="#252525"/>
<path d="M94.8839 58.626H89.4843V64.0257H94.8839V58.626Z" fill="#252525"/>
<path d="M105.369 58.626H99.9691V64.0257H105.369V58.626Z" fill="#252525"/>
<path d="M136.823 58.626H131.424V64.0257H136.823V58.626Z" fill="#252525"/>
<path d="M142.066 58.626H136.666V64.0257H142.066V58.626Z" fill="#252525"/>
<path d="M147.308 58.626H141.908V64.0257H147.308V58.626Z" fill="#252525"/>
<path d="M152.551 58.626H147.151V64.0257H152.551V58.626Z" fill="#252525"/>
<path d="M163.035 58.626H157.636V64.0257H163.035V58.626Z" fill="#252525"/>
<path d="M21.49 63.8684H16.0903V69.2681H21.49V63.8684Z" fill="#252525"/>
<path d="M37.2173 63.8684H31.8176V69.2681H37.2173V63.8684Z" fill="#252525"/>
<path d="M42.4597 63.8684H37.06V69.2681H42.4597V63.8684Z" fill="#252525"/>
<path d="M47.7021 63.8684H42.3024V69.2681H47.7021V63.8684Z" fill="#252525"/>
<path d="M52.9445 63.8684H47.5448V69.2681H52.9445V63.8684Z" fill="#252525"/>
<path d="M58.187 63.8684H52.7873V69.2681H58.187V63.8684Z" fill="#252525"/>
<path d="M68.6719 63.8684H63.2722V69.2681H68.6719V63.8684Z" fill="#252525"/>
<path d="M84.3991 63.8684H78.9994V69.2681H84.3991V63.8684Z" fill="#252525"/>
<path d="M89.6415 63.8684H84.2418V69.2681H89.6415V63.8684Z" fill="#252525"/>
<path d="M94.8839 63.8684H89.4843V69.2681H94.8839V63.8684Z" fill="#252525"/>
<path d="M121.096 63.8684H115.696V69.2681H121.096V63.8684Z" fill="#252525"/>
<path d="M126.338 63.8684H120.939V69.2681H126.338V63.8684Z" fill="#252525"/>
<path d="M131.581 63.8684H126.181V69.2681H131.581V63.8684Z" fill="#252525"/>
<path d="M136.823 63.8684H131.424V69.2681H136.823V63.8684Z" fill="#252525"/>
<path d="M142.066 63.8684H136.666V69.2681H142.066V63.8684Z" fill="#252525"/>
<path d="M152.551 63.8684H147.151V69.2681H152.551V63.8684Z" fill="#252525"/>
<path d="M26.7325 69.1108H21.3328V74.5105H26.7325V69.1108Z" fill="#252525"/>
<path d="M31.9748 69.1108H26.5751V74.5105H31.9748V69.1108Z" fill="#252525"/>
<path d="M52.9445 69.1108H47.5448V74.5105H52.9445V69.1108Z" fill="#252525"/>
<path d="M63.4294 69.1108H58.0297V74.5105H63.4294V69.1108Z" fill="#252525"/>
<path d="M68.6719 69.1108H63.2722V74.5105H68.6719V69.1108Z" fill="#252525"/>
<path d="M79.1566 69.1108H73.7569V74.5105H79.1566V69.1108Z" fill="#252525"/>
<path d="M100.126 69.1108H94.7267V74.5105H100.126V69.1108Z" fill="#252525"/>
<path d="M105.369 69.1108H99.9691V74.5105H105.369V69.1108Z" fill="#252525"/>
<path d="M126.338 69.1108H120.939V74.5105H126.338V69.1108Z" fill="#252525"/>
<path d="M131.581 69.1108H126.181V74.5105H131.581V69.1108Z" fill="#252525"/>
<path d="M136.823 69.1108H131.424V74.5105H136.823V69.1108Z" fill="#252525"/>
<path d="M142.066 69.1108H136.666V74.5105H142.066V69.1108Z" fill="#252525"/>
<path d="M147.308 69.1108H141.908V74.5105H147.308V69.1108Z" fill="#252525"/>
<path d="M157.793 69.1108H152.393V74.5105H157.793V69.1108Z" fill="#252525"/>
<path d="M21.49 74.3533H16.0903V79.753H21.49V74.3533Z" fill="#252525"/>
<path d="M31.9748 74.3533H26.5751V79.753H31.9748V74.3533Z" fill="#252525"/>
<path d="M37.2173 74.3533H31.8176V79.753H37.2173V74.3533Z" fill="#252525"/>
<path d="M42.4597 74.3533H37.06V79.753H42.4597V74.3533Z" fill="#252525"/>
<path d="M47.7021 74.3533H42.3024V79.753H47.7021V74.3533Z" fill="#252525"/>
<path d="M58.187 74.3533H52.7873V79.753H58.187V74.3533Z" fill="#252525"/>
<path d="M73.9142 74.3533H68.5145V79.753H73.9142V74.3533Z" fill="#252525"/>
<path d="M84.3991 74.3533H78.9994V79.753H84.3991V74.3533Z" fill="#252525"/>
<path d="M89.6415 74.3533H84.2418V79.753H89.6415V74.3533Z" fill="#252525"/>
<path d="M94.8839 74.3533H89.4843V79.753H94.8839V74.3533Z" fill="#252525"/>
<path d="M100.126 74.3533H94.7267V79.753H100.126V74.3533Z" fill="#252525"/>
<path d="M121.096 74.3533H115.696V79.753H121.096V74.3533Z" fill="#252525"/>
<path d="M126.338 74.3533H120.939V79.753H126.338V74.3533Z" fill="#252525"/>
<path d="M136.823 74.3533H131.424V79.753H136.823V74.3533Z" fill="#252525"/>
<path d="M152.551 74.3533H147.151V79.753H152.551V74.3533Z" fill="#252525"/>
<path d="M157.793 74.3533H152.393V79.753H157.793V74.3533Z" fill="#252525"/>
<path d="M163.035 74.3533H157.636V79.753H163.035V74.3533Z" fill="#252525"/>
<path d="M26.7325 79.5957H21.3328V84.9954H26.7325V79.5957Z" fill="#252525"/>
<path d="M31.9748 79.5957H26.5751V84.9954H31.9748V79.5957Z" fill="#252525"/>
<path d="M42.4597 79.5957H37.06V84.9954H42.4597V79.5957Z" fill="#252525"/>
<path d="M52.9445 79.5957H47.5448V84.9954H52.9445V79.5957Z" fill="#252525"/>
<path d="M63.4294 79.5957H58.0297V84.9954H63.4294V79.5957Z" fill="#252525"/>
<path d="M68.6719 79.5957H63.2722V84.9954H68.6719V79.5957Z" fill="#252525"/>
<path d="M79.1566 79.5957H73.7569V84.9954H79.1566V79.5957Z" fill="#252525"/>
<path d="M84.3991 79.5957H78.9994V84.9954H84.3991V79.5957Z" fill="#252525"/>
<path d="M94.8839 79.5957H89.4843V84.9954H94.8839V79.5957Z" fill="#252525"/>
<path d="M105.369 79.5957H99.9691V84.9954H105.369V79.5957Z" fill="#252525"/>
<path d="M110.611 79.5957H105.212V84.9954H110.611V79.5957Z" fill="#252525"/>
<path d="M115.854 79.5957H110.454V84.9954H115.854V79.5957Z" fill="#252525"/>
<path d="M121.096 79.5957H115.696V84.9954H121.096V79.5957Z" fill="#252525"/>
<path d="M126.338 79.5957H120.939V84.9954H126.338V79.5957Z" fill="#252525"/>
<path d="M131.581 79.5957H126.181V84.9954H131.581V79.5957Z" fill="#252525"/>
<path d="M142.066 79.5957H136.666V84.9954H142.066V79.5957Z" fill="#252525"/>
<path d="M147.308 79.5957H141.908V84.9954H147.308V79.5957Z" fill="#252525"/>
<path d="M157.793 79.5957H152.393V84.9954H157.793V79.5957Z" fill="#252525"/>
<path d="M163.035 79.5957H157.636V84.9954H163.035V79.5957Z" fill="#252525"/>
<path d="M21.49 84.8381H16.0903V90.2378H21.49V84.8381Z" fill="#252525"/>
<path d="M37.2173 84.8381H31.8176V90.2378H37.2173V84.8381Z" fill="#252525"/>
<path d="M42.4597 84.8381H37.06V90.2378H42.4597V84.8381Z" fill="#252525"/>
<path d="M47.7021 84.8381H42.3024V90.2378H47.7021V84.8381Z" fill="#252525"/>
<path d="M58.187 84.8381H52.7873V90.2378H58.187V84.8381Z" fill="#252525"/>
<path d="M68.6719 84.8381H63.2722V90.2378H68.6719V84.8381Z" fill="#252525"/>
<path d="M79.1566 84.8381H73.7569V90.2378H79.1566V84.8381Z" fill="#252525"/>
<path d="M89.6415 84.8381H84.2418V90.2378H89.6415V84.8381Z" fill="#252525"/>
<path d="M121.096 84.8381H115.696V90.2378H121.096V84.8381Z" fill="#252525"/>
<path d="M136.823 84.8381H131.424V90.2378H136.823V84.8381Z" fill="#252525"/>
<path d="M16.2476 90.0803H10.8479V95.48H16.2476V90.0803Z" fill="#252525"/>
<path d="M21.49 90.0803H16.0903V95.48H21.49V90.0803Z" fill="#252525"/>
<path d="M26.7325 90.0803H21.3328V95.48H26.7325V90.0803Z" fill="#252525"/>
<path d="M42.4597 90.0803H37.06V95.48H42.4597V90.0803Z" fill="#252525"/>
<path d="M52.9445 90.0803H47.5448V95.48H52.9445V90.0803Z" fill="#252525"/>
<path d="M58.187 90.0803H52.7873V95.48H58.187V90.0803Z" fill="#252525"/>
<path d="M68.6719 90.0803H63.2722V95.48H68.6719V90.0803Z" fill="#252525"/>
<path d="M79.1566 90.0803H73.7569V95.48H79.1566V90.0803Z" fill="#252525"/>
<path d="M89.6415 90.0803H84.2418V95.48H89.6415V90.0803Z" fill="#252525"/>
<path d="M94.8839 90.0803H89.4843V95.48H94.8839V90.0803Z" fill="#252525"/>
<path d="M131.581 90.0803H126.181V95.48H131.581V90.0803Z" fill="#252525"/>
<path d="M142.066 90.0803H136.666V95.48H142.066V90.0803Z" fill="#252525"/>
<path d="M147.308 90.0803H141.908V95.48H147.308V90.0803Z" fill="#252525"/>
<path d="M16.2476 95.3228H10.8479V100.722H16.2476V95.3228Z" fill="#252525"/>
<path d="M26.7325 95.3228H21.3328V100.722H26.7325V95.3228Z" fill="#252525"/>
<path d="M37.2173 95.3228H31.8176V100.722H37.2173V95.3228Z" fill="#252525"/>
<path d="M42.4597 95.3228H37.06V100.722H42.4597V95.3228Z" fill="#252525"/>
<path d="M47.7021 95.3228H42.3024V100.722H47.7021V95.3228Z" fill="#252525"/>
<path d="M52.9445 95.3228H47.5448V100.722H52.9445V95.3228Z" fill="#252525"/>
<path d="M58.187 95.3228H52.7873V100.722H58.187V95.3228Z" fill="#252525"/>
<path d="M63.4294 95.3228H58.0297V100.722H63.4294V95.3228Z" fill="#252525"/>
<path d="M73.9142 95.3228H68.5145V100.722H73.9142V95.3228Z" fill="#252525"/>
<path d="M79.1566 95.3228H73.7569V100.722H79.1566V95.3228Z" fill="#252525"/>
<path d="M100.126 95.3228H94.7267V100.722H100.126V95.3228Z" fill="#252525"/>
<path d="M105.369 95.3228H99.9691V100.722H105.369V95.3228Z" fill="#252525"/>
<path d="M110.611 95.3228H105.212V100.722H110.611V95.3228Z" fill="#252525"/>
<path d="M136.823 95.3228H131.424V100.722H136.823V95.3228Z" fill="#252525"/>
<path d="M147.308 95.3228H141.908V100.722H147.308V95.3228Z" fill="#252525"/>
<path d="M152.551 95.3228H147.151V100.722H152.551V95.3228Z" fill="#252525"/>
<path d="M157.793 95.3228H152.393V100.722H157.793V95.3228Z" fill="#252525"/>
<path d="M163.035 95.3228H157.636V100.722H163.035V95.3228Z" fill="#252525"/>
<path d="M16.2476 100.565H10.8479V105.965H16.2476V100.565Z" fill="#252525"/>
<path d="M26.7325 100.565H21.3328V105.965H26.7325V100.565Z" fill="#252525"/>
<path d="M31.9748 100.565H26.5751V105.965H31.9748V100.565Z" fill="#252525"/>
<path d="M37.2173 100.565H31.8176V105.965H37.2173V100.565Z" fill="#252525"/>
<path d="M52.9445 100.565H47.5448V105.965H52.9445V100.565Z" fill="#252525"/>
<path d="M73.9142 100.565H68.5145V105.965H73.9142V100.565Z" fill="#252525"/>
<path d="M110.611 100.565H105.212V105.965H110.611V100.565Z" fill="#252525"/>
<path d="M121.096 100.565H115.696V105.965H121.096V100.565Z" fill="#252525"/>
<path d="M126.338 100.565H120.939V105.965H126.338V100.565Z" fill="#252525"/>
<path d="M136.823 100.565H131.424V105.965H136.823V100.565Z" fill="#252525"/>
<path d="M142.066 100.565H136.666V105.965H142.066V100.565Z" fill="#252525"/>
<path d="M152.551 100.565H147.151V105.965H152.551V100.565Z" fill="#252525"/>
<path d="M157.793 100.565H152.393V105.965H157.793V100.565Z" fill="#252525"/>
<path d="M163.035 100.565H157.636V105.965H163.035V100.565Z" fill="#252525"/>
<path d="M16.2476 105.808H10.8479V111.207H16.2476V105.808Z" fill="#252525"/>
<path d="M31.9748 105.808H26.5751V111.207H31.9748V105.808Z" fill="#252525"/>
<path d="M37.2173 105.808H31.8176V111.207H37.2173V105.808Z" fill="#252525"/>
<path d="M42.4597 105.808H37.06V111.207H42.4597V105.808Z" fill="#252525"/>
<path d="M47.7021 105.808H42.3024V111.207H47.7021V105.808Z" fill="#252525"/>
<path d="M58.187 105.808H52.7873V111.207H58.187V105.808Z" fill="#252525"/>
<path d="M63.4294 105.808H58.0297V111.207H63.4294V105.808Z" fill="#252525"/>
<path d="M73.9142 105.808H68.5145V111.207H73.9142V105.808Z" fill="#252525"/>
<path d="M79.1566 105.808H73.7569V111.207H79.1566V105.808Z" fill="#252525"/>
<path d="M84.3991 105.808H78.9994V111.207H84.3991V105.808Z" fill="#252525"/>
<path d="M100.126 105.808H94.7267V111.207H100.126V105.808Z" fill="#252525"/>
<path d="M110.611 105.808H105.212V111.207H110.611V105.808Z" fill="#252525"/>
<path d="M121.096 105.808H115.696V111.207H121.096V105.808Z" fill="#252525"/>
<path d="M131.581 105.808H126.181V111.207H131.581V105.808Z" fill="#252525"/>
<path d="M142.066 105.808H136.666V111.207H142.066V105.808Z" fill="#252525"/>
<path d="M147.308 105.808H141.908V111.207H147.308V105.808Z" fill="#252525"/>
<path d="M152.551 105.808H147.151V111.207H152.551V105.808Z" fill="#252525"/>
<path d="M16.2476 111.05H10.8479V116.45H16.2476V111.05Z" fill="#252525"/>
<path d="M31.9748 111.05H26.5751V116.45H31.9748V111.05Z" fill="#252525"/>
<path d="M37.2173 111.05H31.8176V116.45H37.2173V111.05Z" fill="#252525"/>
<path d="M68.6719 111.05H63.2722V116.45H68.6719V111.05Z" fill="#252525"/>
<path d="M79.1566 111.05H73.7569V116.45H79.1566V111.05Z" fill="#252525"/>
<path d="M84.3991 111.05H78.9994V116.45H84.3991V111.05Z" fill="#252525"/>
<path d="M89.6415 111.05H84.2418V116.45H89.6415V111.05Z" fill="#252525"/>
<path d="M121.096 111.05H115.696V116.45H121.096V111.05Z" fill="#252525"/>
<path d="M131.581 111.05H126.181V116.45H131.581V111.05Z" fill="#252525"/>
<path d="M136.823 111.05H131.424V116.45H136.823V111.05Z" fill="#252525"/>
<path d="M142.066 111.05H136.666V116.45H142.066V111.05Z" fill="#252525"/>
<path d="M157.793 111.05H152.393V116.45H157.793V111.05Z" fill="#252525"/>
<path d="M163.035 111.05H157.636V116.45H163.035V111.05Z" fill="#252525"/>
<path d="M16.2476 116.292H10.8479V121.692H16.2476V116.292Z" fill="#252525"/>
<path d="M26.7325 116.292H21.3328V121.692H26.7325V116.292Z" fill="#252525"/>
<path d="M31.9748 116.292H26.5751V121.692H31.9748V116.292Z" fill="#252525"/>
<path d="M42.4597 116.292H37.06V121.692H42.4597V116.292Z" fill="#252525"/>
<path d="M47.7021 116.292H42.3024V121.692H47.7021V116.292Z" fill="#252525"/>
<path d="M52.9445 116.292H47.5448V121.692H52.9445V116.292Z" fill="#252525"/>
<path d="M58.187 116.292H52.7873V121.692H58.187V116.292Z" fill="#252525"/>
<path d="M79.1566 116.292H73.7569V121.692H79.1566V116.292Z" fill="#252525"/>
<path d="M89.6415 116.292H84.2418V121.692H89.6415V116.292Z" fill="#252525"/>
<path d="M94.8839 116.292H89.4843V121.692H94.8839V116.292Z" fill="#252525"/>
<path d="M100.126 116.292H94.7267V121.692H100.126V116.292Z" fill="#252525"/>
<path d="M121.096 116.292H115.696V121.692H121.096V116.292Z" fill="#252525"/>
<path d="M126.338 116.292H120.939V121.692H126.338V116.292Z" fill="#252525"/>
<path d="M131.581 116.292H126.181V121.692H131.581V116.292Z" fill="#252525"/>
<path d="M136.823 116.292H131.424V121.692H136.823V116.292Z" fill="#252525"/>
<path d="M142.066 116.292H136.666V121.692H142.066V116.292Z" fill="#252525"/>
<path d="M152.551 116.292H147.151V121.692H152.551V116.292Z" fill="#252525"/>
<path d="M58.187 121.535H52.7873V126.934H58.187V121.535Z" fill="#252525"/>
<path d="M68.6719 121.535H63.2722V126.934H68.6719V121.535Z" fill="#252525"/>
<path d="M73.9142 121.535H68.5145V126.934H73.9142V121.535Z" fill="#252525"/>
<path d="M79.1566 121.535H73.7569V126.934H79.1566V121.535Z" fill="#252525"/>
<path d="M84.3991 121.535H78.9994V126.934H84.3991V121.535Z" fill="#252525"/>
<path d="M89.6415 121.535H84.2418V126.934H89.6415V121.535Z" fill="#252525"/>
<path d="M94.8839 121.535H89.4843V126.934H94.8839V121.535Z" fill="#252525"/>
<path d="M105.369 121.535H99.9691V126.934H105.369V121.535Z" fill="#252525"/>
<path d="M110.611 121.535H105.212V126.934H110.611V121.535Z" fill="#252525"/>
<path d="M115.854 121.535H110.454V126.934H115.854V121.535Z" fill="#252525"/>
<path d="M121.096 121.535H115.696V126.934H121.096V121.535Z" fill="#252525"/>
<path d="M142.066 121.535H136.666V126.934H142.066V121.535Z" fill="#252525"/>
<path d="M147.308 121.535H141.908V126.934H147.308V121.535Z" fill="#252525"/>
<path d="M157.793 121.535H152.393V126.934H157.793V121.535Z" fill="#252525"/>
<path d="M163.035 121.535H157.636V126.934H163.035V121.535Z" fill="#252525"/>
<path d="M63.4294 126.777H58.0297V132.177H63.4294V126.777Z" fill="#252525"/>
<path d="M68.6719 126.777H63.2722V132.177H68.6719V126.777Z" fill="#252525"/>
<path d="M73.9142 126.777H68.5145V132.177H73.9142V126.777Z" fill="#252525"/>
<path d="M84.3991 126.777H78.9994V132.177H84.3991V126.777Z" fill="#252525"/>
<path d="M94.8839 126.777H89.4843V132.177H94.8839V126.777Z" fill="#252525"/>
<path d="M105.369 126.777H99.9691V132.177H105.369V126.777Z" fill="#252525"/>
<path d="M110.611 126.777H105.212V132.177H110.611V126.777Z" fill="#252525"/>
<path d="M115.854 126.777H110.454V132.177H115.854V126.777Z" fill="#252525"/>
<path d="M121.096 126.777H115.696V132.177H121.096V126.777Z" fill="#252525"/>
<path d="M131.581 126.777H126.181V132.177H131.581V126.777Z" fill="#252525"/>
<path d="M142.066 126.777H136.666V132.177H142.066V126.777Z" fill="#252525"/>
<path d="M63.4294 132.02H58.0297V137.419H63.4294V132.02Z" fill="#252525"/>
<path d="M89.6415 132.02H84.2418V137.419H89.6415V132.02Z" fill="#252525"/>
<path d="M94.8839 132.02H89.4843V137.419H94.8839V132.02Z" fill="#252525"/>
<path d="M105.369 132.02H99.9691V137.419H105.369V132.02Z" fill="#252525"/>
<path d="M115.854 132.02H110.454V137.419H115.854V132.02Z" fill="#252525"/>
<path d="M121.096 132.02H115.696V137.419H121.096V132.02Z" fill="#252525"/>
<path d="M142.066 132.02H136.666V137.419H142.066V132.02Z" fill="#252525"/>
<path d="M147.308 132.02H141.908V137.419H147.308V132.02Z" fill="#252525"/>
<path d="M157.793 132.02H152.393V137.419H157.793V132.02Z" fill="#252525"/>
<path d="M58.187 137.262H52.7873V142.662H58.187V137.262Z" fill="#252525"/>
<path d="M68.6719 137.262H63.2722V142.662H68.6719V137.262Z" fill="#252525"/>
<path d="M79.1566 137.262H73.7569V142.662H79.1566V137.262Z" fill="#252525"/>
<path d="M94.8839 137.262H89.4843V142.662H94.8839V137.262Z" fill="#252525"/>
<path d="M121.096 137.262H115.696V142.662H121.096V137.262Z" fill="#252525"/>
<path d="M126.338 137.262H120.939V142.662H126.338V137.262Z" fill="#252525"/>
<path d="M131.581 137.262H126.181V142.662H131.581V137.262Z" fill="#252525"/>
<path d="M136.823 137.262H131.424V142.662H136.823V137.262Z" fill="#252525"/>
<path d="M142.066 137.262H136.666V142.662H142.066V137.262Z" fill="#252525"/>
<path d="M147.308 137.262H141.908V142.662H147.308V137.262Z" fill="#252525"/>
<path d="M152.551 137.262H147.151V142.662H152.551V137.262Z" fill="#252525"/>
<path d="M163.035 137.262H157.636V142.662H163.035V137.262Z" fill="#252525"/>
<path d="M58.187 142.505H52.7873V147.904H58.187V142.505Z" fill="#252525"/>
<path d="M63.4294 142.505H58.0297V147.904H63.4294V142.505Z" fill="#252525"/>
<path d="M68.6719 142.505H63.2722V147.904H68.6719V142.505Z" fill="#252525"/>
<path d="M73.9142 142.505H68.5145V147.904H73.9142V142.505Z" fill="#252525"/>
<path d="M89.6415 142.505H84.2418V147.904H89.6415V142.505Z" fill="#252525"/>
<path d="M100.126 142.505H94.7267V147.904H100.126V142.505Z" fill="#252525"/>
<path d="M110.611 142.505H105.212V147.904H110.611V142.505Z" fill="#252525"/>
<path d="M115.854 142.505H110.454V147.904H115.854V142.505Z" fill="#252525"/>
<path d="M121.096 142.505H115.696V147.904H121.096V142.505Z" fill="#252525"/>
<path d="M126.338 142.505H120.939V147.904H126.338V142.505Z" fill="#252525"/>
<path d="M136.823 142.505H131.424V147.904H136.823V142.505Z" fill="#252525"/>
<path d="M147.308 142.505H141.908V147.904H147.308V142.505Z" fill="#252525"/>
<path d="M152.551 142.505H147.151V147.904H152.551V142.505Z" fill="#252525"/>
<path d="M58.187 147.747H52.7873V153.147H58.187V147.747Z" fill="#252525"/>
<path d="M63.4294 147.747H58.0297V153.147H63.4294V147.747Z" fill="#252525"/>
<path d="M79.1566 147.747H73.7569V153.147H79.1566V147.747Z" fill="#252525"/>
<path d="M89.6415 147.747H84.2418V153.147H89.6415V147.747Z" fill="#252525"/>
<path d="M94.8839 147.747H89.4843V153.147H94.8839V147.747Z" fill="#252525"/>
<path d="M100.126 147.747H94.7267V153.147H100.126V147.747Z" fill="#252525"/>
<path d="M110.611 147.747H105.212V153.147H110.611V147.747Z" fill="#252525"/>
<path d="M115.854 147.747H110.454V153.147H115.854V147.747Z" fill="#252525"/>
<path d="M121.096 147.747H115.696V153.147H121.096V147.747Z" fill="#252525"/>
<path d="M126.338 147.747H120.939V153.147H126.338V147.747Z" fill="#252525"/>
<path d="M131.581 147.747H126.181V153.147H131.581V147.747Z" fill="#252525"/>
<path d="M136.823 147.747H131.424V153.147H136.823V147.747Z" fill="#252525"/>
<path d="M142.066 147.747H136.666V153.147H142.066V147.747Z" fill="#252525"/>
<path d="M147.308 147.747H141.908V153.147H147.308V147.747Z" fill="#252525"/>
<path d="M152.551 147.747H147.151V153.147H152.551V147.747Z" fill="#252525"/>
<path d="M157.793 147.747H152.393V153.147H157.793V147.747Z" fill="#252525"/>
<path d="M68.6719 152.99H63.2722V158.389H68.6719V152.99Z" fill="#252525"/>
<path d="M73.9142 152.99H68.5145V158.389H73.9142V152.99Z" fill="#252525"/>
<path d="M84.3991 152.99H78.9994V158.389H84.3991V152.99Z" fill="#252525"/>
<path d="M89.6415 152.99H84.2418V158.389H89.6415V152.99Z" fill="#252525"/>
<path d="M100.126 152.99H94.7267V158.389H100.126V152.99Z" fill="#252525"/>
<path d="M115.854 152.99H110.454V158.389H115.854V152.99Z" fill="#252525"/>
<path d="M121.096 152.99H115.696V158.389H121.096V152.99Z" fill="#252525"/>
<path d="M142.066 152.99H136.666V158.389H142.066V152.99Z" fill="#252525"/>
<path d="M147.308 152.99H141.908V158.389H147.308V152.99Z" fill="#252525"/>
<path d="M157.793 152.99H152.393V158.389H157.793V152.99Z" fill="#252525"/>
<path d="M68.6719 158.232H63.2722V163.632H68.6719V158.232Z" fill="#252525"/>
<path d="M73.9142 158.232H68.5145V163.632H73.9142V158.232Z" fill="#252525"/>
<path d="M94.8839 158.232H89.4843V163.632H94.8839V158.232Z" fill="#252525"/>
<path d="M100.126 158.232H94.7267V163.632H100.126V158.232Z" fill="#252525"/>
<path d="M105.369 158.232H99.9691V163.632H105.369V158.232Z" fill="#252525"/>
<path d="M126.338 158.232H120.939V163.632H126.338V158.232Z" fill="#252525"/>
<path d="M131.581 158.232H126.181V163.632H131.581V158.232Z" fill="#252525"/>
<path d="M142.066 158.232H136.666V163.632H142.066V158.232Z" fill="#252525"/>
<path d="M147.308 158.232H141.908V163.632H147.308V158.232Z" fill="#252525"/>
<path d="M10.8479 11.4441V48.1411H47.5449V11.4441H10.8479ZM42.3024 42.8986H16.0903V16.6865H42.3024V42.8986Z" fill="#252525"/>
<path d="M126.181 11.4441V48.1411H162.878V11.4441H126.181ZM157.636 42.8986H131.424V16.6865H157.636V42.8986Z" fill="#252525"/>
<path d="M10.8479 126.777V163.474H47.5449V126.777H10.8479ZM42.3024 158.232H16.0903V132.02H42.3024V158.232Z" fill="#252525"/>
<path d="M37.06 21.929H21.3328V37.6562H37.06V21.929Z" fill="#252525"/>
<path d="M152.393 21.929H136.666V37.6562H152.393V21.929Z" fill="#252525"/>
<path d="M37.06 137.262H21.3328V152.989H37.06V137.262Z" fill="#252525"/>
</g>
<defs>
<clipPath id="clip0_2047_329">
<rect x="0.363037" y="0.959229" width="173" height="173" rx="11.6107" fill="white"/>
</clipPath>
</defs>
</svg>
