<svg width="185" height="186" viewBox="0 0 185 186" fill="none" xmlns="http://www.w3.org/2000/svg">
<g clip-path="url(#clip0_2092_1496)">
<path d="M184.882 12.942L12.3031 0.874146L0.235231 173.453L172.814 185.521L184.882 12.942Z" fill="white"/>
<mask id="mask0_2092_1496" style="mask-type:luminance" maskUnits="userSpaceOnUse" x="12" y="13" width="160" height="163">
<path d="M22.3919 58.7224L17.042 58.3483L16.6679 63.6982L22.0178 64.0723L22.3919 58.7224Z" fill="white"/>
<path d="M22.0178 64.0722L16.6678 63.6981L16.2937 69.0481L21.6437 69.4222L22.0178 64.0722Z" fill="white"/>
<path d="M21.2696 74.7723L15.9196 74.3982L15.5455 79.7481L20.8955 80.1222L21.2696 74.7723Z" fill="white"/>
<path d="M20.8955 80.122L15.5455 79.7479L15.1714 85.0979L20.5214 85.472L20.8955 80.122Z" fill="white"/>
<path d="M20.5214 85.472L15.1714 85.0979L14.7973 90.4478L20.1473 90.8219L20.5214 85.472Z" fill="white"/>
<path d="M19.7732 96.1718L14.4232 95.7977L14.0491 101.148L19.399 101.522L19.7732 96.1718Z" fill="white"/>
<path d="M19.3991 101.522L14.0491 101.148L13.675 106.498L19.025 106.872L19.3991 101.522Z" fill="white"/>
<path d="M18.2768 117.572L12.9268 117.198L12.5527 122.547L17.9027 122.922L18.2768 117.572Z" fill="white"/>
<path d="M28.1159 53.7464L22.766 53.3723L22.3919 58.7223L27.7418 59.0964L28.1159 53.7464Z" fill="white"/>
<path d="M27.3677 64.4464L22.0178 64.0723L21.6437 69.4222L26.9936 69.7963L27.3677 64.4464Z" fill="white"/>
<path d="M26.2454 80.4962L20.8955 80.1221L20.5214 85.472L25.8713 85.8461L26.2454 80.4962Z" fill="white"/>
<path d="M25.8713 85.8461L20.5214 85.472L20.1473 90.822L25.4972 91.1961L25.8713 85.8461Z" fill="white"/>
<path d="M24.749 101.896L19.3991 101.522L19.025 106.872L24.3749 107.246L24.749 101.896Z" fill="white"/>
<path d="M24.0008 112.596L18.6508 112.222L18.2767 117.572L23.6267 117.946L24.0008 112.596Z" fill="white"/>
<path d="M33.0918 59.4705L27.7419 59.0964L27.3677 64.4464L32.7177 64.8205L33.0918 59.4705Z" fill="white"/>
<path d="M32.7177 64.8205L27.3677 64.4464L26.9936 69.7963L32.3436 70.1705L32.7177 64.8205Z" fill="white"/>
<path d="M32.3436 70.1704L26.9937 69.7963L26.6195 75.1462L31.9695 75.5203L32.3436 70.1704Z" fill="white"/>
<path d="M31.2213 86.2202L25.8713 85.8461L25.4972 91.196L30.8472 91.5701L31.2213 86.2202Z" fill="white"/>
<path d="M30.8472 91.5701L25.4972 91.196L25.1231 96.546L30.4731 96.9201L30.8472 91.5701Z" fill="white"/>
<path d="M38.8158 54.4946L33.4659 54.1205L33.0918 59.4704L38.4417 59.8445L38.8158 54.4946Z" fill="white"/>
<path d="M38.4417 59.8447L33.0918 59.4706L32.7177 64.8205L38.0676 65.1946L38.4417 59.8447Z" fill="white"/>
<path d="M38.0676 65.1945L32.7177 64.8204L32.3436 70.1704L37.6935 70.5445L38.0676 65.1945Z" fill="white"/>
<path d="M37.6935 70.5445L32.3436 70.1704L31.9695 75.5203L37.3194 75.8945L37.6935 70.5445Z" fill="white"/>
<path d="M36.9453 81.2443L31.5954 80.8702L31.2213 86.2202L36.5712 86.5943L36.9453 81.2443Z" fill="white"/>
<path d="M36.5712 86.5943L31.2213 86.2202L30.8471 91.5702L36.1971 91.9443L36.5712 86.5943Z" fill="white"/>
<path d="M36.1971 91.9443L30.8472 91.5702L30.4731 96.9201L35.823 97.2942L36.1971 91.9443Z" fill="white"/>
<path d="M35.4489 102.644L30.099 102.27L29.7249 107.62L35.0748 107.994L35.4489 102.644Z" fill="white"/>
<path d="M35.0748 107.994L29.7249 107.62L29.3507 112.97L34.7007 113.344L35.0748 107.994Z" fill="white"/>
<path d="M44.1658 54.8687L38.8158 54.4946L38.4417 59.8446L43.7917 60.2187L44.1658 54.8687Z" fill="white"/>
<path d="M42.6693 76.2686L37.3194 75.8945L36.9453 81.2445L42.2952 81.6186L42.6693 76.2686Z" fill="white"/>
<path d="M42.2952 81.6185L36.9453 81.2444L36.5712 86.5943L41.9211 86.9684L42.2952 81.6185Z" fill="white"/>
<path d="M41.547 92.3183L36.1971 91.9442L35.823 97.2941L41.1729 97.6683L41.547 92.3183Z" fill="white"/>
<path d="M41.1729 97.6683L35.823 97.2942L35.4489 102.644L40.7988 103.018L41.1729 97.6683Z" fill="white"/>
<path d="M40.7988 103.018L35.4489 102.644L35.0748 107.994L40.4247 108.368L40.7988 103.018Z" fill="white"/>
<path d="M40.4247 108.368L35.0748 107.994L34.7007 113.344L40.0506 113.718L40.4247 108.368Z" fill="white"/>
<path d="M40.0506 113.718L34.7007 113.344L34.3266 118.694L39.6765 119.068L40.0506 113.718Z" fill="white"/>
<path d="M49.1416 60.5929L43.7916 60.2188L43.4175 65.5687L48.7675 65.9428L49.1416 60.5929Z" fill="white"/>
<path d="M48.7674 65.9428L43.4175 65.5687L43.0434 70.9187L48.3933 71.2928L48.7674 65.9428Z" fill="white"/>
<path d="M47.6451 81.9926L42.2952 81.6185L41.9211 86.9685L47.271 87.3426L47.6451 81.9926Z" fill="white"/>
<path d="M47.271 87.3425L41.9211 86.9684L41.547 92.3183L46.8969 92.6924L47.271 87.3425Z" fill="white"/>
<path d="M46.8969 92.6925L41.547 92.3184L41.1729 97.6683L46.5228 98.0424L46.8969 92.6925Z" fill="white"/>
<path d="M45.0264 119.442L39.6765 119.068L39.3024 124.418L44.6523 124.792L45.0264 119.442Z" fill="white"/>
<path d="M54.8656 55.6169L49.5157 55.2428L49.1416 60.5927L54.4915 60.9668L54.8656 55.6169Z" fill="white"/>
<path d="M54.1174 66.3169L48.7675 65.9427L48.3934 71.2927L53.7433 71.6668L54.1174 66.3169Z" fill="white"/>
<path d="M53.3692 77.0169L48.0192 76.6428L47.6451 81.9928L52.9951 82.3669L53.3692 77.0169Z" fill="white"/>
<path d="M52.621 87.7166L47.271 87.3425L46.8969 92.6925L52.2469 93.0666L52.621 87.7166Z" fill="white"/>
<path d="M51.8728 98.4165L46.5228 98.0424L46.1487 103.392L51.4987 103.766L51.8728 98.4165Z" fill="white"/>
<path d="M51.1246 109.116L45.7746 108.742L45.4005 114.092L50.7505 114.466L51.1246 109.116Z" fill="white"/>
<path d="M50.3763 119.816L45.0264 119.442L44.6523 124.792L50.0022 125.166L50.3763 119.816Z" fill="white"/>
<path d="M60.2156 55.991L54.8656 55.6169L54.4915 60.9669L59.8415 61.341L60.2156 55.991Z" fill="white"/>
<path d="M59.8415 61.341L54.4915 60.9669L54.1174 66.3169L59.4673 66.691L59.8415 61.341Z" fill="white"/>
<path d="M59.0933 72.041L53.7433 71.6669L53.3692 77.0168L58.7191 77.3909L59.0933 72.041Z" fill="white"/>
<path d="M57.9709 88.0908L52.621 87.7167L52.2469 93.0666L57.5968 93.4407L57.9709 88.0908Z" fill="white"/>
<path d="M56.4745 109.49L51.1246 109.116L50.7505 114.466L56.1004 114.84L56.4745 109.49Z" fill="white"/>
<path d="M68.1842 18.9156L62.8343 18.5415L62.4602 23.8914L67.8101 24.2655L68.1842 18.9156Z" fill="white"/>
<path d="M67.436 29.6154L62.0861 29.2413L61.712 34.5913L67.0619 34.9654L67.436 29.6154Z" fill="white"/>
<path d="M67.0619 34.9655L61.712 34.5914L61.3379 39.9414L66.6878 40.3155L67.0619 34.9655Z" fill="white"/>
<path d="M66.6878 40.3154L61.3379 39.9413L60.9638 45.2912L66.3137 45.6653L66.6878 40.3154Z" fill="white"/>
<path d="M66.3137 45.6654L60.9637 45.2913L60.5896 50.6412L65.9396 51.0153L66.3137 45.6654Z" fill="white"/>
<path d="M65.5655 56.3651L60.2155 55.991L59.8414 61.3409L65.1914 61.715L65.5655 56.3651Z" fill="white"/>
<path d="M65.1914 61.7152L59.8415 61.3411L59.4674 66.691L64.8173 67.0651L65.1914 61.7152Z" fill="white"/>
<path d="M64.8173 67.0651L59.4673 66.691L59.0932 72.041L64.4432 72.4151L64.8173 67.0651Z" fill="white"/>
<path d="M64.0691 77.7651L58.7191 77.391L58.345 82.7409L63.6949 83.115L64.0691 77.7651Z" fill="white"/>
<path d="M63.695 83.1149L58.345 82.7408L57.9709 88.0908L63.3209 88.4649L63.695 83.1149Z" fill="white"/>
<path d="M63.3209 88.4648L57.9709 88.0907L57.5968 93.4406L62.9467 93.8147L63.3209 88.4648Z" fill="white"/>
<path d="M62.9468 93.8148L57.5968 93.4407L57.2227 98.7906L62.5727 99.1647L62.9468 93.8148Z" fill="white"/>
<path d="M62.5727 99.1646L57.2227 98.7905L56.8486 104.14L62.1985 104.515L62.5727 99.1646Z" fill="white"/>
<path d="M61.4503 115.214L56.1004 114.84L55.7263 120.19L61.0762 120.564L61.4503 115.214Z" fill="white"/>
<path d="M61.0763 120.564L55.7263 120.19L55.3522 125.54L60.7022 125.914L61.0763 120.564Z" fill="white"/>
<path d="M60.7021 125.914L55.3522 125.54L54.9781 130.89L60.328 131.264L60.7021 125.914Z" fill="white"/>
<path d="M60.328 131.264L54.9781 130.89L54.604 136.24L59.9539 136.614L60.328 131.264Z" fill="white"/>
<path d="M59.5798 141.964L54.2299 141.59L53.8558 146.94L59.2057 147.314L59.5798 141.964Z" fill="white"/>
<path d="M59.2057 147.314L53.8558 146.94L53.4817 152.29L58.8316 152.664L59.2057 147.314Z" fill="white"/>
<path d="M58.4575 158.014L53.1076 157.64L52.7335 162.99L58.0834 163.364L58.4575 158.014Z" fill="white"/>
<path d="M72.7859 29.9896L67.436 29.6155L67.0619 34.9654L72.4118 35.3395L72.7859 29.9896Z" fill="white"/>
<path d="M70.9154 56.7392L65.5655 56.3651L65.1914 61.715L70.5413 62.0892L70.9154 56.7392Z" fill="white"/>
<path d="M70.5413 62.0893L65.1914 61.7152L64.8173 67.0651L70.1672 67.4392L70.5413 62.0893Z" fill="white"/>
<path d="M70.1672 67.4392L64.8173 67.0651L64.4432 72.415L69.7931 72.7891L70.1672 67.4392Z" fill="white"/>
<path d="M69.7931 72.7891L64.4432 72.415L64.0691 77.765L69.419 78.1391L69.7931 72.7891Z" fill="white"/>
<path d="M68.2967 94.1888L62.9467 93.8147L62.5726 99.1646L67.9226 99.5387L68.2967 94.1888Z" fill="white"/>
<path d="M67.9226 99.5388L62.5727 99.1647L62.1986 104.515L67.5485 104.889L67.9226 99.5388Z" fill="white"/>
<path d="M67.5485 104.889L62.1985 104.515L61.8244 109.864L67.1744 110.239L67.5485 104.889Z" fill="white"/>
<path d="M67.1744 110.239L61.8244 109.865L61.4503 115.214L66.8003 115.589L67.1744 110.239Z" fill="white"/>
<path d="M66.8003 115.589L61.4503 115.214L61.0762 120.564L66.4262 120.939L66.8003 115.589Z" fill="white"/>
<path d="M66.4262 120.939L61.0762 120.564L60.7021 125.914L66.0521 126.288L66.4262 120.939Z" fill="white"/>
<path d="M66.0521 126.288L60.7021 125.914L60.328 131.264L65.678 131.638L66.0521 126.288Z" fill="white"/>
<path d="M65.678 131.638L60.328 131.264L59.9539 136.614L65.3039 136.988L65.678 131.638Z" fill="white"/>
<path d="M65.3039 136.988L59.9539 136.614L59.5798 141.964L64.9298 142.338L65.3039 136.988Z" fill="white"/>
<path d="M64.9298 142.338L59.5798 141.964L59.2057 147.314L64.5557 147.688L64.9298 142.338Z" fill="white"/>
<path d="M64.1815 153.038L58.8316 152.664L58.4575 158.014L63.8074 158.388L64.1815 153.038Z" fill="white"/>
<path d="M63.8074 158.388L58.4575 158.014L58.0834 163.364L63.4333 163.738L63.8074 158.388Z" fill="white"/>
<path d="M79.2582 14.3139L73.9082 13.9398L73.5341 19.2898L78.8841 19.6639L79.2582 14.3139Z" fill="white"/>
<path d="M78.8841 19.6638L73.5341 19.2897L73.16 24.6396L78.51 25.0137L78.8841 19.6638Z" fill="white"/>
<path d="M77.7618 35.7137L72.4118 35.3396L72.0377 40.6895L77.3877 41.0636L77.7618 35.7137Z" fill="white"/>
<path d="M77.3877 41.0637L72.0377 40.6896L71.6636 46.0395L77.0136 46.4136L77.3877 41.0637Z" fill="white"/>
<path d="M77.0135 46.4135L71.6636 46.0394L71.2895 51.3894L76.6394 51.7635L77.0135 46.4135Z" fill="white"/>
<path d="M76.6395 51.7635L71.2895 51.3894L70.9154 56.7393L76.2654 57.1134L76.6395 51.7635Z" fill="white"/>
<path d="M74.7689 78.5133L69.419 78.1392L69.0449 83.4891L74.3948 83.8632L74.7689 78.5133Z" fill="white"/>
<path d="M74.0207 89.2131L68.6708 88.839L68.2967 94.1889L73.6466 94.563L74.0207 89.2131Z" fill="white"/>
<path d="M73.6466 94.5629L68.2967 94.1888L67.9226 99.5388L73.2725 99.9129L73.6466 94.5629Z" fill="white"/>
<path d="M71.402 126.663L66.0521 126.288L65.678 131.638L71.0279 132.012L71.402 126.663Z" fill="white"/>
<path d="M71.0279 132.013L65.6779 131.638L65.3038 136.988L70.6538 137.362L71.0279 132.013Z" fill="white"/>
<path d="M70.2797 142.712L64.9297 142.338L64.5556 147.688L69.9056 148.062L70.2797 142.712Z" fill="white"/>
<path d="M69.9056 148.062L64.5557 147.688L64.1816 153.038L69.5315 153.412L69.9056 148.062Z" fill="white"/>
<path d="M84.6081 14.6881L79.2582 14.314L78.8841 19.6639L84.234 20.038L84.6081 14.6881Z" fill="white"/>
<path d="M83.4858 30.7378L78.1359 30.3636L77.7618 35.7136L83.1117 36.0877L83.4858 30.7378Z" fill="white"/>
<path d="M82.7376 41.4377L77.3877 41.0636L77.0136 46.4135L82.3635 46.7876L82.7376 41.4377Z" fill="white"/>
<path d="M81.6153 57.4874L76.2654 57.1133L75.8912 62.4632L81.2412 62.8373L81.6153 57.4874Z" fill="white"/>
<path d="M80.8671 68.1875L75.5172 67.8134L75.143 73.1633L80.493 73.5374L80.8671 68.1875Z" fill="white"/>
<path d="M79.7448 84.2373L74.3948 83.8632L74.0207 89.2131L79.3707 89.5872L79.7448 84.2373Z" fill="white"/>
<path d="M79.3707 89.5871L74.0207 89.213L73.6466 94.5629L78.9966 94.9371L79.3707 89.5871Z" fill="white"/>
<path d="M78.9965 94.9371L73.6466 94.563L73.2725 99.9129L78.6224 100.287L78.9965 94.9371Z" fill="white"/>
<path d="M78.2483 105.637L72.8984 105.263L72.5243 110.613L77.8742 110.987L78.2483 105.637Z" fill="white"/>
<path d="M77.8742 110.987L72.5243 110.613L72.1502 115.963L77.5001 116.337L77.8742 110.987Z" fill="white"/>
<path d="M77.126 121.687L71.7761 121.313L71.402 126.663L76.7519 127.037L77.126 121.687Z" fill="white"/>
<path d="M76.0037 137.737L70.6538 137.362L70.2797 142.712L75.6296 143.086L76.0037 137.737Z" fill="white"/>
<path d="M75.2555 148.436L69.9056 148.062L69.5315 153.412L74.8814 153.786L75.2555 148.436Z" fill="white"/>
<path d="M74.1332 164.486L68.7833 164.112L68.4092 169.462L73.7591 169.836L74.1332 164.486Z" fill="white"/>
<path d="M89.9581 15.0622L84.6081 14.6881L84.234 20.038L89.584 20.4122L89.9581 15.0622Z" fill="white"/>
<path d="M89.2099 25.7619L83.8599 25.3878L83.4858 30.7378L88.8358 31.1119L89.2099 25.7619Z" fill="white"/>
<path d="M88.0875 41.8118L82.7376 41.4377L82.3635 46.7877L87.7134 47.1618L88.0875 41.8118Z" fill="white"/>
<path d="M87.7135 47.1618L82.3635 46.7877L81.9894 52.1377L87.3394 52.5118L87.7135 47.1618Z" fill="white"/>
<path d="M85.8429 73.9115L80.493 73.5374L80.1189 78.8873L85.4688 79.2614L85.8429 73.9115Z" fill="white"/>
<path d="M85.4688 79.2616L80.1189 78.8875L79.7448 84.2374L85.0947 84.6115L85.4688 79.2616Z" fill="white"/>
<path d="M84.3465 95.3111L78.9966 94.937L78.6225 100.287L83.9724 100.661L84.3465 95.3111Z" fill="white"/>
<path d="M83.9724 100.661L78.6225 100.287L78.2484 105.637L83.5983 106.011L83.9724 100.661Z" fill="white"/>
<path d="M82.8501 116.711L77.5002 116.337L77.126 121.687L82.476 122.061L82.8501 116.711Z" fill="white"/>
<path d="M82.1019 127.411L76.752 127.037L76.3778 132.387L81.7278 132.761L82.1019 127.411Z" fill="white"/>
<path d="M81.7278 132.761L76.3779 132.387L76.0038 137.737L81.3537 138.111L81.7278 132.761Z" fill="white"/>
<path d="M80.6055 148.811L75.2556 148.436L74.8815 153.786L80.2314 154.16L80.6055 148.811Z" fill="white"/>
<path d="M79.8573 159.51L74.5073 159.136L74.1332 164.486L79.4832 164.86L79.8573 159.51Z" fill="white"/>
<path d="M94.5598 26.1361L89.2099 25.762L88.8358 31.1119L94.1857 31.486L94.5598 26.1361Z" fill="white"/>
<path d="M94.1857 31.4859L88.8358 31.1118L88.4617 36.4618L93.8116 36.8359L94.1857 31.4859Z" fill="white"/>
<path d="M93.4375 42.186L88.0876 41.8119L87.7135 47.1618L93.0634 47.5359L93.4375 42.186Z" fill="white"/>
<path d="M91.9411 63.5857L86.5911 63.2115L86.217 68.5615L91.567 68.9356L91.9411 63.5857Z" fill="white"/>
<path d="M90.8187 79.6356L85.4688 79.2615L85.0947 84.6114L90.4446 84.9855L90.8187 79.6356Z" fill="white"/>
<path d="M90.0705 90.3354L84.7206 89.9613L84.3465 95.3112L89.6964 95.6853L90.0705 90.3354Z" fill="white"/>
<path d="M87.0777 133.135L81.7278 132.761L81.3537 138.111L86.7036 138.485L87.0777 133.135Z" fill="white"/>
<path d="M86.3295 143.835L80.9796 143.461L80.6055 148.811L85.9554 149.185L86.3295 143.835Z" fill="white"/>
<path d="M85.5813 154.535L80.2314 154.161L79.8572 159.51L85.2072 159.885L85.5813 154.535Z" fill="white"/>
<path d="M84.8331 165.235L79.4832 164.86L79.1091 170.21L84.459 170.585L84.8331 165.235Z" fill="white"/>
<path d="M100.284 21.1602L94.9339 20.7861L94.5598 26.1361L99.9097 26.5102L100.284 21.1602Z" fill="white"/>
<path d="M99.5356 31.8601L94.1857 31.486L93.8116 36.8359L99.1615 37.21L99.5356 31.8601Z" fill="white"/>
<path d="M99.1615 37.2102L93.8116 36.8361L93.4375 42.186L98.7874 42.5601L99.1615 37.2102Z" fill="white"/>
<path d="M98.7874 42.56L93.4375 42.1859L93.0634 47.5358L98.4133 47.91L98.7874 42.56Z" fill="white"/>
<path d="M98.4133 47.91L93.0634 47.5359L92.6893 52.8858L98.0392 53.2599L98.4133 47.91Z" fill="white"/>
<path d="M98.0392 53.26L92.6893 52.8859L92.3152 58.2358L97.6651 58.6099L98.0392 53.26Z" fill="white"/>
<path d="M97.6651 58.6097L92.3152 58.2356L91.9411 63.5855L97.291 63.9596L97.6651 58.6097Z" fill="white"/>
<path d="M97.291 63.9598L91.9411 63.5857L91.567 68.9356L96.9169 69.3097L97.291 63.9598Z" fill="white"/>
<path d="M96.5428 74.6596L91.1929 74.2855L90.8188 79.6355L96.1687 80.0096L96.5428 74.6596Z" fill="white"/>
<path d="M96.1687 80.0097L90.8188 79.6356L90.4447 84.9856L95.7946 85.3597L96.1687 80.0097Z" fill="white"/>
<path d="M95.0464 96.0594L89.6964 95.6853L89.3223 101.035L94.6723 101.409L95.0464 96.0594Z" fill="white"/>
<path d="M94.2982 106.759L88.9482 106.385L88.5741 111.735L93.9241 112.109L94.2982 106.759Z" fill="white"/>
<path d="M93.55 117.459L88.2 117.085L87.8259 122.435L93.1759 122.809L93.55 117.459Z" fill="white"/>
<path d="M93.1759 122.809L87.8259 122.435L87.4518 127.785L92.8018 128.159L93.1759 122.809Z" fill="white"/>
<path d="M92.8017 128.159L87.4518 127.785L87.0777 133.135L92.4276 133.509L92.8017 128.159Z" fill="white"/>
<path d="M92.0535 138.859L86.7036 138.485L86.3295 143.835L91.6794 144.209L92.0535 138.859Z" fill="white"/>
<path d="M91.3053 149.559L85.9554 149.185L85.5813 154.535L90.9312 154.909L91.3053 149.559Z" fill="white"/>
<path d="M90.183 165.609L84.8331 165.234L84.459 170.584L89.8089 170.959L90.183 165.609Z" fill="white"/>
<path d="M105.634 21.5343L100.284 21.1602L99.9097 26.5101L105.26 26.8842L105.634 21.5343Z" fill="white"/>
<path d="M105.26 26.8842L99.9097 26.5101L99.5356 31.8601L104.886 32.2342L105.26 26.8842Z" fill="white"/>
<path d="M104.886 32.2342L99.5356 31.8601L99.1615 37.21L104.511 37.5841L104.886 32.2342Z" fill="white"/>
<path d="M104.511 37.5842L99.1615 37.2101L98.7874 42.56L104.137 42.9341L104.511 37.5842Z" fill="white"/>
<path d="M103.015 58.9838L97.6651 58.6097L97.291 63.9597L102.641 64.3338L103.015 58.9838Z" fill="white"/>
<path d="M102.641 64.3339L97.291 63.9598L96.9169 69.3098L102.267 69.6839L102.641 64.3339Z" fill="white"/>
<path d="M101.893 75.0338L96.5428 74.6597L96.1687 80.0096L101.519 80.3837L101.893 75.0338Z" fill="white"/>
<path d="M101.519 80.3839L96.1687 80.0098L95.7946 85.3597L101.145 85.7338L101.519 80.3839Z" fill="white"/>
<path d="M100.77 91.0836L95.4205 90.7095L95.0464 96.0594L100.396 96.4335L100.77 91.0836Z" fill="white"/>
<path d="M98.8999 117.833L93.55 117.459L93.1759 122.809L98.5258 123.183L98.8999 117.833Z" fill="white"/>
<path d="M98.1517 128.533L92.8018 128.159L92.4277 133.509L97.7776 133.883L98.1517 128.533Z" fill="white"/>
<path d="M97.7776 133.883L92.4276 133.509L92.0535 138.859L97.4035 139.233L97.7776 133.883Z" fill="white"/>
<path d="M97.0294 144.583L91.6794 144.209L91.3053 149.559L96.6553 149.933L97.0294 144.583Z" fill="white"/>
<path d="M96.6553 149.933L91.3053 149.559L90.9312 154.909L96.2812 155.283L96.6553 149.933Z" fill="white"/>
<path d="M96.2811 155.283L90.9312 154.909L90.5571 160.259L95.907 160.633L96.2811 155.283Z" fill="white"/>
<path d="M111.358 16.5586L106.008 16.1844L105.634 21.5344L110.984 21.9085L111.358 16.5586Z" fill="white"/>
<path d="M110.984 21.9084L105.634 21.5343L105.26 26.8842L110.61 27.2583L110.984 21.9084Z" fill="white"/>
<path d="M110.61 27.2584L105.26 26.8843L104.886 32.2342L110.236 32.6083L110.61 27.2584Z" fill="white"/>
<path d="M110.235 32.6082L104.886 32.2341L104.511 37.5841L109.861 37.9582L110.235 32.6082Z" fill="white"/>
<path d="M109.861 37.9583L104.511 37.5842L104.137 42.9342L109.487 43.3083L109.861 37.9583Z" fill="white"/>
<path d="M109.487 43.3083L104.137 42.9342L103.763 48.2841L109.113 48.6582L109.487 43.3083Z" fill="white"/>
<path d="M109.113 48.6582L103.763 48.2841L103.389 53.634L108.739 54.0081L109.113 48.6582Z" fill="white"/>
<path d="M108.365 59.358L103.015 58.9839L102.641 64.3338L107.991 64.7079L108.365 59.358Z" fill="white"/>
<path d="M107.991 64.708L102.641 64.3339L102.267 69.6838L107.617 70.0579L107.991 64.708Z" fill="white"/>
<path d="M107.243 75.4079L101.893 75.0338L101.519 80.3837L106.869 80.7579L107.243 75.4079Z" fill="white"/>
<path d="M106.869 80.7579L101.519 80.3838L101.145 85.7337L106.494 86.1078L106.869 80.7579Z" fill="white"/>
<path d="M105.746 96.8076L100.396 96.4335L100.022 101.783L105.372 102.158L105.746 96.8076Z" fill="white"/>
<path d="M104.624 112.857L99.274 112.483L98.8999 117.833L104.25 118.207L104.624 112.857Z" fill="white"/>
<path d="M103.502 128.907L98.1517 128.533L97.7776 133.883L103.128 134.257L103.502 128.907Z" fill="white"/>
<path d="M102.753 139.607L97.4035 139.233L97.0294 144.583L102.379 144.957L102.753 139.607Z" fill="white"/>
<path d="M102.005 150.307L96.6553 149.933L96.2812 155.283L101.631 155.657L102.005 150.307Z" fill="white"/>
<path d="M100.883 166.357L95.533 165.983L95.1589 171.333L100.509 171.707L100.883 166.357Z" fill="white"/>
<path d="M116.708 16.9327L111.358 16.5586L110.984 21.9085L116.334 22.2826L116.708 16.9327Z" fill="white"/>
<path d="M116.334 22.2826L110.984 21.9084L110.61 27.2584L115.96 27.6325L116.334 22.2826Z" fill="white"/>
<path d="M115.96 27.6324L110.61 27.2583L110.236 32.6082L115.585 32.9823L115.96 27.6324Z" fill="white"/>
<path d="M115.211 38.3325L109.861 37.9584L109.487 43.3083L114.837 43.6824L115.211 38.3325Z" fill="white"/>
<path d="M114.089 54.3823L108.739 54.0082L108.365 59.3581L113.715 59.7322L114.089 54.3823Z" fill="white"/>
<path d="M113.715 59.732L108.365 59.3579L107.991 64.7078L113.341 65.082L113.715 59.732Z" fill="white"/>
<path d="M113.341 65.0821L107.991 64.708L107.617 70.0579L112.967 70.432L113.341 65.0821Z" fill="white"/>
<path d="M112.967 70.4321L107.617 70.058L107.243 75.4079L112.593 75.782L112.967 70.4321Z" fill="white"/>
<path d="M112.218 81.132L106.869 80.7579L106.494 86.1079L111.844 86.482L112.218 81.132Z" fill="white"/>
<path d="M111.47 91.8317L106.12 91.4576L105.746 96.8076L111.096 97.1817L111.47 91.8317Z" fill="white"/>
<path d="M110.348 107.881L104.998 107.507L104.624 112.857L109.974 113.231L110.348 107.881Z" fill="white"/>
<path d="M109.6 118.581L104.25 118.207L103.876 123.557L109.226 123.931L109.6 118.581Z" fill="white"/>
<path d="M109.226 123.931L103.876 123.557L103.502 128.907L108.852 129.281L109.226 123.931Z" fill="white"/>
<path d="M108.852 129.281L103.502 128.907L103.128 134.257L108.477 134.631L108.852 129.281Z" fill="white"/>
<path d="M107.729 145.331L102.379 144.957L102.005 150.307L107.355 150.681L107.729 145.331Z" fill="white"/>
<path d="M107.355 150.681L102.005 150.307L101.631 155.657L106.981 156.031L107.355 150.681Z" fill="white"/>
<path d="M106.981 156.031L101.631 155.657L101.257 161.007L106.607 161.381L106.981 156.031Z" fill="white"/>
<path d="M122.058 17.3068L116.708 16.9327L116.334 22.2827L121.684 22.6568L122.058 17.3068Z" fill="white"/>
<path d="M121.684 22.6566L116.334 22.2825L115.96 27.6324L121.309 28.0065L121.684 22.6566Z" fill="white"/>
<path d="M120.935 33.3565L115.585 32.9824L115.211 38.3324L120.561 38.7065L120.935 33.3565Z" fill="white"/>
<path d="M120.561 38.7065L115.211 38.3324L114.837 43.6823L120.187 44.0564L120.561 38.7065Z" fill="white"/>
<path d="M119.813 49.4065L114.463 49.0323L114.089 54.3823L119.439 54.7564L119.813 49.4065Z" fill="white"/>
<path d="M119.065 60.1062L113.715 59.7321L113.341 65.082L118.691 65.4561L119.065 60.1062Z" fill="white"/>
<path d="M118.691 65.4563L113.341 65.0822L112.967 70.4321L118.317 70.8062L118.691 65.4563Z" fill="white"/>
<path d="M117.568 81.5062L112.218 81.1321L111.844 86.482L117.194 86.8561L117.568 81.5062Z" fill="white"/>
<path d="M116.82 92.2059L111.47 91.8318L111.096 97.1817L116.446 97.5558L116.82 92.2059Z" fill="white"/>
<path d="M116.072 102.906L110.722 102.532L110.348 107.882L115.698 108.256L116.072 102.906Z" fill="white"/>
<path d="M115.698 108.256L110.348 107.881L109.974 113.231L115.324 113.606L115.698 108.256Z" fill="white"/>
<path d="M115.324 113.606L109.974 113.231L109.6 118.581L114.95 118.955L115.324 113.606Z" fill="white"/>
<path d="M114.95 118.956L109.6 118.581L109.226 123.931L114.576 124.305L114.95 118.956Z" fill="white"/>
<path d="M111.583 167.105L106.233 166.731L105.859 172.081L111.209 172.455L111.583 167.105Z" fill="white"/>
<path d="M127.408 17.6809L122.058 17.3068L121.684 22.6567L127.034 23.0308L127.408 17.6809Z" fill="white"/>
<path d="M127.034 23.0307L121.684 22.6566L121.309 28.0066L126.659 28.3807L127.034 23.0307Z" fill="white"/>
<path d="M126.659 28.3807L121.31 28.0066L120.935 33.3565L126.285 33.7306L126.659 28.3807Z" fill="white"/>
<path d="M125.537 44.4306L120.187 44.0565L119.813 49.4065L125.163 49.7806L125.537 44.4306Z" fill="white"/>
<path d="M123.293 76.5302L117.943 76.1561L117.568 81.5061L122.918 81.8802L123.293 76.5302Z" fill="white"/>
<path d="M122.544 87.2301L117.194 86.856L116.82 92.2059L122.17 92.58L122.544 87.2301Z" fill="white"/>
<path d="M122.17 92.5799L116.82 92.2058L116.446 97.5557L121.796 97.9299L122.17 92.5799Z" fill="white"/>
<path d="M121.796 97.9299L116.446 97.5558L116.072 102.906L121.422 103.28L121.796 97.9299Z" fill="white"/>
<path d="M121.422 103.28L116.072 102.906L115.698 108.256L121.048 108.63L121.422 103.28Z" fill="white"/>
<path d="M120.3 119.33L114.95 118.956L114.576 124.306L119.926 124.68L120.3 119.33Z" fill="white"/>
<path d="M119.551 130.029L114.202 129.655L113.827 135.005L119.177 135.379L119.551 130.029Z" fill="white"/>
<path d="M119.177 135.379L113.827 135.005L113.453 140.355L118.803 140.729L119.177 135.379Z" fill="white"/>
<path d="M118.803 140.729L113.453 140.355L113.079 145.705L118.429 146.079L118.803 140.729Z" fill="white"/>
<path d="M117.681 156.779L112.331 156.405L111.957 161.755L117.307 162.129L117.681 156.779Z" fill="white"/>
<path d="M117.307 162.129L111.957 161.755L111.583 167.105L116.933 167.479L117.307 162.129Z" fill="white"/>
<path d="M116.933 167.479L111.583 167.105L111.209 172.455L116.559 172.829L116.933 167.479Z" fill="white"/>
<path d="M132.758 18.055L127.408 17.6809L127.034 23.0308L132.383 23.4049L132.758 18.055Z" fill="white"/>
<path d="M132.383 23.4049L127.034 23.0308L126.659 28.3807L132.009 28.7548L132.383 23.4049Z" fill="white"/>
<path d="M132.009 28.7547L126.659 28.3806L126.285 33.7306L131.635 34.1047L132.009 28.7547Z" fill="white"/>
<path d="M130.513 50.1546L125.163 49.7805L124.789 55.1305L130.139 55.5046L130.513 50.1546Z" fill="white"/>
<path d="M128.642 76.9043L123.292 76.5302L122.918 81.8801L128.268 82.2542L128.642 76.9043Z" fill="white"/>
<path d="M128.268 82.2544L122.918 81.8802L122.544 87.2302L127.894 87.6043L128.268 82.2544Z" fill="white"/>
<path d="M127.894 87.6041L122.544 87.23L122.17 92.5799L127.52 92.954L127.894 87.6041Z" fill="white"/>
<path d="M127.52 92.9541L122.17 92.58L121.796 97.9299L127.146 98.304L127.52 92.9541Z" fill="white"/>
<path d="M126.398 109.004L121.048 108.63L120.674 113.98L126.024 114.354L126.398 109.004Z" fill="white"/>
<path d="M125.65 119.704L120.3 119.33L119.926 124.68L125.275 125.054L125.65 119.704Z" fill="white"/>
<path d="M125.275 125.054L119.926 124.68L119.551 130.03L124.901 130.404L125.275 125.054Z" fill="white"/>
<path d="M124.901 130.404L119.551 130.03L119.177 135.379L124.527 135.754L124.901 130.404Z" fill="white"/>
<path d="M124.527 135.753L119.177 135.379L118.803 140.729L124.153 141.103L124.527 135.753Z" fill="white"/>
<path d="M124.153 141.103L118.803 140.729L118.429 146.079L123.779 146.453L124.153 141.103Z" fill="white"/>
<path d="M123.779 146.453L118.429 146.079L118.055 151.429L123.405 151.803L123.779 146.453Z" fill="white"/>
<path d="M123.405 151.803L118.055 151.429L117.681 156.779L123.031 157.153L123.405 151.803Z" fill="white"/>
<path d="M123.031 157.153L117.681 156.779L117.307 162.129L122.657 162.503L123.031 157.153Z" fill="white"/>
<path d="M135.115 61.2285L129.765 60.8544L129.391 66.2043L134.741 66.5784L135.115 61.2285Z" fill="white"/>
<path d="M134.366 71.9284L129.017 71.5543L128.642 76.9043L133.992 77.2784L134.366 71.9284Z" fill="white"/>
<path d="M133.618 82.6285L128.268 82.2544L127.894 87.6043L133.244 87.9784L133.618 82.6285Z" fill="white"/>
<path d="M133.244 87.9782L127.894 87.6041L127.52 92.9541L132.87 93.3282L133.244 87.9782Z" fill="white"/>
<path d="M132.496 98.6781L127.146 98.304L126.772 103.654L132.122 104.028L132.496 98.6781Z" fill="white"/>
<path d="M131 120.078L125.65 119.704L125.275 125.054L130.625 125.428L131 120.078Z" fill="white"/>
<path d="M130.625 125.428L125.275 125.054L124.901 130.404L130.251 130.778L130.625 125.428Z" fill="white"/>
<path d="M129.129 146.827L123.779 146.453L123.405 151.803L128.755 152.177L129.129 146.827Z" fill="white"/>
<path d="M128.755 152.177L123.405 151.803L123.031 157.153L128.381 157.527L128.755 152.177Z" fill="white"/>
<path d="M128.381 157.527L123.031 157.153L122.657 162.503L128.007 162.877L128.381 157.527Z" fill="white"/>
<path d="M138.968 83.0025L133.618 82.6284L133.244 87.9784L138.594 88.3525L138.968 83.0025Z" fill="white"/>
<path d="M137.846 99.0522L132.496 98.6781L132.122 104.028L137.472 104.402L137.846 99.0522Z" fill="white"/>
<path d="M137.098 109.752L131.748 109.378L131.374 114.728L136.724 115.102L137.098 109.752Z" fill="white"/>
<path d="M136.349 120.452L131 120.078L130.625 125.428L135.975 125.802L136.349 120.452Z" fill="white"/>
<path d="M135.975 125.802L130.625 125.428L130.251 130.778L135.601 131.152L135.975 125.802Z" fill="white"/>
<path d="M135.227 136.502L129.877 136.128L129.503 141.478L134.853 141.852L135.227 136.502Z" fill="white"/>
<path d="M134.479 147.202L129.129 146.828L128.755 152.177L134.105 152.552L134.479 147.202Z" fill="white"/>
<path d="M133.731 157.902L128.381 157.527L128.007 162.877L133.357 163.252L133.731 157.902Z" fill="white"/>
<path d="M133.357 163.252L128.007 162.877L127.633 168.227L132.983 168.601L133.357 163.252Z" fill="white"/>
<path d="M145.815 61.9766L140.465 61.6025L140.091 66.9525L145.44 67.3266L145.815 61.9766Z" fill="white"/>
<path d="M145.066 72.6767L139.716 72.3026L139.342 77.6525L144.692 78.0267L145.066 72.6767Z" fill="white"/>
<path d="M144.318 83.3767L138.968 83.0026L138.594 88.3525L143.944 88.7266L144.318 83.3767Z" fill="white"/>
<path d="M143.944 88.7264L138.594 88.3523L138.22 93.7022L143.57 94.0763L143.944 88.7264Z" fill="white"/>
<path d="M143.57 94.0764L138.22 93.7023L137.846 99.0522L143.196 99.4263L143.57 94.0764Z" fill="white"/>
<path d="M143.196 99.4264L137.846 99.0522L137.472 104.402L142.822 104.776L143.196 99.4264Z" fill="white"/>
<path d="M142.448 110.126L137.098 109.752L136.724 115.102L142.074 115.476L142.448 110.126Z" fill="white"/>
<path d="M141.699 120.826L136.349 120.452L135.975 125.802L141.325 126.176L141.699 120.826Z" fill="white"/>
<path d="M141.325 126.176L135.975 125.802L135.601 131.152L140.951 131.526L141.325 126.176Z" fill="white"/>
<path d="M139.829 147.576L134.479 147.202L134.105 152.551L139.455 152.926L139.829 147.576Z" fill="white"/>
<path d="M139.455 152.926L134.105 152.552L133.731 157.901L139.081 158.276L139.455 152.926Z" fill="white"/>
<path d="M138.707 163.626L133.357 163.252L132.983 168.602L138.332 168.976L138.707 163.626Z" fill="white"/>
<path d="M138.332 168.976L132.983 168.601L132.608 173.951L137.958 174.325L138.332 168.976Z" fill="white"/>
<path d="M151.165 62.3508L145.815 61.9767L145.44 67.3266L150.79 67.7007L151.165 62.3508Z" fill="white"/>
<path d="M150.416 73.0507L145.066 72.6766L144.692 78.0266L150.042 78.4007L150.416 73.0507Z" fill="white"/>
<path d="M150.042 78.4007L144.692 78.0266L144.318 83.3765L149.668 83.7507L150.042 78.4007Z" fill="white"/>
<path d="M149.294 89.1005L143.944 88.7264L143.57 94.0764L148.92 94.4505L149.294 89.1005Z" fill="white"/>
<path d="M148.92 94.4505L143.57 94.0764L143.196 99.4264L148.546 99.8005L148.92 94.4505Z" fill="white"/>
<path d="M148.546 99.8004L143.196 99.4263L142.822 104.776L148.172 105.15L148.546 99.8004Z" fill="white"/>
<path d="M148.172 105.15L142.822 104.776L142.448 110.126L147.798 110.5L148.172 105.15Z" fill="white"/>
<path d="M147.798 110.5L142.448 110.126L142.074 115.476L147.423 115.85L147.798 110.5Z" fill="white"/>
<path d="M147.049 121.2L141.699 120.826L141.325 126.176L146.675 126.55L147.049 121.2Z" fill="white"/>
<path d="M146.675 126.55L141.325 126.176L140.951 131.526L146.301 131.9L146.675 126.55Z" fill="white"/>
<path d="M146.301 131.9L140.951 131.526L140.577 136.876L145.927 137.25L146.301 131.9Z" fill="white"/>
<path d="M145.927 137.25L140.577 136.876L140.203 142.226L145.553 142.6L145.927 137.25Z" fill="white"/>
<path d="M145.553 142.6L140.203 142.226L139.829 147.576L145.179 147.95L145.553 142.6Z" fill="white"/>
<path d="M145.179 147.95L139.829 147.576L139.455 152.926L144.805 153.3L145.179 147.95Z" fill="white"/>
<path d="M144.057 164L138.707 163.626L138.332 168.976L143.682 169.35L144.057 164Z" fill="white"/>
<path d="M156.514 62.7249L151.164 62.3508L150.79 67.7008L156.14 68.0749L156.514 62.7249Z" fill="white"/>
<path d="M156.14 68.0749L150.79 67.7008L150.416 73.0507L155.766 73.4248L156.14 68.0749Z" fill="white"/>
<path d="M155.766 73.4249L150.416 73.0508L150.042 78.4007L155.392 78.7748L155.766 73.4249Z" fill="white"/>
<path d="M155.018 84.1248L149.668 83.7507L149.294 89.1007L154.644 89.4748L155.018 84.1248Z" fill="white"/>
<path d="M154.27 94.8245L148.92 94.4504L148.546 99.8004L153.896 100.174L154.27 94.8245Z" fill="white"/>
<path d="M152.773 116.224L147.423 115.85L147.049 121.2L152.399 121.574L152.773 116.224Z" fill="white"/>
<path d="M150.903 142.974L145.553 142.6L145.179 147.95L150.529 148.324L150.903 142.974Z" fill="white"/>
<path d="M149.406 164.374L144.057 164L143.682 169.35L149.032 169.724L149.406 164.374Z" fill="white"/>
<path d="M161.116 73.799L155.766 73.4249L155.392 78.7749L160.742 79.149L161.116 73.799Z" fill="white"/>
<path d="M159.994 89.8487L154.644 89.4746L154.27 94.8245L159.62 95.1986L159.994 89.8487Z" fill="white"/>
<path d="M159.246 100.549L153.896 100.175L153.522 105.524L158.872 105.899L159.246 100.549Z" fill="white"/>
<path d="M158.497 111.248L153.147 110.874L152.773 116.224L158.123 116.598L158.497 111.248Z" fill="white"/>
<path d="M158.123 116.598L152.773 116.224L152.399 121.574L157.749 121.948L158.123 116.598Z" fill="white"/>
<path d="M157.375 127.298L152.025 126.924L151.651 132.274L157.001 132.648L157.375 127.298Z" fill="white"/>
<path d="M157.001 132.648L151.651 132.274L151.277 137.624L156.627 137.998L157.001 132.648Z" fill="white"/>
<path d="M156.253 143.348L150.903 142.974L150.529 148.324L155.879 148.698L156.253 143.348Z" fill="white"/>
<path d="M155.879 148.698L150.529 148.324L150.155 153.674L155.505 154.048L155.879 148.698Z" fill="white"/>
<path d="M154.756 164.748L149.406 164.374L149.032 169.724L154.382 170.098L154.756 164.748Z" fill="white"/>
<path d="M154.382 170.098L149.032 169.724L148.658 175.074L154.008 175.448L154.382 170.098Z" fill="white"/>
<path d="M167.214 63.4731L161.864 63.099L161.49 68.4489L166.84 68.823L167.214 63.4731Z" fill="white"/>
<path d="M165.344 90.2229L159.994 89.8488L159.62 95.1987L164.97 95.5728L165.344 90.2229Z" fill="white"/>
<path d="M164.97 95.5728L159.62 95.1987L159.246 100.549L164.596 100.923L164.97 95.5728Z" fill="white"/>
<path d="M163.473 116.972L158.123 116.598L157.749 121.948L163.099 122.322L163.473 116.972Z" fill="white"/>
<path d="M161.977 138.372L156.627 137.998L156.253 143.348L161.603 143.722L161.977 138.372Z" fill="white"/>
<path d="M161.229 149.072L155.879 148.698L155.505 154.048L160.854 154.422L161.229 149.072Z" fill="white"/>
<path d="M160.48 159.772L155.13 159.398L154.756 164.748L160.106 165.122L160.48 159.772Z" fill="white"/>
<path d="M159.732 170.472L154.382 170.098L154.008 175.448L159.358 175.822L159.732 170.472Z" fill="white"/>
<path d="M171.816 74.5472L166.466 74.1731L166.092 79.523L171.442 79.8971L171.816 74.5472Z" fill="white"/>
<path d="M168.449 122.697L163.099 122.323L162.725 127.672L168.075 128.047L168.449 122.697Z" fill="white"/>
<path d="M168.075 128.046L162.725 127.672L162.351 133.022L167.701 133.396L168.075 128.046Z" fill="white"/>
<path d="M167.701 133.396L162.351 133.022L161.977 138.372L167.327 138.746L167.701 133.396Z" fill="white"/>
<path d="M166.953 144.096L161.603 143.722L161.229 149.072L166.579 149.446L166.953 144.096Z" fill="white"/>
<path d="M166.579 149.446L161.229 149.072L160.855 154.422L166.204 154.796L166.579 149.446Z" fill="white"/>
</mask>
<g mask="url(#mask0_2092_1496)">
<path d="M175.557 21.0479L20.4089 10.1989L9.55986 165.347L164.708 176.196L175.557 21.0479Z" fill="#252525"/>
</g>
<mask id="mask1_2092_1496" style="mask-type:luminance" maskUnits="userSpaceOnUse" x="17" y="10" width="41" height="41">
<path d="M25.7588 10.573L20.4089 10.1989L20.0348 15.5488L25.3847 15.9229L25.7588 10.573Z" fill="white"/>
<path d="M25.3847 15.9228L20.0348 15.5487L19.6607 20.8986L25.0106 21.2727L25.3847 15.9228Z" fill="white"/>
<path d="M25.0106 21.2727L19.6607 20.8986L19.2866 26.2485L24.6365 26.6226L25.0106 21.2727Z" fill="white"/>
<path d="M24.6365 26.6226L19.2866 26.2485L18.9125 31.5985L24.2624 31.9726L24.6365 26.6226Z" fill="white"/>
<path d="M24.2624 31.9726L18.9125 31.5985L18.5384 36.9484L23.8883 37.3226L24.2624 31.9726Z" fill="white"/>
<path d="M23.8883 37.3226L18.5384 36.9485L18.1643 42.2984L23.5142 42.6725L23.8883 37.3226Z" fill="white"/>
<path d="M23.5142 42.6726L18.1643 42.2985L17.7902 47.6484L23.1401 48.0225L23.5142 42.6726Z" fill="white"/>
<path d="M31.1088 10.9471L25.7588 10.573L25.3847 15.9229L30.7347 16.297L31.1088 10.9471Z" fill="white"/>
<path d="M28.8641 43.0466L23.5142 42.6725L23.1401 48.0224L28.49 48.3965L28.8641 43.0466Z" fill="white"/>
<path d="M36.4587 11.3211L31.1088 10.947L30.7347 16.297L36.0846 16.6711L36.4587 11.3211Z" fill="white"/>
<path d="M34.2141 43.4207L28.8642 43.0466L28.4901 48.3966L33.84 48.7707L34.2141 43.4207Z" fill="white"/>
<path d="M41.8086 11.6953L36.4587 11.3212L36.0846 16.6711L41.4345 17.0452L41.8086 11.6953Z" fill="white"/>
<path d="M39.564 43.7949L34.2141 43.4208L33.84 48.7707L39.1899 49.1448L39.564 43.7949Z" fill="white"/>
<path d="M47.1586 12.0694L41.8087 11.6953L41.4346 17.0452L46.7845 17.4194L47.1586 12.0694Z" fill="white"/>
<path d="M44.914 44.1689L39.564 43.7948L39.1899 49.1447L44.5399 49.5188L44.914 44.1689Z" fill="white"/>
<path d="M52.5085 12.4434L47.1585 12.0693L46.7844 17.4193L52.1344 17.7934L52.5085 12.4434Z" fill="white"/>
<path d="M50.2639 44.543L44.9139 44.1689L44.5398 49.5189L49.8898 49.893L50.2639 44.543Z" fill="white"/>
<path d="M57.8584 12.8176L52.5085 12.4435L52.1344 17.7934L57.4843 18.1675L57.8584 12.8176Z" fill="white"/>
<path d="M57.4843 18.1673L52.1344 17.7932L51.7603 23.1431L57.1102 23.5173L57.4843 18.1673Z" fill="white"/>
<path d="M57.1102 23.5173L51.7603 23.1432L51.3862 28.4931L56.7361 28.8672L57.1102 23.5173Z" fill="white"/>
<path d="M56.7361 28.8673L51.3862 28.4932L51.0121 33.8431L56.362 34.2172L56.7361 28.8673Z" fill="white"/>
<path d="M56.362 34.2172L51.0121 33.8431L50.638 39.1931L55.9879 39.5672L56.362 34.2172Z" fill="white"/>
<path d="M55.9879 39.5672L50.638 39.1931L50.2639 44.5431L55.6138 44.9172L55.9879 39.5672Z" fill="white"/>
<path d="M55.6138 44.9172L50.2639 44.5431L49.8898 49.893L55.2397 50.2671L55.6138 44.9172Z" fill="white"/>
</mask>
<g mask="url(#mask1_2092_1496)">
<path d="M57.8584 12.8176L20.4089 10.1989L17.7901 47.6484L55.2397 50.2671L57.8584 12.8176Z" fill="#252525"/>
</g>
<mask id="mask2_2092_1496" style="mask-type:luminance" maskUnits="userSpaceOnUse" x="29" y="21" width="18" height="18">
<path d="M35.7105 22.021L30.3606 21.6469L29.9865 26.9968L35.3364 27.3709L35.7105 22.021Z" fill="white"/>
<path d="M35.3364 27.3709L29.9865 26.9968L29.6123 32.3468L34.9623 32.7209L35.3364 27.3709Z" fill="white"/>
<path d="M34.9623 32.7209L29.6123 32.3468L29.2382 37.6967L34.5882 38.0708L34.9623 32.7209Z" fill="white"/>
<path d="M41.0604 22.3951L35.7105 22.021L35.3364 27.3709L40.6863 27.745L41.0604 22.3951Z" fill="white"/>
<path d="M40.6863 27.745L35.3364 27.3708L34.9623 32.7208L40.3122 33.0949L40.6863 27.745Z" fill="white"/>
<path d="M40.3122 33.0951L34.9623 32.7209L34.5882 38.0709L39.9381 38.445L40.3122 33.0951Z" fill="white"/>
<path d="M46.4104 22.7691L41.0604 22.395L40.6863 27.745L46.0363 28.1191L46.4104 22.7691Z" fill="white"/>
<path d="M46.0362 28.1191L40.6863 27.745L40.3122 33.0949L45.6621 33.469L46.0362 28.1191Z" fill="white"/>
<path d="M45.6621 33.4692L40.3122 33.0951L39.9381 38.445L45.288 38.8191L45.6621 33.4692Z" fill="white"/>
</mask>
<g mask="url(#mask2_2092_1496)">
<path d="M46.4104 22.7692L30.3606 21.6469L29.2383 37.6967L45.2881 38.819L46.4104 22.7692Z" fill="#252525"/>
</g>
<mask id="mask3_2092_1496" style="mask-type:luminance" maskUnits="userSpaceOnUse" x="135" y="18" width="41" height="41">
<path d="M143.457 18.8032L138.107 18.4291L137.733 23.779L143.083 24.1531L143.457 18.8032Z" fill="white"/>
<path d="M143.083 24.1529L137.733 23.7788L137.359 29.1287L142.709 29.5028L143.083 24.1529Z" fill="white"/>
<path d="M142.709 29.5029L137.359 29.1288L136.985 34.4787L142.335 34.8528L142.709 29.5029Z" fill="white"/>
<path d="M142.335 34.8529L136.985 34.4788L136.611 39.8287L141.961 40.2028L142.335 34.8529Z" fill="white"/>
<path d="M141.961 40.2028L136.611 39.8287L136.237 45.1787L141.587 45.5528L141.961 40.2028Z" fill="white"/>
<path d="M141.587 45.5528L136.237 45.1787L135.863 50.5286L141.213 50.9028L141.587 45.5528Z" fill="white"/>
<path d="M141.213 50.9028L135.863 50.5287L135.489 55.8786L140.839 56.2527L141.213 50.9028Z" fill="white"/>
<path d="M148.807 19.1773L143.457 18.8032L143.083 24.1532L148.433 24.5273L148.807 19.1773Z" fill="white"/>
<path d="M146.563 51.2768L141.213 50.9027L140.839 56.2526L146.189 56.6267L146.563 51.2768Z" fill="white"/>
<path d="M154.157 19.5514L148.807 19.1772L148.433 24.5272L153.783 24.9013L154.157 19.5514Z" fill="white"/>
<path d="M151.913 51.651L146.563 51.2769L146.189 56.6268L151.539 57.0009L151.913 51.651Z" fill="white"/>
<path d="M159.507 19.9255L154.157 19.5514L153.783 24.9013L159.133 25.2754L159.507 19.9255Z" fill="white"/>
<path d="M157.263 52.0251L151.913 51.651L151.539 57.0009L156.888 57.375L157.263 52.0251Z" fill="white"/>
<path d="M164.857 20.2996L159.507 19.9255L159.133 25.2755L164.483 25.6496L164.857 20.2996Z" fill="white"/>
<path d="M162.613 52.3991L157.263 52.025L156.888 57.375L162.238 57.7491L162.613 52.3991Z" fill="white"/>
<path d="M170.207 20.6737L164.857 20.2996L164.483 25.6495L169.833 26.0236L170.207 20.6737Z" fill="white"/>
<path d="M167.962 52.7733L162.613 52.3992L162.238 57.7491L167.588 58.1232L167.962 52.7733Z" fill="white"/>
<path d="M175.557 21.0478L170.207 20.6737L169.833 26.0236L175.183 26.3977L175.557 21.0478Z" fill="white"/>
<path d="M175.183 26.3975L169.833 26.0234L169.459 31.3734L174.809 31.7475L175.183 26.3975Z" fill="white"/>
<path d="M174.809 31.7475L169.459 31.3734L169.085 36.7233L174.435 37.0975L174.809 31.7475Z" fill="white"/>
<path d="M174.435 37.0975L169.085 36.7234L168.711 42.0733L174.061 42.4474L174.435 37.0975Z" fill="white"/>
<path d="M174.061 42.4475L168.711 42.0734L168.337 47.4233L173.687 47.7974L174.061 42.4475Z" fill="white"/>
<path d="M173.687 47.7974L168.337 47.4233L167.962 52.7733L173.312 53.1474L173.687 47.7974Z" fill="white"/>
<path d="M173.312 53.1474L167.962 52.7733L167.588 58.1233L172.938 58.4974L173.312 53.1474Z" fill="white"/>
</mask>
<g mask="url(#mask3_2092_1496)">
<path d="M175.557 21.0478L138.107 18.4291L135.489 55.8786L172.938 58.4974L175.557 21.0478Z" fill="#252525"/>
</g>
<mask id="mask4_2092_1496" style="mask-type:luminance" maskUnits="userSpaceOnUse" x="146" y="29" width="19" height="19">
<path d="M153.409 30.2512L148.059 29.8771L147.685 35.227L153.035 35.6011L153.409 30.2512Z" fill="white"/>
<path d="M153.035 35.6012L147.685 35.2271L147.311 40.577L152.661 40.9511L153.035 35.6012Z" fill="white"/>
<path d="M152.661 40.9511L147.311 40.577L146.937 45.927L152.287 46.3011L152.661 40.9511Z" fill="white"/>
<path d="M158.759 30.6253L153.409 30.2512L153.035 35.6012L158.385 35.9753L158.759 30.6253Z" fill="white"/>
<path d="M158.385 35.9752L153.035 35.6011L152.661 40.951L158.011 41.3251L158.385 35.9752Z" fill="white"/>
<path d="M158.011 41.3253L152.661 40.9512L152.287 46.3011L157.637 46.6752L158.011 41.3253Z" fill="white"/>
<path d="M164.109 30.9993L158.759 30.6252L158.385 35.9752L163.735 36.3493L164.109 30.9993Z" fill="white"/>
<path d="M163.735 36.3493L158.385 35.9752L158.011 41.3252L163.361 41.6993L163.735 36.3493Z" fill="white"/>
<path d="M163.361 41.6994L158.011 41.3253L157.637 46.6753L162.987 47.0494L163.361 41.6994Z" fill="white"/>
</mask>
<g mask="url(#mask4_2092_1496)">
<path d="M164.109 30.9994L148.059 29.8771L146.937 45.9269L162.987 47.0492L164.109 30.9994Z" fill="#252525"/>
</g>
<mask id="mask5_2092_1496" style="mask-type:luminance" maskUnits="userSpaceOnUse" x="9" y="127" width="41" height="41">
<path d="M17.5285 128.271L12.1786 127.897L11.8045 133.247L17.1544 133.621L17.5285 128.271Z" fill="white"/>
<path d="M17.1544 133.621L11.8045 133.247L11.4304 138.597L16.7803 138.971L17.1544 133.621Z" fill="white"/>
<path d="M16.7803 138.971L11.4304 138.597L11.0563 143.947L16.4062 144.321L16.7803 138.971Z" fill="white"/>
<path d="M16.4062 144.321L11.0563 143.947L10.6822 149.297L16.0321 149.671L16.4062 144.321Z" fill="white"/>
<path d="M16.0321 149.671L10.6822 149.297L10.3081 154.647L15.658 155.021L16.0321 149.671Z" fill="white"/>
<path d="M15.658 155.021L10.3081 154.647L9.93397 159.997L15.2839 160.371L15.658 155.021Z" fill="white"/>
<path d="M15.2839 160.371L9.93396 159.997L9.55986 165.347L14.9098 165.721L15.2839 160.371Z" fill="white"/>
<path d="M22.8785 128.646L17.5285 128.271L17.1544 133.621L22.5044 133.996L22.8785 128.646Z" fill="white"/>
<path d="M20.6338 160.745L15.2839 160.371L14.9098 165.721L20.2597 166.095L20.6338 160.745Z" fill="white"/>
<path d="M28.2284 129.02L22.8785 128.646L22.5044 133.996L27.8543 134.37L28.2284 129.02Z" fill="white"/>
<path d="M25.9838 161.119L20.6339 160.745L20.2597 166.095L25.6097 166.469L25.9838 161.119Z" fill="white"/>
<path d="M33.5784 129.394L28.2284 129.02L27.8543 134.37L33.2043 134.744L33.5784 129.394Z" fill="white"/>
<path d="M31.3337 161.493L25.9838 161.119L25.6097 166.469L30.9596 166.843L31.3337 161.493Z" fill="white"/>
<path d="M38.9283 129.768L33.5784 129.394L33.2043 134.744L38.5542 135.118L38.9283 129.768Z" fill="white"/>
<path d="M36.6837 161.868L31.3337 161.494L30.9596 166.843L36.3096 167.218L36.6837 161.868Z" fill="white"/>
<path d="M44.2782 130.142L38.9283 129.768L38.5541 135.118L43.9041 135.492L44.2782 130.142Z" fill="white"/>
<path d="M42.0336 162.242L36.6836 161.868L36.3095 167.218L41.6595 167.592L42.0336 162.242Z" fill="white"/>
<path d="M49.6281 130.516L44.2782 130.142L43.9041 135.492L49.254 135.866L49.6281 130.516Z" fill="white"/>
<path d="M49.254 135.866L43.9041 135.492L43.53 140.842L48.8799 141.216L49.254 135.866Z" fill="white"/>
<path d="M48.8799 141.216L43.53 140.842L43.1559 146.192L48.5058 146.566L48.8799 141.216Z" fill="white"/>
<path d="M48.5058 146.566L43.1559 146.192L42.7818 151.542L48.1317 151.916L48.5058 146.566Z" fill="white"/>
<path d="M48.1317 151.916L42.7818 151.542L42.4077 156.892L47.7576 157.266L48.1317 151.916Z" fill="white"/>
<path d="M47.7576 157.266L42.4077 156.892L42.0335 162.242L47.3835 162.616L47.7576 157.266Z" fill="white"/>
<path d="M47.3835 162.616L42.0336 162.242L41.6595 167.592L47.0094 167.966L47.3835 162.616Z" fill="white"/>
</mask>
<g mask="url(#mask5_2092_1496)">
<path d="M49.6281 130.516L12.1786 127.897L9.55986 165.347L47.0094 167.966L49.6281 130.516Z" fill="#252525"/>
</g>
<mask id="mask6_2092_1496" style="mask-type:luminance" maskUnits="userSpaceOnUse" x="21" y="139" width="18" height="18">
<path d="M27.4802 139.72L22.1303 139.345L21.7562 144.695L27.1061 145.069L27.4802 139.72Z" fill="white"/>
<path d="M27.1061 145.069L21.7562 144.695L21.3821 150.045L26.732 150.419L27.1061 145.069Z" fill="white"/>
<path d="M26.732 150.42L21.382 150.045L21.0079 155.395L26.3579 155.769L26.732 150.42Z" fill="white"/>
<path d="M32.8301 140.094L27.4802 139.719L27.1061 145.069L32.456 145.444L32.8301 140.094Z" fill="white"/>
<path d="M32.456 145.444L27.1061 145.069L26.732 150.419L32.0819 150.793L32.456 145.444Z" fill="white"/>
<path d="M32.0819 150.794L26.732 150.42L26.3579 155.769L31.7078 156.144L32.0819 150.794Z" fill="white"/>
<path d="M38.1801 140.468L32.8301 140.094L32.456 145.444L37.806 145.818L38.1801 140.468Z" fill="white"/>
<path d="M37.806 145.818L32.456 145.444L32.0819 150.794L37.4319 151.168L37.806 145.818Z" fill="white"/>
<path d="M37.4318 151.168L32.0819 150.794L31.7078 156.144L37.0577 156.518L37.4318 151.168Z" fill="white"/>
</mask>
<g mask="url(#mask6_2092_1496)">
<path d="M38.1801 140.468L22.1303 139.345L21.008 155.395L37.0578 156.518L38.1801 140.468Z" fill="#252525"/>
</g>
</g>
<defs>
<clipPath id="clip0_2092_1496">
<rect x="12.3031" y="0.874146" width="173" height="173" rx="12" transform="rotate(4 12.3031 0.874146)" fill="white"/>
</clipPath>
</defs>
</svg>
