<svg width="173" height="173" viewBox="0 0 173 173" fill="none" xmlns="http://www.w3.org/2000/svg">
<g clip-path="url(#clip0_2092_1496)">
<path d="M173 0H0V173H173V0Z" fill="white"/>
<mask id="mask0_2092_1496" style="mask-type:luminance" maskUnits="userSpaceOnUse" x="8" y="8" width="157" height="157">
<path d="M14.0995 57.0035H8.73648V62.3665H14.0995V57.0035Z" fill="white"/>
<path d="M14.0995 62.3666H8.73648V67.7296H14.0995V62.3666Z" fill="white"/>
<path d="M14.0995 73.0927H8.73648V78.4557H14.0995V73.0927Z" fill="white"/>
<path d="M14.0995 78.4556H8.73648V83.8186H14.0995V78.4556Z" fill="white"/>
<path d="M14.0995 83.8185H8.73648V89.1815H14.0995V83.8185Z" fill="white"/>
<path d="M14.0995 94.5444H8.73648V99.9074H14.0995V94.5444Z" fill="white"/>
<path d="M14.0995 99.9073H8.73648V105.27H14.0995V99.9073Z" fill="white"/>
<path d="M14.0995 115.996H8.73648V121.359H14.0995V115.996Z" fill="white"/>
<path d="M19.4625 51.6404H14.0995V57.0034H19.4625V51.6404Z" fill="white"/>
<path d="M19.4625 62.3666H14.0995V67.7296H19.4625V62.3666Z" fill="white"/>
<path d="M19.4625 78.4556H14.0995V83.8186H19.4625V78.4556Z" fill="white"/>
<path d="M19.4625 83.8185H14.0995V89.1815H19.4625V83.8185Z" fill="white"/>
<path d="M19.4625 99.9073H14.0995V105.27H19.4625V99.9073Z" fill="white"/>
<path d="M19.4625 110.634H14.0995V115.997H19.4625V110.634Z" fill="white"/>
<path d="M24.8255 57.0035H19.4625V62.3665H24.8255V57.0035Z" fill="white"/>
<path d="M24.8255 62.3666H19.4625V67.7296H24.8255V62.3666Z" fill="white"/>
<path d="M24.8255 67.7295H19.4625V73.0925H24.8255V67.7295Z" fill="white"/>
<path d="M24.8255 83.8185H19.4625V89.1815H24.8255V83.8185Z" fill="white"/>
<path d="M24.8255 89.1815H19.4625V94.5445H24.8255V89.1815Z" fill="white"/>
<path d="M30.1885 51.6404H24.8255V57.0034H30.1885V51.6404Z" fill="white"/>
<path d="M30.1885 57.0035H24.8255V62.3665H30.1885V57.0035Z" fill="white"/>
<path d="M30.1885 62.3666H24.8255V67.7296H30.1885V62.3666Z" fill="white"/>
<path d="M30.1885 67.7295H24.8255V73.0925H30.1885V67.7295Z" fill="white"/>
<path d="M30.1885 78.4556H24.8255V83.8186H30.1885V78.4556Z" fill="white"/>
<path d="M30.1885 83.8185H24.8255V89.1815H30.1885V83.8185Z" fill="white"/>
<path d="M30.1885 89.1815H24.8255V94.5445H30.1885V89.1815Z" fill="white"/>
<path d="M30.1885 99.9073H24.8255V105.27H30.1885V99.9073Z" fill="white"/>
<path d="M30.1885 105.271H24.8255V110.634H30.1885V105.271Z" fill="white"/>
<path d="M35.5515 51.6404H30.1885V57.0034H35.5515V51.6404Z" fill="white"/>
<path d="M35.5515 73.0927H30.1885V78.4557H35.5515V73.0927Z" fill="white"/>
<path d="M35.5515 78.4556H30.1885V83.8186H35.5515V78.4556Z" fill="white"/>
<path d="M35.5515 89.1815H30.1885V94.5445H35.5515V89.1815Z" fill="white"/>
<path d="M35.5515 94.5444H30.1885V99.9074H35.5515V94.5444Z" fill="white"/>
<path d="M35.5515 99.9073H30.1885V105.27H35.5515V99.9073Z" fill="white"/>
<path d="M35.5515 105.271H30.1885V110.634H35.5515V105.271Z" fill="white"/>
<path d="M35.5515 110.634H30.1885V115.997H35.5515V110.634Z" fill="white"/>
<path d="M40.9145 57.0035H35.5515V62.3665H40.9145V57.0035Z" fill="white"/>
<path d="M40.9145 62.3666H35.5515V67.7296H40.9145V62.3666Z" fill="white"/>
<path d="M40.9145 78.4556H35.5515V83.8186H40.9145V78.4556Z" fill="white"/>
<path d="M40.9145 83.8185H35.5515V89.1815H40.9145V83.8185Z" fill="white"/>
<path d="M40.9145 89.1815H35.5515V94.5445H40.9145V89.1815Z" fill="white"/>
<path d="M40.9145 115.996H35.5515V121.359H40.9145V115.996Z" fill="white"/>
<path d="M46.2775 51.6404H40.9145V57.0034H46.2775V51.6404Z" fill="white"/>
<path d="M46.2775 62.3666H40.9145V67.7296H46.2775V62.3666Z" fill="white"/>
<path d="M46.2775 73.0927H40.9145V78.4557H46.2775V73.0927Z" fill="white"/>
<path d="M46.2775 83.8185H40.9145V89.1815H46.2775V83.8185Z" fill="white"/>
<path d="M46.2775 94.5444H40.9145V99.9074H46.2775V94.5444Z" fill="white"/>
<path d="M46.2775 105.271H40.9145V110.634H46.2775V105.271Z" fill="white"/>
<path d="M46.2775 115.996H40.9145V121.359H46.2775V115.996Z" fill="white"/>
<path d="M51.6405 51.6404H46.2775V57.0034H51.6405V51.6404Z" fill="white"/>
<path d="M51.6405 57.0035H46.2775V62.3665H51.6405V57.0035Z" fill="white"/>
<path d="M51.6405 67.7295H46.2775V73.0925H51.6405V67.7295Z" fill="white"/>
<path d="M51.6405 83.8185H46.2775V89.1815H51.6405V83.8185Z" fill="white"/>
<path d="M51.6405 105.271H46.2775V110.634H51.6405V105.271Z" fill="white"/>
<path d="M57.0035 14.0995H51.6405V19.4625H57.0035V14.0995Z" fill="white"/>
<path d="M57.0035 24.8254H51.6405V30.1884H57.0035V24.8254Z" fill="white"/>
<path d="M57.0035 30.1886H51.6405V35.5516H57.0035V30.1886Z" fill="white"/>
<path d="M57.0035 35.5515H51.6405V40.9145H57.0035V35.5515Z" fill="white"/>
<path d="M57.0035 40.9146H51.6405V46.2776H57.0035V40.9146Z" fill="white"/>
<path d="M57.0035 51.6404H51.6405V57.0034H57.0035V51.6404Z" fill="white"/>
<path d="M57.0035 57.0035H51.6405V62.3665H57.0035V57.0035Z" fill="white"/>
<path d="M57.0035 62.3666H51.6405V67.7296H57.0035V62.3666Z" fill="white"/>
<path d="M57.0035 73.0927H51.6405V78.4557H57.0035V73.0927Z" fill="white"/>
<path d="M57.0035 78.4556H51.6405V83.8186H57.0035V78.4556Z" fill="white"/>
<path d="M57.0035 83.8185H51.6405V89.1815H57.0035V83.8185Z" fill="white"/>
<path d="M57.0035 89.1815H51.6405V94.5445H57.0035V89.1815Z" fill="white"/>
<path d="M57.0035 94.5444H51.6405V99.9074H57.0035V94.5444Z" fill="white"/>
<path d="M57.0035 110.634H51.6405V115.997H57.0035V110.634Z" fill="white"/>
<path d="M57.0035 115.996H51.6405V121.359H57.0035V115.996Z" fill="white"/>
<path d="M57.0035 121.359H51.6405V126.722H57.0035V121.359Z" fill="white"/>
<path d="M57.0035 126.722H51.6405V132.085H57.0035V126.722Z" fill="white"/>
<path d="M57.0035 137.448H51.6405V142.811H57.0035V137.448Z" fill="white"/>
<path d="M57.0035 142.812H51.6405V148.175H57.0035V142.812Z" fill="white"/>
<path d="M57.0035 153.538H51.6405V158.901H57.0035V153.538Z" fill="white"/>
<path d="M62.3665 24.8254H57.0035V30.1884H62.3665V24.8254Z" fill="white"/>
<path d="M62.3665 51.6404H57.0035V57.0034H62.3665V51.6404Z" fill="white"/>
<path d="M62.3665 57.0035H57.0035V62.3665H62.3665V57.0035Z" fill="white"/>
<path d="M62.3665 62.3666H57.0035V67.7296H62.3665V62.3666Z" fill="white"/>
<path d="M62.3665 67.7295H57.0035V73.0925H62.3665V67.7295Z" fill="white"/>
<path d="M62.3665 89.1815H57.0035V94.5445H62.3665V89.1815Z" fill="white"/>
<path d="M62.3665 94.5444H57.0035V99.9074H62.3665V94.5444Z" fill="white"/>
<path d="M62.3665 99.9073H57.0035V105.27H62.3665V99.9073Z" fill="white"/>
<path d="M62.3665 105.271H57.0035V110.634H62.3665V105.271Z" fill="white"/>
<path d="M62.3665 110.634H57.0035V115.997H62.3665V110.634Z" fill="white"/>
<path d="M62.3665 115.996H57.0035V121.359H62.3665V115.996Z" fill="white"/>
<path d="M62.3665 121.359H57.0035V126.722H62.3665V121.359Z" fill="white"/>
<path d="M62.3665 126.722H57.0035V132.085H62.3665V126.722Z" fill="white"/>
<path d="M62.3665 132.085H57.0035V137.448H62.3665V132.085Z" fill="white"/>
<path d="M62.3665 137.448H57.0035V142.811H62.3665V137.448Z" fill="white"/>
<path d="M62.3665 148.175H57.0035V153.538H62.3665V148.175Z" fill="white"/>
<path d="M62.3665 153.538H57.0035V158.901H62.3665V153.538Z" fill="white"/>
<path d="M67.7295 8.73657H62.3665V14.0996H67.7295V8.73657Z" fill="white"/>
<path d="M67.7295 14.0995H62.3665V19.4625H67.7295V14.0995Z" fill="white"/>
<path d="M67.7295 30.1886H62.3665V35.5516H67.7295V30.1886Z" fill="white"/>
<path d="M67.7295 35.5515H62.3665V40.9145H67.7295V35.5515Z" fill="white"/>
<path d="M67.7295 40.9146H62.3665V46.2776H67.7295V40.9146Z" fill="white"/>
<path d="M67.7295 46.2776H62.3665V51.6406H67.7295V46.2776Z" fill="white"/>
<path d="M67.7295 73.0927H62.3665V78.4557H67.7295V73.0927Z" fill="white"/>
<path d="M67.7295 83.8185H62.3665V89.1815H67.7295V83.8185Z" fill="white"/>
<path d="M67.7295 89.1815H62.3665V94.5445H67.7295V89.1815Z" fill="white"/>
<path d="M67.7295 121.359H62.3665V126.722H67.7295V121.359Z" fill="white"/>
<path d="M67.7295 126.722H62.3665V132.085H67.7295V126.722Z" fill="white"/>
<path d="M67.7295 137.448H62.3665V142.811H67.7295V137.448Z" fill="white"/>
<path d="M67.7295 142.812H62.3665V148.175H67.7295V142.812Z" fill="white"/>
<path d="M73.0925 8.73657H67.7295V14.0996H73.0925V8.73657Z" fill="white"/>
<path d="M73.0925 24.8254H67.7295V30.1884H73.0925V24.8254Z" fill="white"/>
<path d="M73.0925 35.5515H67.7295V40.9145H73.0925V35.5515Z" fill="white"/>
<path d="M73.0925 51.6404H67.7295V57.0034H73.0925V51.6404Z" fill="white"/>
<path d="M73.0925 62.3666H67.7295V67.7296H73.0925V62.3666Z" fill="white"/>
<path d="M73.0925 78.4556H67.7295V83.8186H73.0925V78.4556Z" fill="white"/>
<path d="M73.0925 83.8185H67.7295V89.1815H73.0925V83.8185Z" fill="white"/>
<path d="M73.0925 89.1815H67.7295V94.5445H73.0925V89.1815Z" fill="white"/>
<path d="M73.0925 99.9073H67.7295V105.27H73.0925V99.9073Z" fill="white"/>
<path d="M73.0925 105.271H67.7295V110.634H73.0925V105.271Z" fill="white"/>
<path d="M73.0925 115.996H67.7295V121.359H73.0925V115.996Z" fill="white"/>
<path d="M73.0925 132.085H67.7295V137.448H73.0925V132.085Z" fill="white"/>
<path d="M73.0925 142.812H67.7295V148.175H73.0925V142.812Z" fill="white"/>
<path d="M73.0925 158.901H67.7295V164.264H73.0925V158.901Z" fill="white"/>
<path d="M78.4555 8.73657H73.0925V14.0996H78.4555V8.73657Z" fill="white"/>
<path d="M78.4555 19.4624H73.0925V24.8254H78.4555V19.4624Z" fill="white"/>
<path d="M78.4555 35.5515H73.0925V40.9145H78.4555V35.5515Z" fill="white"/>
<path d="M78.4555 40.9146H73.0925V46.2776H78.4555V40.9146Z" fill="white"/>
<path d="M78.4555 67.7295H73.0925V73.0925H78.4555V67.7295Z" fill="white"/>
<path d="M78.4555 73.0927H73.0925V78.4557H78.4555V73.0927Z" fill="white"/>
<path d="M78.4555 89.1815H73.0925V94.5445H78.4555V89.1815Z" fill="white"/>
<path d="M78.4555 94.5444H73.0925V99.9074H78.4555V94.5444Z" fill="white"/>
<path d="M78.4555 110.634H73.0925V115.997H78.4555V110.634Z" fill="white"/>
<path d="M78.4555 121.359H73.0925V126.722H78.4555V121.359Z" fill="white"/>
<path d="M78.4555 126.722H73.0925V132.085H78.4555V126.722Z" fill="white"/>
<path d="M78.4555 142.812H73.0925V148.175H78.4555V142.812Z" fill="white"/>
<path d="M78.4555 153.538H73.0925V158.901H78.4555V153.538Z" fill="white"/>
<path d="M83.8185 19.4624H78.4555V24.8254H83.8185V19.4624Z" fill="white"/>
<path d="M83.8185 24.8254H78.4555V30.1884H83.8185V24.8254Z" fill="white"/>
<path d="M83.8185 35.5515H78.4555V40.9145H83.8185V35.5515Z" fill="white"/>
<path d="M83.8185 57.0035H78.4555V62.3665H83.8185V57.0035Z" fill="white"/>
<path d="M83.8185 73.0927H78.4555V78.4557H83.8185V73.0927Z" fill="white"/>
<path d="M83.8185 83.8185H78.4555V89.1815H83.8185V83.8185Z" fill="white"/>
<path d="M83.8185 126.722H78.4555V132.085H83.8185V126.722Z" fill="white"/>
<path d="M83.8185 137.448H78.4555V142.811H83.8185V137.448Z" fill="white"/>
<path d="M83.8185 148.175H78.4555V153.538H83.8185V148.175Z" fill="white"/>
<path d="M83.8185 158.901H78.4555V164.264H83.8185V158.901Z" fill="white"/>
<path d="M89.1815 14.0995H83.8185V19.4625H89.1815V14.0995Z" fill="white"/>
<path d="M89.1815 24.8254H83.8185V30.1884H89.1815V24.8254Z" fill="white"/>
<path d="M89.1815 30.1886H83.8185V35.5516H89.1815V30.1886Z" fill="white"/>
<path d="M89.1815 35.5515H83.8185V40.9145H89.1815V35.5515Z" fill="white"/>
<path d="M89.1815 40.9146H83.8185V46.2776H89.1815V40.9146Z" fill="white"/>
<path d="M89.1815 46.2776H83.8185V51.6406H89.1815V46.2776Z" fill="white"/>
<path d="M89.1815 51.6404H83.8185V57.0034H89.1815V51.6404Z" fill="white"/>
<path d="M89.1815 57.0035H83.8185V62.3665H89.1815V57.0035Z" fill="white"/>
<path d="M89.1815 67.7295H83.8185V73.0925H89.1815V67.7295Z" fill="white"/>
<path d="M89.1815 73.0927H83.8185V78.4557H89.1815V73.0927Z" fill="white"/>
<path d="M89.1815 89.1815H83.8185V94.5445H89.1815V89.1815Z" fill="white"/>
<path d="M89.1815 99.9073H83.8185V105.27H89.1815V99.9073Z" fill="white"/>
<path d="M89.1815 110.634H83.8185V115.997H89.1815V110.634Z" fill="white"/>
<path d="M89.1815 115.996H83.8185V121.359H89.1815V115.996Z" fill="white"/>
<path d="M89.1815 121.359H83.8185V126.722H89.1815V121.359Z" fill="white"/>
<path d="M89.1815 132.085H83.8185V137.448H89.1815V132.085Z" fill="white"/>
<path d="M89.1815 142.812H83.8185V148.175H89.1815V142.812Z" fill="white"/>
<path d="M89.1815 158.901H83.8185V164.264H89.1815V158.901Z" fill="white"/>
<path d="M94.5445 14.0995H89.1815V19.4625H94.5445V14.0995Z" fill="white"/>
<path d="M94.5445 19.4624H89.1815V24.8254H94.5445V19.4624Z" fill="white"/>
<path d="M94.5445 24.8254H89.1815V30.1884H94.5445V24.8254Z" fill="white"/>
<path d="M94.5445 30.1886H89.1815V35.5516H94.5445V30.1886Z" fill="white"/>
<path d="M94.5445 51.6404H89.1815V57.0034H94.5445V51.6404Z" fill="white"/>
<path d="M94.5445 57.0035H89.1815V62.3665H94.5445V57.0035Z" fill="white"/>
<path d="M94.5445 67.7295H89.1815V73.0925H94.5445V67.7295Z" fill="white"/>
<path d="M94.5445 73.0927H89.1815V78.4557H94.5445V73.0927Z" fill="white"/>
<path d="M94.5445 83.8185H89.1815V89.1815H94.5445V83.8185Z" fill="white"/>
<path d="M94.5445 110.634H89.1815V115.997H94.5445V110.634Z" fill="white"/>
<path d="M94.5445 121.359H89.1815V126.722H94.5445V121.359Z" fill="white"/>
<path d="M94.5445 126.722H89.1815V132.085H94.5445V126.722Z" fill="white"/>
<path d="M94.5445 137.448H89.1815V142.811H94.5445V137.448Z" fill="white"/>
<path d="M94.5445 142.812H89.1815V148.175H94.5445V142.812Z" fill="white"/>
<path d="M94.5445 148.175H89.1815V153.538H94.5445V148.175Z" fill="white"/>
<path d="M99.9075 8.73657H94.5445V14.0996H99.9075V8.73657Z" fill="white"/>
<path d="M99.9075 14.0995H94.5445V19.4625H99.9075V14.0995Z" fill="white"/>
<path d="M99.9075 19.4624H94.5445V24.8254H99.9075V19.4624Z" fill="white"/>
<path d="M99.9075 24.8254H94.5445V30.1884H99.9075V24.8254Z" fill="white"/>
<path d="M99.9075 30.1886H94.5445V35.5516H99.9075V30.1886Z" fill="white"/>
<path d="M99.9075 35.5515H94.5445V40.9145H99.9075V35.5515Z" fill="white"/>
<path d="M99.9075 40.9146H94.5445V46.2776H99.9075V40.9146Z" fill="white"/>
<path d="M99.9075 51.6404H94.5445V57.0034H99.9075V51.6404Z" fill="white"/>
<path d="M99.9075 57.0035H94.5445V62.3665H99.9075V57.0035Z" fill="white"/>
<path d="M99.9075 67.7295H94.5445V73.0925H99.9075V67.7295Z" fill="white"/>
<path d="M99.9075 73.0927H94.5445V78.4557H99.9075V73.0927Z" fill="white"/>
<path d="M99.9075 89.1815H94.5445V94.5445H99.9075V89.1815Z" fill="white"/>
<path d="M99.9075 105.271H94.5445V110.634H99.9075V105.271Z" fill="white"/>
<path d="M99.9075 121.359H94.5445V126.722H99.9075V121.359Z" fill="white"/>
<path d="M99.9075 132.085H94.5445V137.448H99.9075V132.085Z" fill="white"/>
<path d="M99.9075 142.812H94.5445V148.175H99.9075V142.812Z" fill="white"/>
<path d="M99.9075 158.901H94.5445V164.264H99.9075V158.901Z" fill="white"/>
<path d="M105.271 8.73657H99.9075V14.0996H105.271V8.73657Z" fill="white"/>
<path d="M105.271 14.0995H99.9075V19.4625H105.271V14.0995Z" fill="white"/>
<path d="M105.271 19.4624H99.9075V24.8254H105.271V19.4624Z" fill="white"/>
<path d="M105.271 30.1886H99.9075V35.5516H105.271V30.1886Z" fill="white"/>
<path d="M105.271 46.2776H99.9075V51.6406H105.271V46.2776Z" fill="white"/>
<path d="M105.271 51.6404H99.9075V57.0034H105.271V51.6404Z" fill="white"/>
<path d="M105.271 57.0035H99.9075V62.3665H105.271V57.0035Z" fill="white"/>
<path d="M105.271 62.3666H99.9075V67.7296H105.271V62.3666Z" fill="white"/>
<path d="M105.271 73.0927H99.9075V78.4557H105.271V73.0927Z" fill="white"/>
<path d="M105.271 83.8185H99.9075V89.1815H105.271V83.8185Z" fill="white"/>
<path d="M105.271 99.9073H99.9075V105.27H105.271V99.9073Z" fill="white"/>
<path d="M105.271 110.634H99.9075V115.997H105.271V110.634Z" fill="white"/>
<path d="M105.271 115.996H99.9075V121.359H105.271V115.996Z" fill="white"/>
<path d="M105.271 121.359H99.9075V126.722H105.271V121.359Z" fill="white"/>
<path d="M105.271 137.448H99.9075V142.811H105.271V137.448Z" fill="white"/>
<path d="M105.271 142.812H99.9075V148.175H105.271V142.812Z" fill="white"/>
<path d="M105.271 148.175H99.9075V153.538H105.271V148.175Z" fill="white"/>
<path d="M110.633 8.73657H105.27V14.0996H110.633V8.73657Z" fill="white"/>
<path d="M110.633 14.0995H105.27V19.4625H110.633V14.0995Z" fill="white"/>
<path d="M110.633 24.8254H105.27V30.1884H110.633V24.8254Z" fill="white"/>
<path d="M110.633 30.1886H105.27V35.5516H110.633V30.1886Z" fill="white"/>
<path d="M110.633 40.9146H105.27V46.2776H110.633V40.9146Z" fill="white"/>
<path d="M110.633 51.6404H105.27V57.0034H110.633V51.6404Z" fill="white"/>
<path d="M110.633 57.0035H105.27V62.3665H110.633V57.0035Z" fill="white"/>
<path d="M110.633 73.0927H105.27V78.4557H110.633V73.0927Z" fill="white"/>
<path d="M110.633 83.8185H105.27V89.1815H110.633V83.8185Z" fill="white"/>
<path d="M110.633 94.5444H105.27V99.9074H110.633V94.5444Z" fill="white"/>
<path d="M110.633 99.9073H105.27V105.27H110.633V99.9073Z" fill="white"/>
<path d="M110.633 105.271H105.27V110.634H110.633V105.271Z" fill="white"/>
<path d="M110.633 110.634H105.27V115.997H110.633V110.634Z" fill="white"/>
<path d="M110.633 158.901H105.27V164.264H110.633V158.901Z" fill="white"/>
<path d="M115.997 8.73657H110.634V14.0996H115.997V8.73657Z" fill="white"/>
<path d="M115.997 14.0995H110.634V19.4625H115.997V14.0995Z" fill="white"/>
<path d="M115.997 19.4624H110.634V24.8254H115.997V19.4624Z" fill="white"/>
<path d="M115.997 35.5515H110.634V40.9145H115.997V35.5515Z" fill="white"/>
<path d="M115.997 67.7295H110.634V73.0925H115.997V67.7295Z" fill="white"/>
<path d="M115.997 78.4556H110.634V83.8186H115.997V78.4556Z" fill="white"/>
<path d="M115.997 83.8185H110.634V89.1815H115.997V83.8185Z" fill="white"/>
<path d="M115.997 89.1815H110.634V94.5445H115.997V89.1815Z" fill="white"/>
<path d="M115.997 94.5444H110.634V99.9074H115.997V94.5444Z" fill="white"/>
<path d="M115.997 110.634H110.634V115.997H115.997V110.634Z" fill="white"/>
<path d="M115.997 121.359H110.634V126.722H115.997V121.359Z" fill="white"/>
<path d="M115.997 126.722H110.634V132.085H115.997V126.722Z" fill="white"/>
<path d="M115.997 132.085H110.634V137.448H115.997V132.085Z" fill="white"/>
<path d="M115.997 148.175H110.634V153.538H115.997V148.175Z" fill="white"/>
<path d="M115.997 153.538H110.634V158.901H115.997V153.538Z" fill="white"/>
<path d="M115.997 158.901H110.634V164.264H115.997V158.901Z" fill="white"/>
<path d="M121.36 8.73657H115.997V14.0996H121.36V8.73657Z" fill="white"/>
<path d="M121.36 14.0995H115.997V19.4625H121.36V14.0995Z" fill="white"/>
<path d="M121.36 19.4624H115.997V24.8254H121.36V19.4624Z" fill="white"/>
<path d="M121.36 40.9146H115.997V46.2776H121.36V40.9146Z" fill="white"/>
<path d="M121.36 67.7295H115.997V73.0925H121.36V67.7295Z" fill="white"/>
<path d="M121.36 73.0927H115.997V78.4557H121.36V73.0927Z" fill="white"/>
<path d="M121.36 78.4556H115.997V83.8186H121.36V78.4556Z" fill="white"/>
<path d="M121.36 83.8185H115.997V89.1815H121.36V83.8185Z" fill="white"/>
<path d="M121.36 99.9073H115.997V105.27H121.36V99.9073Z" fill="white"/>
<path d="M121.36 110.634H115.997V115.997H121.36V110.634Z" fill="white"/>
<path d="M121.36 115.996H115.997V121.359H121.36V115.996Z" fill="white"/>
<path d="M121.36 121.359H115.997V126.722H121.36V121.359Z" fill="white"/>
<path d="M121.36 126.722H115.997V132.085H121.36V126.722Z" fill="white"/>
<path d="M121.36 132.085H115.997V137.448H121.36V132.085Z" fill="white"/>
<path d="M121.36 137.448H115.997V142.811H121.36V137.448Z" fill="white"/>
<path d="M121.36 142.812H115.997V148.175H121.36V142.812Z" fill="white"/>
<path d="M121.36 148.175H115.997V153.538H121.36V148.175Z" fill="white"/>
<path d="M126.722 51.6404H121.359V57.0034H126.722V51.6404Z" fill="white"/>
<path d="M126.722 62.3666H121.359V67.7296H126.722V62.3666Z" fill="white"/>
<path d="M126.722 73.0927H121.359V78.4557H126.722V73.0927Z" fill="white"/>
<path d="M126.722 78.4556H121.359V83.8186H126.722V78.4556Z" fill="white"/>
<path d="M126.722 89.1815H121.359V94.5445H126.722V89.1815Z" fill="white"/>
<path d="M126.722 110.634H121.359V115.997H126.722V110.634Z" fill="white"/>
<path d="M126.722 115.996H121.359V121.359H126.722V115.996Z" fill="white"/>
<path d="M126.722 137.448H121.359V142.811H126.722V137.448Z" fill="white"/>
<path d="M126.722 142.812H121.359V148.175H126.722V142.812Z" fill="white"/>
<path d="M126.722 148.175H121.359V153.538H126.722V148.175Z" fill="white"/>
<path d="M132.086 73.0927H126.723V78.4557H132.086V73.0927Z" fill="white"/>
<path d="M132.086 89.1815H126.723V94.5445H132.086V89.1815Z" fill="white"/>
<path d="M132.086 99.9073H126.723V105.27H132.086V99.9073Z" fill="white"/>
<path d="M132.086 110.634H126.723V115.997H132.086V110.634Z" fill="white"/>
<path d="M132.086 115.996H126.723V121.359H132.086V115.996Z" fill="white"/>
<path d="M132.086 126.722H126.723V132.085H132.086V126.722Z" fill="white"/>
<path d="M132.086 137.448H126.723V142.811H132.086V137.448Z" fill="white"/>
<path d="M132.086 148.175H126.723V153.538H132.086V148.175Z" fill="white"/>
<path d="M132.086 153.538H126.723V158.901H132.086V153.538Z" fill="white"/>
<path d="M137.449 51.6404H132.086V57.0034H137.449V51.6404Z" fill="white"/>
<path d="M137.449 62.3666H132.086V67.7296H137.449V62.3666Z" fill="white"/>
<path d="M137.449 73.0927H132.086V78.4557H137.449V73.0927Z" fill="white"/>
<path d="M137.449 78.4556H132.086V83.8186H137.449V78.4556Z" fill="white"/>
<path d="M137.449 83.8185H132.086V89.1815H137.449V83.8185Z" fill="white"/>
<path d="M137.449 89.1815H132.086V94.5445H137.449V89.1815Z" fill="white"/>
<path d="M137.449 99.9073H132.086V105.27H137.449V99.9073Z" fill="white"/>
<path d="M137.449 110.634H132.086V115.997H137.449V110.634Z" fill="white"/>
<path d="M137.449 115.996H132.086V121.359H137.449V115.996Z" fill="white"/>
<path d="M137.449 137.448H132.086V142.811H137.449V137.448Z" fill="white"/>
<path d="M137.449 142.812H132.086V148.175H137.449V142.812Z" fill="white"/>
<path d="M137.449 153.538H132.086V158.901H137.449V153.538Z" fill="white"/>
<path d="M137.449 158.901H132.086V164.264H137.449V158.901Z" fill="white"/>
<path d="M142.812 51.6404H137.449V57.0034H142.812V51.6404Z" fill="white"/>
<path d="M142.812 62.3666H137.449V67.7296H142.812V62.3666Z" fill="white"/>
<path d="M142.812 67.7295H137.449V73.0925H142.812V67.7295Z" fill="white"/>
<path d="M142.812 78.4556H137.449V83.8186H142.812V78.4556Z" fill="white"/>
<path d="M142.812 83.8185H137.449V89.1815H142.812V83.8185Z" fill="white"/>
<path d="M142.812 89.1815H137.449V94.5445H142.812V89.1815Z" fill="white"/>
<path d="M142.812 94.5444H137.449V99.9074H142.812V94.5444Z" fill="white"/>
<path d="M142.812 99.9073H137.449V105.27H142.812V99.9073Z" fill="white"/>
<path d="M142.812 110.634H137.449V115.997H142.812V110.634Z" fill="white"/>
<path d="M142.812 115.996H137.449V121.359H142.812V115.996Z" fill="white"/>
<path d="M142.812 121.359H137.449V126.722H142.812V121.359Z" fill="white"/>
<path d="M142.812 126.722H137.449V132.085H142.812V126.722Z" fill="white"/>
<path d="M142.812 132.085H137.449V137.448H142.812V132.085Z" fill="white"/>
<path d="M142.812 137.448H137.449V142.811H142.812V137.448Z" fill="white"/>
<path d="M142.812 153.538H137.449V158.901H142.812V153.538Z" fill="white"/>
<path d="M148.175 51.6404H142.812V57.0034H148.175V51.6404Z" fill="white"/>
<path d="M148.175 57.0035H142.812V62.3665H148.175V57.0035Z" fill="white"/>
<path d="M148.175 62.3666H142.812V67.7296H148.175V62.3666Z" fill="white"/>
<path d="M148.175 73.0927H142.812V78.4557H148.175V73.0927Z" fill="white"/>
<path d="M148.175 83.8185H142.812V89.1815H148.175V83.8185Z" fill="white"/>
<path d="M148.175 105.271H142.812V110.634H148.175V105.271Z" fill="white"/>
<path d="M148.175 132.085H142.812V137.448H148.175V132.085Z" fill="white"/>
<path d="M148.175 153.538H142.812V158.901H148.175V153.538Z" fill="white"/>
<path d="M153.537 62.3666H148.174V67.7296H153.537V62.3666Z" fill="white"/>
<path d="M153.537 78.4556H148.174V83.8186H153.537V78.4556Z" fill="white"/>
<path d="M153.537 89.1815H148.174V94.5445H153.537V89.1815Z" fill="white"/>
<path d="M153.537 99.9073H148.174V105.27H153.537V99.9073Z" fill="white"/>
<path d="M153.537 105.271H148.174V110.634H153.537V105.271Z" fill="white"/>
<path d="M153.537 115.996H148.174V121.359H153.537V115.996Z" fill="white"/>
<path d="M153.537 121.359H148.174V126.722H153.537V121.359Z" fill="white"/>
<path d="M153.537 132.085H148.174V137.448H153.537V132.085Z" fill="white"/>
<path d="M153.537 137.448H148.174V142.811H153.537V137.448Z" fill="white"/>
<path d="M153.537 153.538H148.174V158.901H153.537V153.538Z" fill="white"/>
<path d="M153.537 158.901H148.174V164.264H153.537V158.901Z" fill="white"/>
<path d="M158.9 51.6404H153.537V57.0034H158.9V51.6404Z" fill="white"/>
<path d="M158.9 78.4556H153.537V83.8186H158.9V78.4556Z" fill="white"/>
<path d="M158.9 83.8185H153.537V89.1815H158.9V83.8185Z" fill="white"/>
<path d="M158.9 105.271H153.537V110.634H158.9V105.271Z" fill="white"/>
<path d="M158.9 126.722H153.537V132.085H158.9V126.722Z" fill="white"/>
<path d="M158.9 137.448H153.537V142.811H158.9V137.448Z" fill="white"/>
<path d="M158.9 148.175H153.537V153.538H158.9V148.175Z" fill="white"/>
<path d="M158.9 158.901H153.537V164.264H158.9V158.901Z" fill="white"/>
<path d="M164.264 62.3666H158.901V67.7296H164.264V62.3666Z" fill="white"/>
<path d="M164.264 110.634H158.901V115.997H164.264V110.634Z" fill="white"/>
<path d="M164.264 115.996H158.901V121.359H164.264V115.996Z" fill="white"/>
<path d="M164.264 121.359H158.901V126.722H164.264V121.359Z" fill="white"/>
<path d="M164.264 132.085H158.901V137.448H164.264V132.085Z" fill="white"/>
<path d="M164.264 137.448H158.901V142.811H164.264V137.448Z" fill="white"/>
</mask>
<g mask="url(#mask0_2092_1496)">
<path d="M164.263 8.73657H8.73648V164.264H164.263V8.73657Z" fill="#252525"/>
</g>
<mask id="mask1_2092_1496" style="mask-type:luminance" maskUnits="userSpaceOnUse" x="8" y="8" width="39" height="39">
<path d="M14.0995 8.73657H8.73648V14.0996H14.0995V8.73657Z" fill="white"/>
<path d="M14.0995 14.0995H8.73648V19.4625H14.0995V14.0995Z" fill="white"/>
<path d="M14.0995 19.4624H8.73648V24.8254H14.0995V19.4624Z" fill="white"/>
<path d="M14.0995 24.8254H8.73648V30.1884H14.0995V24.8254Z" fill="white"/>
<path d="M14.0995 30.1886H8.73648V35.5516H14.0995V30.1886Z" fill="white"/>
<path d="M14.0995 35.5515H8.73648V40.9145H14.0995V35.5515Z" fill="white"/>
<path d="M14.0995 40.9146H8.73648V46.2776H14.0995V40.9146Z" fill="white"/>
<path d="M19.4625 8.73657H14.0995V14.0996H19.4625V8.73657Z" fill="white"/>
<path d="M19.4625 40.9146H14.0995V46.2776H19.4625V40.9146Z" fill="white"/>
<path d="M24.8255 8.73657H19.4625V14.0996H24.8255V8.73657Z" fill="white"/>
<path d="M24.8255 40.9146H19.4625V46.2776H24.8255V40.9146Z" fill="white"/>
<path d="M30.1885 8.73657H24.8255V14.0996H30.1885V8.73657Z" fill="white"/>
<path d="M30.1885 40.9146H24.8255V46.2776H30.1885V40.9146Z" fill="white"/>
<path d="M35.5515 8.73657H30.1885V14.0996H35.5515V8.73657Z" fill="white"/>
<path d="M35.5515 40.9146H30.1885V46.2776H35.5515V40.9146Z" fill="white"/>
<path d="M40.9145 8.73657H35.5515V14.0996H40.9145V8.73657Z" fill="white"/>
<path d="M40.9145 40.9146H35.5515V46.2776H40.9145V40.9146Z" fill="white"/>
<path d="M46.2775 8.73657H40.9145V14.0996H46.2775V8.73657Z" fill="white"/>
<path d="M46.2775 14.0995H40.9145V19.4625H46.2775V14.0995Z" fill="white"/>
<path d="M46.2775 19.4624H40.9145V24.8254H46.2775V19.4624Z" fill="white"/>
<path d="M46.2775 24.8254H40.9145V30.1884H46.2775V24.8254Z" fill="white"/>
<path d="M46.2775 30.1886H40.9145V35.5516H46.2775V30.1886Z" fill="white"/>
<path d="M46.2775 35.5515H40.9145V40.9145H46.2775V35.5515Z" fill="white"/>
<path d="M46.2775 40.9146H40.9145V46.2776H46.2775V40.9146Z" fill="white"/>
</mask>
<g mask="url(#mask1_2092_1496)">
<path d="M46.2775 8.73657H8.73648V46.2776H46.2775V8.73657Z" fill="#252525"/>
</g>
<mask id="mask2_2092_1496" style="mask-type:luminance" maskUnits="userSpaceOnUse" x="19" y="19" width="17" height="17">
<path d="M24.8255 19.4624H19.4625V24.8254H24.8255V19.4624Z" fill="white"/>
<path d="M24.8255 24.8254H19.4625V30.1884H24.8255V24.8254Z" fill="white"/>
<path d="M24.8255 30.1886H19.4625V35.5516H24.8255V30.1886Z" fill="white"/>
<path d="M30.1885 19.4624H24.8255V24.8254H30.1885V19.4624Z" fill="white"/>
<path d="M30.1885 24.8254H24.8255V30.1884H30.1885V24.8254Z" fill="white"/>
<path d="M30.1885 30.1886H24.8255V35.5516H30.1885V30.1886Z" fill="white"/>
<path d="M35.5515 19.4624H30.1885V24.8254H35.5515V19.4624Z" fill="white"/>
<path d="M35.5515 24.8254H30.1885V30.1884H35.5515V24.8254Z" fill="white"/>
<path d="M35.5515 30.1886H30.1885V35.5516H35.5515V30.1886Z" fill="white"/>
</mask>
<g mask="url(#mask2_2092_1496)">
<path d="M35.5515 19.4624H19.4625V35.5514H35.5515V19.4624Z" fill="#252525"/>
</g>
<mask id="mask3_2092_1496" style="mask-type:luminance" maskUnits="userSpaceOnUse" x="126" y="8" width="39" height="39">
<path d="M132.086 8.73657H126.723V14.0996H132.086V8.73657Z" fill="white"/>
<path d="M132.086 14.0995H126.723V19.4625H132.086V14.0995Z" fill="white"/>
<path d="M132.086 19.4624H126.723V24.8254H132.086V19.4624Z" fill="white"/>
<path d="M132.086 24.8254H126.723V30.1884H132.086V24.8254Z" fill="white"/>
<path d="M132.086 30.1886H126.723V35.5516H132.086V30.1886Z" fill="white"/>
<path d="M132.086 35.5515H126.723V40.9145H132.086V35.5515Z" fill="white"/>
<path d="M132.086 40.9146H126.723V46.2776H132.086V40.9146Z" fill="white"/>
<path d="M137.449 8.73657H132.086V14.0996H137.449V8.73657Z" fill="white"/>
<path d="M137.449 40.9146H132.086V46.2776H137.449V40.9146Z" fill="white"/>
<path d="M142.811 8.73657H137.448V14.0996H142.811V8.73657Z" fill="white"/>
<path d="M142.811 40.9146H137.448V46.2776H142.811V40.9146Z" fill="white"/>
<path d="M148.174 8.73657H142.811V14.0996H148.174V8.73657Z" fill="white"/>
<path d="M148.174 40.9146H142.811V46.2776H148.174V40.9146Z" fill="white"/>
<path d="M153.537 8.73657H148.174V14.0996H153.537V8.73657Z" fill="white"/>
<path d="M153.537 40.9146H148.174V46.2776H153.537V40.9146Z" fill="white"/>
<path d="M158.9 8.73657H153.537V14.0996H158.9V8.73657Z" fill="white"/>
<path d="M158.9 40.9146H153.537V46.2776H158.9V40.9146Z" fill="white"/>
<path d="M164.264 8.73657H158.901V14.0996H164.264V8.73657Z" fill="white"/>
<path d="M164.264 14.0995H158.901V19.4625H164.264V14.0995Z" fill="white"/>
<path d="M164.264 19.4624H158.901V24.8254H164.264V19.4624Z" fill="white"/>
<path d="M164.264 24.8254H158.901V30.1884H164.264V24.8254Z" fill="white"/>
<path d="M164.264 30.1886H158.901V35.5516H164.264V30.1886Z" fill="white"/>
<path d="M164.264 35.5515H158.901V40.9145H164.264V35.5515Z" fill="white"/>
<path d="M164.264 40.9146H158.901V46.2776H164.264V40.9146Z" fill="white"/>
</mask>
<g mask="url(#mask3_2092_1496)">
<path d="M164.264 8.73657H126.723V46.2776H164.264V8.73657Z" fill="#252525"/>
</g>
<mask id="mask4_2092_1496" style="mask-type:luminance" maskUnits="userSpaceOnUse" x="137" y="19" width="17" height="17">
<path d="M142.812 19.4624H137.449V24.8254H142.812V19.4624Z" fill="white"/>
<path d="M142.812 24.8254H137.449V30.1884H142.812V24.8254Z" fill="white"/>
<path d="M142.812 30.1886H137.449V35.5516H142.812V30.1886Z" fill="white"/>
<path d="M148.174 19.4624H142.811V24.8254H148.174V19.4624Z" fill="white"/>
<path d="M148.174 24.8254H142.811V30.1884H148.174V24.8254Z" fill="white"/>
<path d="M148.174 30.1886H142.811V35.5516H148.174V30.1886Z" fill="white"/>
<path d="M153.538 19.4624H148.175V24.8254H153.538V19.4624Z" fill="white"/>
<path d="M153.538 24.8254H148.175V30.1884H153.538V24.8254Z" fill="white"/>
<path d="M153.538 30.1886H148.175V35.5516H153.538V30.1886Z" fill="white"/>
</mask>
<g mask="url(#mask4_2092_1496)">
<path d="M153.538 19.4624H137.449V35.5514H153.538V19.4624Z" fill="#252525"/>
</g>
<mask id="mask5_2092_1496" style="mask-type:luminance" maskUnits="userSpaceOnUse" x="8" y="126" width="39" height="39">
<path d="M14.0995 126.722H8.73648V132.085H14.0995V126.722Z" fill="white"/>
<path d="M14.0995 132.085H8.73648V137.448H14.0995V132.085Z" fill="white"/>
<path d="M14.0995 137.448H8.73648V142.811H14.0995V137.448Z" fill="white"/>
<path d="M14.0995 142.811H8.73648V148.174H14.0995V142.811Z" fill="white"/>
<path d="M14.0995 148.175H8.73648V153.538H14.0995V148.175Z" fill="white"/>
<path d="M14.0995 153.538H8.73648V158.901H14.0995V153.538Z" fill="white"/>
<path d="M14.0995 158.901H8.73648V164.264H14.0995V158.901Z" fill="white"/>
<path d="M19.4625 126.722H14.0995V132.085H19.4625V126.722Z" fill="white"/>
<path d="M19.4625 158.901H14.0995V164.264H19.4625V158.901Z" fill="white"/>
<path d="M24.8255 126.722H19.4625V132.085H24.8255V126.722Z" fill="white"/>
<path d="M24.8255 158.901H19.4625V164.264H24.8255V158.901Z" fill="white"/>
<path d="M30.1885 126.722H24.8255V132.085H30.1885V126.722Z" fill="white"/>
<path d="M30.1885 158.901H24.8255V164.264H30.1885V158.901Z" fill="white"/>
<path d="M35.5515 126.722H30.1885V132.085H35.5515V126.722Z" fill="white"/>
<path d="M35.5515 158.901H30.1885V164.264H35.5515V158.901Z" fill="white"/>
<path d="M40.9145 126.722H35.5515V132.085H40.9145V126.722Z" fill="white"/>
<path d="M40.9145 158.901H35.5515V164.264H40.9145V158.901Z" fill="white"/>
<path d="M46.2775 126.722H40.9145V132.085H46.2775V126.722Z" fill="white"/>
<path d="M46.2775 132.085H40.9145V137.448H46.2775V132.085Z" fill="white"/>
<path d="M46.2775 137.448H40.9145V142.811H46.2775V137.448Z" fill="white"/>
<path d="M46.2775 142.811H40.9145V148.174H46.2775V142.811Z" fill="white"/>
<path d="M46.2775 148.175H40.9145V153.538H46.2775V148.175Z" fill="white"/>
<path d="M46.2775 153.538H40.9145V158.901H46.2775V153.538Z" fill="white"/>
<path d="M46.2775 158.901H40.9145V164.264H46.2775V158.901Z" fill="white"/>
</mask>
<g mask="url(#mask5_2092_1496)">
<path d="M46.2775 126.722H8.73648V164.263H46.2775V126.722Z" fill="#252525"/>
</g>
<mask id="mask6_2092_1496" style="mask-type:luminance" maskUnits="userSpaceOnUse" x="19" y="137" width="17" height="17">
<path d="M24.8255 137.448H19.4625V142.811H24.8255V137.448Z" fill="white"/>
<path d="M24.8255 142.811H19.4625V148.174H24.8255V142.811Z" fill="white"/>
<path d="M24.8255 148.175H19.4625V153.538H24.8255V148.175Z" fill="white"/>
<path d="M30.1885 137.448H24.8255V142.811H30.1885V137.448Z" fill="white"/>
<path d="M30.1885 142.811H24.8255V148.174H30.1885V142.811Z" fill="white"/>
<path d="M30.1885 148.175H24.8255V153.538H30.1885V148.175Z" fill="white"/>
<path d="M35.5515 137.448H30.1885V142.811H35.5515V137.448Z" fill="white"/>
<path d="M35.5515 142.811H30.1885V148.174H35.5515V142.811Z" fill="white"/>
<path d="M35.5515 148.175H30.1885V153.538H35.5515V148.175Z" fill="white"/>
</mask>
<g mask="url(#mask6_2092_1496)">
<path d="M35.5515 137.448H19.4625V153.537H35.5515V137.448Z" fill="#252525"/>
</g>
</g>
<defs>
<clipPath id="clip0_2092_1496">
<rect width="173" height="173" rx="12" fill="white"/>
</clipPath>
</defs>
</svg>
