<svg width="300" height="9" viewBox="0 0 300 9" fill="none" xmlns="http://www.w3.org/2000/svg">
<path d="M299 1.00003L293.876 5.87953C292.135 7.53723 289.335 7.29594 287.904 5.36482L287.154 4.35307C285.799 2.52476 283.193 2.19412 281.424 3.62596L277.794 6.5642C276.116 7.92211 273.664 7.70412 272.252 6.07159L270.611 4.17396C269.116 2.44617 266.481 2.3185 264.827 3.89376L262.503 6.10627C260.849 7.68152 258.214 7.55385 256.719 5.82606L255.375 4.27181C253.85 2.50774 251.144 2.41774 249.505 4.07651L247.398 6.20762C245.866 7.75815 243.374 7.79591 241.795 6.29252L238.996 3.62663C237.451 2.15566 235.024 2.15566 233.479 3.62663L230.594 6.37338C229.049 7.84435 226.622 7.84435 225.077 6.37338L222.193 3.62663C220.648 2.15566 218.221 2.15566 216.676 3.62663L213.792 6.37338C212.247 7.84435 209.82 7.84435 208.275 6.37338L205.39 3.62663C203.845 2.15566 201.418 2.15566 199.873 3.62663L196.989 6.37338C195.444 7.84435 193.017 7.84435 191.472 6.37338L188.588 3.62663C187.043 2.15566 184.616 2.15566 183.071 3.62663L180.186 6.37338C178.641 7.84435 176.214 7.84435 174.669 6.37338L171.785 3.62663C170.24 2.15566 167.813 2.15566 166.268 3.62663L163.384 6.37338C161.839 7.84435 159.412 7.84434 157.867 6.37338L154.982 3.62662C153.437 2.15566 151.01 2.15566 149.465 3.62663L146.581 6.37338C145.036 7.84434 142.609 7.84434 141.064 6.37337L138.18 3.62662C136.635 2.15565 134.208 2.15566 132.663 3.62662L129.778 6.37337C128.234 7.84434 125.806 7.84434 124.262 6.37337L121.377 3.62662C119.832 2.15565 117.405 2.15565 115.86 3.62662L112.976 6.37337C111.431 7.84434 109.004 7.84434 107.459 6.37337L104.574 3.62662C103.03 2.15565 100.602 2.15565 99.0575 3.62662L96.173 6.37337C94.6282 7.84434 92.201 7.84434 90.6562 6.37337L87.7716 3.62662C86.2269 2.15565 83.7996 2.15565 82.2549 3.62662L79.3703 6.37337C77.8256 7.84434 75.3983 7.84434 73.8535 6.37337L70.969 3.62662C69.4242 2.15565 66.997 2.15565 65.4522 3.62662L62.5677 6.37337C61.0229 7.84434 58.5957 7.84434 57.0509 6.37337L54.1663 3.62662C52.6216 2.15565 50.1943 2.15565 48.6496 3.62662L45.765 6.37337C44.2202 7.84434 41.793 7.84433 40.2482 6.37337L37.3637 3.62661C35.8189 2.15565 33.3917 2.15565 31.8469 3.62661L28.9624 6.37337C27.4176 7.84433 24.9904 7.84433 23.4456 6.37336L20.561 3.62661C19.0163 2.15564 16.589 2.15565 15.0443 3.62661L12.1597 6.37336C10.6149 7.84433 8.1877 7.84433 6.64293 6.37336L0.999994 1" stroke="#FF7511" stroke-width="2"/>
</svg>
