<svg width="120" height="9" viewBox="0 0 120 9" fill="none" xmlns="http://www.w3.org/2000/svg">
<path d="M119 1.00003L113.357 6.37339C111.812 7.84436 109.385 7.84436 107.84 6.37339L104.956 3.62664C103.411 2.15567 100.984 2.15567 99.439 3.62664L96.5544 6.37339C95.0096 7.84436 92.5824 7.84435 91.0376 6.37339L88.1531 3.62663C86.6083 2.15567 84.1811 2.15567 82.6363 3.62664L79.7517 6.37339C78.207 7.84436 75.7797 7.84435 74.235 6.37339L71.3504 3.62663C69.8057 2.15566 67.3784 2.15567 65.8336 3.62663L62.9491 6.37338C61.4043 7.84435 58.9771 7.84435 57.4323 6.37338L54.5478 3.62663C53.003 2.15566 50.5758 2.15566 49.031 3.62663L46.1464 6.37339C44.6017 7.84435 42.1744 7.84435 40.6297 6.37339L37.7451 3.62664C36.2003 2.15567 33.7731 2.15567 32.2283 3.62665L29.3438 6.37336C27.7991 7.84434 25.3718 7.84435 23.827 6.37337L20.9425 3.62662C19.3977 2.15566 16.9705 2.15566 15.4257 3.62662L12.5411 6.37338C10.9964 7.84435 8.56912 7.84434 7.02436 6.37337L1.38146 1.00002" stroke="#FF7511" stroke-width="2" stroke-linecap="round"/>
</svg>
