<svg width="87" height="15" viewBox="0 0 87 15" fill="none" xmlns="http://www.w3.org/2000/svg">
<rect opacity="0.35" x="57.2697" y="1.13041" width="26.5344" height="13.2672" rx="4.20127" stroke="black" stroke-width="1.1056"/>
<path opacity="0.4" d="M85.4625 5.86362V10.3695C86.3522 9.98783 86.9307 9.10008 86.9307 8.11653C86.9307 7.13299 86.3522 6.24523 85.4625 5.86362" fill="black"/>
<rect x="58.9281" y="2.78882" width="23.2176" height="9.95038" rx="2.76399" fill="black"/>
<path fill-rule="evenodd" clip-rule="evenodd" d="M39.3265 4.00943C42.0762 4.00955 44.7208 5.029 46.7136 6.85708C46.8637 6.99822 47.1036 6.99644 47.2514 6.85309L48.6859 5.45621C48.7607 5.3835 48.8024 5.28502 48.8018 5.18255C48.8012 5.08008 48.7583 4.98208 48.6826 4.91022C43.452 0.0735459 35.2001 0.0735459 29.9695 4.91022C29.8937 4.98202 29.8507 5.08 29.85 5.18247C29.8493 5.28494 29.891 5.38345 29.9658 5.45621L31.4007 6.85309C31.5484 6.99665 31.7885 6.99844 31.9384 6.85708C33.9315 5.02888 36.5764 4.00942 39.3265 4.00943ZM39.3227 8.67536C40.8234 8.67527 42.2705 9.24104 43.3829 10.2628C43.5333 10.4078 43.7703 10.4046 43.917 10.2557L45.3402 8.79705C45.4151 8.72054 45.4567 8.61675 45.4556 8.5089C45.4546 8.40105 45.4109 8.29813 45.3344 8.22319C41.9471 5.02707 36.7013 5.02707 33.3139 8.22319C33.2374 8.29813 33.1938 8.4011 33.1928 8.50898C33.1917 8.61687 33.2335 8.72065 33.3086 8.79705L34.7314 10.2557C34.8781 10.4046 35.1151 10.4078 35.2655 10.2628C36.3771 9.24172 37.8231 8.67599 39.3227 8.67536ZM42.1137 11.7639C42.1159 11.8804 42.0749 11.9927 42.0005 12.0743L39.594 14.7882C39.5234 14.868 39.4272 14.9129 39.3269 14.9129C39.2265 14.9129 39.1304 14.868 39.0598 14.7882L36.6529 12.0743C36.5785 11.9926 36.5376 11.8803 36.5398 11.7638C36.542 11.6473 36.5872 11.537 36.6645 11.459C38.2014 10.0063 40.4524 10.0063 41.9892 11.459C42.0666 11.5371 42.1116 11.6474 42.1137 11.7639Z" fill="black"/>
<path fill-rule="evenodd" clip-rule="evenodd" d="M21.5589 2.43728C21.5589 1.73739 21.0309 1.17001 20.3796 1.17001H19.2003C18.549 1.17001 18.021 1.73739 18.021 2.43728V13.4202C18.021 14.1201 18.549 14.6875 19.2003 14.6875H20.3796C21.0309 14.6875 21.5589 14.1201 21.5589 13.4202V2.43728ZM13.3398 3.87351H14.5191C15.1704 3.87351 15.6984 4.4545 15.6984 5.17119V13.3898C15.6984 14.1065 15.1704 14.6875 14.5191 14.6875H13.3398C12.6884 14.6875 12.1605 14.1065 12.1605 13.3898V5.17119C12.1605 4.4545 12.6884 3.87351 13.3398 3.87351ZM8.55056 6.80229H7.37126C6.71995 6.80229 6.19195 7.39068 6.19195 8.1165V13.3733C6.19195 14.0991 6.71995 14.6875 7.37126 14.6875H8.55056C9.20187 14.6875 9.72987 14.0991 9.72987 13.3733V8.1165C9.72987 7.39068 9.20187 6.80229 8.55056 6.80229ZM2.69003 9.50581H1.51073C0.859414 9.50581 0.331421 10.0858 0.331421 10.8012V13.3921C0.331421 14.1075 0.859414 14.6875 1.51073 14.6875H2.69003C3.34134 14.6875 3.86933 14.1075 3.86933 13.3921V10.8012C3.86933 10.0858 3.34134 9.50581 2.69003 9.50581Z" fill="black"/>
</svg>
