<svg width="15" height="19" viewBox="0 0 15 19" fill="none" xmlns="http://www.w3.org/2000/svg">
<path fill-rule="evenodd" clip-rule="evenodd" d="M14.4351 12.3431L8.07117 18.7071C7.68065 19.0976 7.04748 19.0976 6.65696 18.7071L0.292999 12.3431C-0.0975256 11.9526 -0.0975256 11.3195 0.292999 10.9289C0.683523 10.5384 1.31669 10.5384 1.70721 10.9289L6.36407 15.5858L6.36407 1C6.36407 0.447716 6.81178 3.4603e-07 7.36407 3.21889e-07C7.91635 2.97748e-07 8.36407 0.447716 8.36407 1L8.36407 15.5858L13.0209 10.9289C13.4114 10.5384 14.0446 10.5384 14.4351 10.9289C14.8257 11.3195 14.8257 11.9526 14.4351 12.3431Z" fill="#FF7511"/>
</svg>
