<svg width="24" height="24" viewBox="0 0 24 24" fill="none" xmlns="http://www.w3.org/2000/svg">
<path fill-rule="evenodd" clip-rule="evenodd" d="M20.0605 3.93067C19.0089 2.87851 17.7595 2.04476 16.3843 1.4774C15.0091 0.910042 13.5353 0.620284 12.0477 0.624808C5.80469 0.624808 0.7225 5.6816 0.719961 11.8982C0.717199 13.8778 1.23899 15.8227 2.23223 17.535L0.854888 22.5395C0.752735 22.9107 1.09077 23.2532 1.46326 23.156L6.62988 21.8072C8.29206 22.7077 10.1527 23.1789 12.0432 23.1783H12.0477C18.2903 23.1783 23.372 18.121 23.375 11.9048C23.3788 10.4223 23.0877 8.95384 22.5187 7.58485C21.9496 6.21587 21.1141 4.97371 20.0605 3.93067ZM12.0477 21.2755H12.0437C10.3584 21.276 8.70384 20.825 7.25195 19.9694L6.90816 19.7663L3.34484 20.6966L4.29598 17.2389L4.07203 16.8834C3.12973 15.3916 2.63048 13.6628 2.63238 11.8982C2.63238 6.73227 6.85789 2.5291 12.0513 2.5291C14.5426 2.52466 16.9337 3.50996 18.6986 5.26831C20.4635 7.02665 21.4577 9.41403 21.4626 11.9054C21.4605 17.0718 17.2371 21.2755 12.0477 21.2755ZM17.2117 14.258C16.9288 14.1169 15.5359 13.4354 15.2779 13.3414C15.02 13.2475 14.8295 13.2003 14.6411 13.4826C14.4527 13.765 13.9099 14.3967 13.7448 14.5871C13.5798 14.7775 13.4148 14.7984 13.1319 14.6572C12.8491 14.516 11.9365 14.2189 10.8554 13.2592C10.0139 12.5122 9.44621 11.59 9.28117 11.3082C9.11613 11.0263 9.2634 10.8735 9.40508 10.7333C9.53254 10.6069 9.68793 10.4043 9.82961 10.2397C9.97129 10.0752 10.0185 9.95739 10.1125 9.7695C10.2064 9.5816 10.1597 9.41707 10.0891 9.27641C10.0185 9.13574 9.4523 7.74891 9.21668 7.18473C8.98664 6.63528 8.75355 6.70993 8.57988 6.70129C8.41484 6.69317 8.22441 6.69114 8.03703 6.69114C7.89378 6.69487 7.75284 6.72808 7.62301 6.78872C7.49317 6.84936 7.37723 6.93611 7.28242 7.04356C7.02293 7.3259 6.29168 8.0084 6.29168 9.39371C6.29168 10.779 7.3073 12.1197 7.44746 12.3075C7.58762 12.4954 9.44316 15.3407 12.2823 16.561C12.8095 16.7868 13.3482 16.9847 13.8962 17.1541C14.5741 17.3684 15.1911 17.3384 15.6786 17.2658C16.2225 17.1851 17.3544 16.5843 17.5895 15.9262C17.8246 15.2681 17.8251 14.7044 17.7545 14.5871C17.6839 14.4698 17.495 14.3987 17.2117 14.258Z" fill="#252525"/>
</svg>
