<svg width="15" height="391" viewBox="0 0 15 391" fill="none" xmlns="http://www.w3.org/2000/svg">
<path fill-rule="evenodd" clip-rule="evenodd" d="M14.7017 384.773L8.22018 390.726C7.82244 391.091 7.17758 391.091 6.77984 390.726L0.298305 384.773C-0.0994342 384.408 -0.0994343 383.816 0.298305 383.45C0.696044 383.085 1.34091 383.085 1.73865 383.45L6.48153 387.806L6.48152 0.935407C6.48152 0.418796 6.9375 3.52423e-07 7.49999 3.27836e-07C8.06248 3.03249e-07 8.51847 0.418796 8.51847 0.935407L8.51848 387.806L13.2614 383.45C13.6591 383.085 14.304 383.085 14.7017 383.45C15.0995 383.816 15.0995 384.408 14.7017 384.773Z" fill="#FF7511"/>
</svg>
