<svg width="15" height="418" viewBox="0 0 15 418" fill="none" xmlns="http://www.w3.org/2000/svg">
<path fill-rule="evenodd" clip-rule="evenodd" d="M14.7071 411.343L8.34316 417.707C7.95264 418.098 7.31947 418.098 6.92895 417.707L0.564989 411.343C0.174464 410.953 0.174464 410.319 0.564989 409.929C0.955514 409.538 1.58868 409.538 1.9792 409.929L6.63606 414.586L6.63604 1C6.63604 0.447716 7.08375 3.4603e-07 7.63604 3.21889e-07C8.18832 2.97748e-07 8.63604 0.447716 8.63604 1L8.63606 414.586L13.2929 409.929C13.6834 409.538 14.3166 409.538 14.7071 409.929C15.0976 410.319 15.0976 410.953 14.7071 411.343Z" fill="#FF7511"/>
</svg>
