<svg width="16" height="16" viewBox="0 0 16 16" fill="none" xmlns="http://www.w3.org/2000/svg">
<path d="M7.40002 0C4.02526 0.00328808 2.27916 0.0636656 1.17141 1.17141C0.0636656 2.27916 0.00328808 4.02526 0 7.40002H3.93091C3.65013 7.0493 3.44033 6.6356 3.32593 6.17798C2.89532 4.45552 4.45552 2.89532 6.17798 3.32593C6.63561 3.44033 7.0493 3.65013 7.40002 3.93091V0Z" fill="#F84F39"/>
<path d="M0 8.6001C0.00328808 11.9748 0.0636656 13.7209 1.17141 14.8287C2.27916 15.9364 4.02526 15.9968 7.40002 16V9.69901C6.77625 10.9449 5.48798 11.8002 3.99991 11.8002C3.66853 11.8002 3.39989 11.5315 3.39989 11.2002C3.39989 10.8688 3.66853 10.6001 3.99991 10.6001C5.22937 10.6001 6.25953 9.74677 6.5304 8.6001H0Z" fill="#F84F39"/>
<path d="M8.59998 16C11.9747 15.9968 13.7207 15.9364 14.8285 14.8287C15.9362 13.7209 15.9966 11.9748 15.9999 8.6001H9.46952C9.7404 9.74677 10.7706 10.6001 12.0001 10.6001C12.3314 10.6001 12.6001 10.8688 12.6001 11.2002C12.6001 11.5315 12.3314 11.8002 12.0001 11.8002C10.5119 11.8002 9.22367 10.9449 8.59998 9.69901V16Z" fill="#F84F39"/>
<path d="M15.9999 7.40002C15.9966 4.02526 15.9362 2.27916 14.8285 1.17141C13.7207 0.0636656 11.9747 0.00328808 8.59998 0V3.93091C8.9507 3.65013 9.36439 3.44033 9.82193 3.32593C11.5444 2.89532 13.1046 4.45552 12.674 6.17798C12.5596 6.6356 12.3498 7.0493 12.069 7.40002H15.9999Z" fill="#F84F39"/>
<path d="M5.88695 4.49027C6.77619 4.71258 7.40005 5.51157 7.40005 6.42814V7.40017H6.42802C5.51145 7.40017 4.71246 6.77631 4.49015 5.88707C4.27926 5.04349 5.04337 4.27938 5.88695 4.49027Z" fill="#F84F39"/>
<path d="M8.59998 6.42814V7.40017H9.57192C10.4885 7.40017 11.2875 6.77631 11.5098 5.88707C11.7207 5.04349 10.9566 4.27938 10.1131 4.49027C9.22375 4.71258 8.59998 5.51157 8.59998 6.42814Z" fill="#F84F39"/>
</svg>
