<svg width="15" height="15" viewBox="0 0 15 15" fill="none" xmlns="http://www.w3.org/2000/svg">
<path d="M7.5 11.5116C7.78899 11.5116 8.02326 11.2774 8.02326 10.9884V6.80233C8.02326 6.51334 7.78899 6.27907 7.5 6.27907C7.21101 6.27907 6.97674 6.51334 6.97674 6.80233V10.9884C6.97674 11.2774 7.21101 11.5116 7.5 11.5116Z" fill="#0E0E0E"/>
<path d="M7.5 4.01163C7.88531 4.01163 8.19767 4.32399 8.19767 4.7093C8.19767 5.09462 7.88531 5.40698 7.5 5.40698C7.11468 5.40698 6.80233 5.09462 6.80233 4.7093C6.80233 4.32399 7.11468 4.01163 7.5 4.01163Z" fill="#0E0E0E"/>
<path fill-rule="evenodd" clip-rule="evenodd" d="M0 7.5C0 3.35786 3.35786 0 7.5 0C11.6421 0 15 3.35786 15 7.5C15 11.6421 11.6421 15 7.5 15C3.35786 15 0 11.6421 0 7.5ZM7.5 1.04651C3.93584 1.04651 1.04651 3.93584 1.04651 7.5C1.04651 11.0642 3.93584 13.9535 7.5 13.9535C11.0642 13.9535 13.9535 11.0642 13.9535 7.5C13.9535 3.93584 11.0642 1.04651 7.5 1.04651Z" fill="#0E0E0E"/>
</svg>
