<svg width="15" height="15" viewBox="0 0 15 15" fill="none" xmlns="http://www.w3.org/2000/svg">
<path fill-rule="evenodd" clip-rule="evenodd" d="M7.5 1.11111C3.97151 1.11111 1.11111 3.97151 1.11111 7.5C1.11111 11.0285 3.97151 13.8889 7.5 13.8889C11.0285 13.8889 13.8889 11.0285 13.8889 7.5C13.8889 3.97151 11.0285 1.11111 7.5 1.11111ZM0 7.5C0 3.35786 3.35786 0 7.5 0C11.6421 0 15 3.35786 15 7.5C15 11.6421 11.6421 15 7.5 15C3.35786 15 0 11.6421 0 7.5ZM10.3232 5.37105C10.5402 5.58801 10.5402 5.93977 10.3232 6.15673L6.85098 9.62895C6.74679 9.73314 6.60548 9.79167 6.45814 9.79167C6.3108 9.79167 6.16949 9.73314 6.0653 9.62895L4.67641 8.24006C4.45946 8.0231 4.45946 7.67134 4.67641 7.45439C4.89337 7.23743 5.24513 7.23743 5.46209 7.45439L6.45814 8.45044L9.53752 5.37105C9.75448 5.15409 10.1062 5.15409 10.3232 5.37105Z" fill="#0E0E0E"/>
</svg>
